SplineFontDB: 3.2
FontName: Dyslexic-Bold
FullName: Dyslexic Bold
FamilyName: Dyslexic
Weight: Bold
Copyright: Copyright (c) 2008 by Christian Theo Boer, Dyslexie Patent B.V. . All rights reserved. last adjustment 2018
Version: 2008 / 2011 / 2013 / 2017 / 2018
ItalicAngle: 0
UnderlinePosition: -205
UnderlineWidth: 102
Ascent: 1638
Descent: 410
InvalidEm: 0
sfntRevision: 0x00040000
woffMajor: 1
woffMinor: 0
LayerCount: 2
Layer: 0 1 "Back" 1
Layer: 1 1 "Fore" 0
XUID: [1021 706 1424211205 16718344]
StyleMap: 0x0020
FSType: 4
OS2Version: 4
OS2_WeightWidthSlopeOnly: 0
OS2_UseTypoMetrics: 0
CreationTime: 1502323033
ModificationTime: 1750671093
PfmFamily: 81
TTFWeight: 700
TTFWidth: 5
LineGap: 717
VLineGap: 0
Panose: 0 0 0 0 0 0 0 0 0 0
OS2TypoAscent: 1931
OS2TypoAOffset: 0
OS2TypoDescent: -690
OS2TypoDOffset: 0
OS2TypoLinegap: 717
OS2WinAscent: 2488
OS2WinAOffset: 0
OS2WinDescent: 690
OS2WinDOffset: 0
HheadAscent: 2488
HheadAOffset: 0
HheadDescent: -717
HheadDOffset: 0
OS2SubXSize: 1434
OS2SubYSize: 1331
OS2SubXOff: 0
OS2SubYOff: 287
OS2SupXSize: 1434
OS2SupYSize: 1331
OS2SupXOff: 0
OS2SupYOff: 977
OS2StrikeYSize: 102
OS2StrikeYPos: 512
OS2CapHeight: 1914
OS2XHeight: 1214
OS2Vendor: 'pyrs'
OS2CodePages: 00000093.44000000
OS2UnicodeRanges: a00002af.1000204a.00000000.00000000
MarkAttachClasses: 1
DEI: 91125
TtTable: prep
PUSHW_1
 0
CALL
SVTCA[y-axis]
PUSHW_3
 1
 5
 2
CALL
SVTCA[x-axis]
PUSHW_3
 6
 3
 2
CALL
SVTCA[x-axis]
PUSHW_8
 6
 33
 25
 20
 15
 9
 0
 8
CALL
PUSHW_8
 7
 79
 65
 51
 36
 19
 0
 8
CALL
PUSHW_8
 8
 28
 25
 20
 15
 9
 0
 8
CALL
SVTCA[y-axis]
PUSHW_8
 1
 33
 25
 20
 15
 9
 0
 8
CALL
PUSHW_8
 2
 55
 45
 35
 22
 19
 0
 8
CALL
PUSHW_8
 3
 41
 32
 25
 22
 9
 0
 8
CALL
PUSHW_8
 4
 37
 32
 25
 15
 9
 0
 8
CALL
PUSHW_8
 5
 28
 25
 20
 15
 9
 0
 8
CALL
SVTCA[y-axis]
PUSHW_3
 9
 4
 7
CALL
PUSHW_1
 0
DUP
RCVT
RDTG
ROUND[Black]
RTG
WCVTP
EndTTInstrs
TtTable: fpgm
PUSHW_1
 0
FDEF
MPPEM
PUSHW_1
 9
LT
IF
PUSHB_2
 1
 1
INSTCTRL
EIF
PUSHW_1
 511
SCANCTRL
PUSHW_1
 68
SCVTCI

StartChar: e
Encoding: 101 101 4
Width: 1397
Flags: W
LayerCount: 2
Fore
SplineSet
690 -43 m 1,0,1
 569 -43 569 -43 473.5 -4.5 c 128,-1,2
 378 34 378 34 303 115 c 0,3,4
 135 290 135 290 135 567 c 0,5,6
 135 710 135 710 180 836 c 0,7,8
 202 896 202 896 232.5 950 c 128,-1,9
 263 1004 263 1004 303 1051 c 0,10,11
 385 1145 385 1145 487 1198 c 0,12,13
 541 1226 541 1226 600 1239.5 c 128,-1,14
 659 1253 659 1253 721 1253 c 1,15,-1
 721 1253 l 1,16,17
 813 1253 813 1253 876 1234 c 128,-1,18
 939 1215 939 1215 977 1196 c 0,19,20
 1000 1185 1000 1185 1026 1167 c 128,-1,21
 1052 1149 1052 1149 1076.5 1126.5 c 128,-1,22
 1101 1104 1101 1104 1123.5 1077.5 c 128,-1,23
 1146 1051 1146 1051 1161 1022 c 0,24,25
 1186 977 1186 977 1209 924.5 c 128,-1,26
 1232 872 1232 872 1243 807 c 1,27,-1
 1243 805 l 1,28,29
 1255 695 1255 695 1190 621 c 0,30,31
 1148 573 1148 573 1076 547 c 128,-1,32
 1004 521 1004 521 905 518 c 2,33,-1
 428 489 l 1,34,35
 433 454 433 454 445 416 c 128,-1,36
 457 378 457 378 481 350 c 0,37,38
 496 332 496 332 512 317 c 128,-1,39
 528 302 528 302 550.5 290.5 c 128,-1,40
 573 279 573 279 605 272.5 c 128,-1,41
 637 266 637 266 684 266 c 2,42,-1
 690 266 l 1,43,-1
 690 266 l 1,44,45
 725 267 725 267 759 267.5 c 128,-1,46
 793 268 793 268 822.5 269.5 c 128,-1,47
 852 271 852 271 875 273.5 c 128,-1,48
 898 276 898 276 911 281 c 256,49,50
 924 286 924 286 933.5 294 c 128,-1,51
 943 302 943 302 946 324 c 2,52,-1
 948 348 l 1,53,-1
 1255 348 l 1,54,-1
 1255 322 l 2,55,56
 1253 274 1253 274 1239.5 230 c 128,-1,57
 1226 186 1226 186 1198 147 c 0,58,59
 1173 113 1173 113 1146 89.5 c 128,-1,60
 1119 66 1119 66 1096 49 c 0,61,62
 1067 27 1067 27 1037 12 c 128,-1,63
 1007 -3 1007 -3 979 -12.5 c 128,-1,64
 951 -22 951 -22 925.5 -27 c 128,-1,65
 900 -32 900 -32 879 -35 c 0,66,67
 840 -41 840 -41 788.5 -42 c 128,-1,68
 737 -43 737 -43 690 -43 c 1,69,-1
 690 -43 l 1,0,1
727 1047 m 1,70,71
 690 1047 690 1047 659 1038 c 128,-1,72
 628 1029 628 1029 601 1013 c 128,-1,73
 574 997 574 997 550.5 976.5 c 128,-1,74
 527 956 527 956 506 932 c 0,75,76
 471 895 471 895 448.5 839 c 128,-1,77
 426 783 426 783 420 717 c 1,78,-1
 883 739 l 2,79,80
 896 740 896 740 911 742 c 128,-1,81
 926 744 926 744 939.5 749 c 128,-1,82
 953 754 953 754 964.5 761.5 c 128,-1,83
 976 769 976 769 983 780 c 0,84,85
 1008 826 1008 826 969 909 c 0,86,87
 950 949 950 949 921.5 975.5 c 128,-1,88
 893 1002 893 1002 860 1018 c 128,-1,89
 827 1034 827 1034 792.5 1040.5 c 128,-1,90
 758 1047 758 1047 727 1047 c 1,91,-1
 727 1047 l 1,70,71
EndSplineSet
EndChar

StartChar: f
Encoding: 102 102 5
Width: 1020
Flags: W
LayerCount: 2
Fore
SplineSet
496 0 m 1,0,-1
 270 0 l 1,1,-1
 293 975 l 1,2,-1
 49 975 l 1,3,-1
 49 1214 l 1,4,-1
 299 1214 l 1,5,-1
 307 1567 l 2,6,7
 309 1655 309 1655 317 1710.5 c 128,-1,8
 325 1766 325 1766 342 1798 c 0,9,10
 351 1813 351 1813 362 1828 c 128,-1,11
 373 1843 373 1843 390 1857 c 128,-1,12
 407 1871 407 1871 430.5 1883 c 128,-1,13
 454 1895 454 1895 487 1903 c 0,14,15
 502 1907 502 1907 522.5 1909 c 128,-1,16
 543 1911 543 1911 565.5 1912 c 128,-1,17
 588 1913 588 1913 609.5 1913 c 128,-1,18
 631 1913 631 1913 647 1913 c 2,19,-1
 666 1913 l 2,20,21
 704 1913 704 1913 746 1909 c 128,-1,22
 788 1905 788 1905 838 1880 c 0,23,24
 862 1869 862 1869 877.5 1855.5 c 128,-1,25
 893 1842 893 1842 905 1825 c 2,26,-1
 913 1812 l 1,27,-1
 860 1624 l 1,28,-1
 801 1624 l 1,29,30
 796 1643 796 1643 790 1654.5 c 128,-1,31
 784 1666 784 1666 776 1673 c 128,-1,32
 768 1680 768 1680 758 1683.5 c 128,-1,33
 748 1687 748 1687 735 1690 c 2,34,-1
 731 1690 l 2,35,36
 729 1692 729 1692 719 1692 c 128,-1,37
 709 1692 709 1692 686 1692 c 2,38,-1
 643 1692 l 2,39,40
 631 1691 631 1691 617 1684 c 128,-1,41
 603 1677 603 1677 591.5 1666 c 128,-1,42
 580 1655 580 1655 572.5 1641 c 128,-1,43
 565 1627 565 1627 565 1612 c 2,44,-1
 565 1513 l 1,45,-1
 565 1214 l 1,46,-1
 858 1214 l 1,47,-1
 858 975 l 1,48,-1
 569 975 l 1,49,-1
 586 266 l 1,50,-1
 496 0 l 1,51,-1
 496 0 l 1,0,-1
EndSplineSet
EndChar

StartChar: g
Encoding: 103 103 6
Width: 1389
Flags: W
LayerCount: 2
Fore
SplineSet
627 -686 m 1,0,-1
 627 -686 l 1,1,-1
 625 -686 l 2,2,3
 553 -686 553 -686 505.5 -682 c 128,-1,4
 458 -678 458 -678 423 -668.5 c 128,-1,5
 388 -659 388 -659 359 -643 c 128,-1,6
 330 -627 330 -627 295 -602 c 0,7,8
 263 -579 263 -579 238 -547 c 128,-1,9
 213 -515 213 -515 195 -477 c 0,10,11
 151 -388 151 -388 139 -252 c 1,12,-1
 137 -209 l 1,13,-1
 446 -301 l 1,14,-1
 451 -317 l 2,15,16
 456 -336 456 -336 460 -346.5 c 128,-1,17
 464 -357 464 -357 467.5 -363 c 128,-1,18
 471 -369 471 -369 475.5 -372 c 128,-1,19
 480 -375 480 -375 487 -379 c 0,20,21
 507 -391 507 -391 544 -396 c 128,-1,22
 581 -401 581 -401 643 -401 c 0,23,24
 682 -401 682 -401 721 -398 c 128,-1,25
 760 -395 760 -395 793.5 -383 c 128,-1,26
 827 -371 827 -371 854.5 -348 c 128,-1,27
 882 -325 882 -325 899 -285 c 0,28,29
 903 -276 903 -276 907.5 -255.5 c 128,-1,30
 912 -235 912 -235 915.5 -197.5 c 128,-1,31
 919 -160 919 -160 921.5 -101.5 c 128,-1,32
 924 -43 924 -43 924 43 c 1,33,34
 916 35 916 35 907 26.5 c 128,-1,35
 898 18 898 18 887 10 c 0,36,37
 840 -27 840 -27 780.5 -44 c 128,-1,38
 721 -61 721 -61 647 -61 c 0,39,40
 547 -61 547 -61 455.5 -23.5 c 128,-1,41
 364 14 364 14 287 88 c 0,42,43
 125 242 125 242 125 555 c 0,44,45
 125 639 125 639 131.5 708.5 c 128,-1,46
 138 778 138 778 152 838 c 0,47,48
 169 909 169 909 194 963.5 c 128,-1,49
 219 1018 219 1018 256 1061 c 0,50,51
 294 1106 294 1106 337 1140.5 c 128,-1,52
 380 1175 380 1175 426 1200 c 0,53,54
 529 1256 529 1256 635 1253 c 0,55,56
 688 1252 688 1252 725 1248 c 128,-1,57
 762 1244 762 1244 790 1237.5 c 128,-1,58
 818 1231 818 1231 839.5 1221.5 c 128,-1,59
 861 1212 861 1212 883 1200 c 0,60,61
 900 1189 900 1189 923.5 1168 c 128,-1,62
 947 1147 947 1147 967 1122 c 1,63,-1
 1001 1214 l 1,64,-1
 1272 1214 l 1,65,-1
 1257 1176 l 2,66,67
 1257 1175 1257 1175 1248.5 1150 c 128,-1,68
 1240 1125 1240 1125 1230.5 1087.5 c 128,-1,69
 1221 1050 1221 1050 1212.5 1007 c 128,-1,70
 1204 964 1204 964 1204 926 c 0,71,72
 1204 915 1204 915 1203.5 874.5 c 128,-1,73
 1203 834 1203 834 1202.5 775 c 128,-1,74
 1202 716 1202 716 1201.5 644.5 c 128,-1,75
 1201 573 1201 573 1200.5 500 c 128,-1,76
 1200 427 1200 427 1199.5 358 c 128,-1,77
 1199 289 1199 289 1198.5 234.5 c 128,-1,78
 1198 180 1198 180 1198 146 c 128,-1,79
 1198 112 1198 112 1198 109 c 0,80,81
 1198 -3 1198 -3 1194 -85.5 c 128,-1,82
 1190 -168 1190 -168 1182 -233 c 0,83,84
 1172 -308 1172 -308 1156.5 -362.5 c 128,-1,85
 1141 -417 1141 -417 1118 -461 c 0,86,87
 1050 -585 1050 -585 928 -637 c 0,88,89
 869 -662 869 -662 796.5 -674 c 128,-1,90
 724 -686 724 -686 627 -686 c 1,0,-1
684 1049 m 0,91,92
 588 1049 588 1049 527.5 1008 c 128,-1,93
 467 967 467 967 432 879 c 0,94,95
 427 865 427 865 421.5 836 c 128,-1,96
 416 807 416 807 412.5 769.5 c 128,-1,97
 409 732 409 732 408 688 c 128,-1,98
 407 644 407 644 410 600 c 0,99,100
 416 496 416 496 432.5 432.5 c 128,-1,101
 449 369 449 369 481 334 c 0,102,103
 510 299 510 299 550 283.5 c 128,-1,104
 590 268 590 268 655 268 c 2,105,-1
 664 268 l 2,106,107
 724 269 724 269 762 276.5 c 128,-1,108
 800 284 800 284 824.5 297 c 128,-1,109
 849 310 849 310 865 328.5 c 128,-1,110
 881 347 881 347 897 369 c 0,111,112
 908 384 908 384 917 402.5 c 128,-1,113
 926 421 926 421 932.5 448 c 128,-1,114
 939 475 939 475 943 512 c 128,-1,115
 947 549 947 549 948 600 c 0,116,117
 957 857 957 857 889 934 c 0,118,119
 792 1049 792 1049 684 1049 c 0,91,92
EndSplineSet
EndChar

StartChar: h
Encoding: 104 104 7
Width: 1384
Flags: W
LayerCount: 2
Fore
SplineSet
1253 0 m 1,0,-1
 932 0 l 1,1,-1
 950 735 l 1,2,-1
 950 774 l 2,3,4
 950 802 950 802 950 830.5 c 128,-1,5
 950 859 950 859 948 885.5 c 128,-1,6
 946 912 946 912 941.5 934 c 128,-1,7
 937 956 937 956 928 971 c 0,8,9
 906 1009 906 1009 861.5 1026.5 c 128,-1,10
 817 1044 817 1044 754 1044 c 256,11,12
 691 1044 691 1044 641 1027.5 c 128,-1,13
 591 1011 591 1011 551 969 c 0,14,15
 531 947 531 947 520.5 911 c 128,-1,16
 510 875 510 875 505 830 c 128,-1,17
 500 785 500 785 499 733 c 128,-1,18
 498 681 498 681 498 627 c 2,19,-1
 494 0 l 1,20,-1
 174 0 l 1,21,-1
 207 1010 l 1,22,-1
 246 1913 l 1,23,-1
 512 1913 l 1,24,-1
 492 1182 l 1,25,26
 504 1190 504 1190 518 1197.5 c 128,-1,27
 532 1205 532 1205 551 1214 c 0,28,29
 594 1233 594 1233 655 1243 c 128,-1,30
 716 1253 716 1253 795 1253 c 0,31,32
 864 1253 864 1253 923 1241.5 c 128,-1,33
 982 1230 982 1230 1028 1208 c 0,34,35
 1081 1185 1081 1185 1119 1148.5 c 128,-1,36
 1157 1112 1157 1112 1182 1063 c 0,37,38
 1197 1035 1197 1035 1207 994.5 c 128,-1,39
 1217 954 1217 954 1223.5 911 c 128,-1,40
 1230 868 1230 868 1233 825.5 c 128,-1,41
 1236 783 1236 783 1237 750 c 0,42,43
 1237 731 1237 731 1238 690 c 128,-1,44
 1239 649 1239 649 1240.5 595 c 128,-1,45
 1242 541 1242 541 1243 478.5 c 128,-1,46
 1244 416 1244 416 1245.5 353.5 c 128,-1,47
 1247 291 1247 291 1248.5 233 c 128,-1,48
 1250 175 1250 175 1251 130.5 c 128,-1,49
 1252 86 1252 86 1252.5 58.5 c 128,-1,50
 1253 31 1253 31 1253 29 c 2,51,-1
 1253 0 l 1,52,-1
 1253 0 l 1,0,-1
EndSplineSet
EndChar

StartChar: i
Encoding: 105 105 8
Width: 700
Flags: W
LayerCount: 2
Fore
SplineSet
350 1498 m 256,0,1
 312 1498 312 1498 278.5 1512 c 128,-1,2
 245 1526 245 1526 220 1551 c 128,-1,3
 195 1576 195 1576 180.5 1609 c 128,-1,4
 166 1642 166 1642 166 1680 c 256,5,6
 166 1718 166 1718 180.5 1751 c 128,-1,7
 195 1784 195 1784 220 1809.5 c 128,-1,8
 245 1835 245 1835 278.5 1849.5 c 128,-1,9
 312 1864 312 1864 350 1864 c 256,10,11
 388 1864 388 1864 421 1849.5 c 128,-1,12
 454 1835 454 1835 479 1809.5 c 128,-1,13
 504 1784 504 1784 518 1751 c 128,-1,14
 532 1718 532 1718 532 1680 c 256,15,16
 532 1642 532 1642 518 1609 c 128,-1,17
 504 1576 504 1576 479.5 1551 c 128,-1,18
 455 1526 455 1526 421.5 1512 c 128,-1,19
 388 1498 388 1498 350 1498 c 256,0,1
508 0 m 1,20,-1
 193 0 l 1,21,-1
 219 1214 l 1,22,-1
 481 1214 l 1,23,-1
 508 0 l 1,24,-1
 508 0 l 1,20,-1
EndSplineSet
EndChar

StartChar: j
Encoding: 106 106 9
Width: 897
Flags: W
LayerCount: 2
Fore
SplineSet
242 -686 m 1,0,1
 184 -686 184 -686 141.5 -672.5 c 128,-1,2
 99 -659 99 -659 71 -642.5 c 128,-1,3
 43 -626 43 -626 29 -612 c 128,-1,4
 15 -598 15 -598 14 -596 c 2,5,-1
 2 -582 l 1,6,-1
 111 -354 l 1,7,8
 124 -367 124 -367 138 -377 c 0,9,10
 150 -386 150 -386 165 -393 c 128,-1,11
 180 -400 180 -400 195 -399 c 0,12,13
 211 -399 211 -399 227 -396 c 128,-1,14
 243 -393 243 -393 256.5 -383.5 c 128,-1,15
 270 -374 270 -374 279.5 -356 c 128,-1,16
 289 -338 289 -338 293 -307 c 0,17,18
 297 -269 297 -269 300 -234.5 c 128,-1,19
 303 -200 303 -200 305.5 -163 c 128,-1,20
 308 -126 308 -126 310 -84 c 128,-1,21
 312 -42 312 -42 313 12 c 0,22,23
 314 39 314 39 317 102 c 128,-1,24
 320 165 320 165 325 250.5 c 128,-1,25
 330 336 330 336 336 436 c 128,-1,26
 342 536 342 536 348.5 637.5 c 128,-1,27
 355 739 355 739 361 834.5 c 128,-1,28
 367 930 367 930 372 1005.5 c 128,-1,29
 377 1081 377 1081 380 1129.5 c 128,-1,30
 383 1178 383 1178 383 1186 c 2,31,-1
 385 1214 l 1,32,-1
 651 1214 l 1,33,-1
 649 1184 l 2,34,35
 649 1182 649 1182 647 1137.5 c 128,-1,36
 645 1093 645 1093 642 1020.5 c 128,-1,37
 639 948 639 948 635 853.5 c 128,-1,38
 631 759 631 759 626.5 657.5 c 128,-1,39
 622 556 622 556 618 454.5 c 128,-1,40
 614 353 614 353 610.5 265 c 128,-1,41
 607 177 607 177 604 109.5 c 128,-1,42
 601 42 601 42 600 10 c 0,43,44
 599 -32 599 -32 597.5 -64.5 c 128,-1,45
 596 -97 596 -97 594.5 -124 c 128,-1,46
 593 -151 593 -151 591.5 -175 c 128,-1,47
 590 -199 590 -199 588 -223 c 0,48,49
 586 -248 586 -248 584 -275.5 c 128,-1,50
 582 -303 582 -303 580 -338 c 0,51,52
 576 -392 576 -392 569.5 -431.5 c 128,-1,53
 563 -471 563 -471 553 -502 c 128,-1,54
 543 -533 543 -533 528 -557 c 128,-1,55
 513 -581 513 -581 492 -604 c 0,56,57
 472 -624 472 -624 451 -640 c 128,-1,58
 430 -656 430 -656 399 -666 c 0,59,60
 371 -677 371 -677 333.5 -680.5 c 128,-1,61
 296 -684 296 -684 242 -684 c 1,62,-1
 242 -684 l 1,63,-1
 242 -686 l 1,0,1
496 1540 m 1,64,65
 457 1540 457 1540 423 1554.5 c 128,-1,66
 389 1569 389 1569 363.5 1594.5 c 128,-1,67
 338 1620 338 1620 323.5 1654 c 128,-1,68
 309 1688 309 1688 309 1726 c 0,69,70
 309 1765 309 1765 323.5 1799.5 c 128,-1,71
 338 1834 338 1834 363.5 1859 c 128,-1,72
 389 1884 389 1884 423 1898.5 c 128,-1,73
 457 1913 457 1913 496 1913 c 0,74,75
 534 1913 534 1913 568 1898.5 c 128,-1,76
 602 1884 602 1884 627.5 1859 c 128,-1,77
 653 1834 653 1834 667.5 1799.5 c 128,-1,78
 682 1765 682 1765 682 1726 c 0,79,80
 682 1688 682 1688 667.5 1654 c 128,-1,81
 653 1620 653 1620 627.5 1594.5 c 128,-1,82
 602 1569 602 1569 568 1554.5 c 128,-1,83
 534 1540 534 1540 496 1540 c 1,84,-1
 496 1540 l 1,64,65
EndSplineSet
EndChar

StartChar: k
Encoding: 107 107 10
Width: 1303
Flags: W
LayerCount: 2
Fore
SplineSet
1165 0 m 1,0,-1
 864 0 l 1,1,-1
 432 502 l 1,2,-1
 442 0 l 1,3,-1
 123 0 l 1,4,-1
 123 29 l 2,5,6
 123 31 123 31 124 82 c 128,-1,7
 125 133 125 133 127 213.5 c 128,-1,8
 129 294 129 294 131.5 394.5 c 128,-1,9
 134 495 134 495 136 595.5 c 128,-1,10
 138 696 138 696 140 787 c 128,-1,11
 142 878 142 878 143 940 c 2,12,-1
 143 971 l 2,13,14
 143 1013 143 1013 144.5 1073 c 128,-1,15
 146 1133 146 1133 150 1204 c 0,16,17
 153 1275 153 1275 156 1353 c 128,-1,18
 159 1431 159 1431 162 1506.5 c 128,-1,19
 165 1582 165 1582 168 1650 c 128,-1,20
 171 1718 171 1718 173 1770 c 128,-1,21
 175 1822 175 1822 176.5 1852.5 c 128,-1,22
 178 1883 178 1883 178 1884 c 2,23,-1
 178 1913 l 1,24,-1
 446 1913 l 1,25,-1
 444 1882 l 2,26,27
 444 1881 444 1881 442 1846 c 128,-1,28
 440 1811 440 1811 437 1755 c 128,-1,29
 434 1699 434 1699 430 1627 c 128,-1,30
 426 1555 426 1555 423 1479.5 c 128,-1,31
 420 1404 420 1404 418 1331.5 c 128,-1,32
 416 1259 416 1259 416 1202 c 0,33,34
 416 1171 416 1171 416.5 1134 c 128,-1,35
 417 1097 417 1097 418 1060.5 c 128,-1,36
 419 1024 419 1024 420 990 c 128,-1,37
 421 956 421 956 422 930 c 1,38,-1
 768 1214 l 1,39,-1
 1143 1214 l 1,40,-1
 569 737 l 1,41,-1
 1167 127 l 1,42,-1
 1165 0 l 1,43,-1
 1165 0 l 1,0,-1
EndSplineSet
EndChar

StartChar: l
Encoding: 108 108 11
Width: 854
Flags: W
LayerCount: 2
Fore
SplineSet
289 0 m 1,0,1
 254 0 254 0 222 14.5 c 128,-1,2
 190 29 190 29 168 55 c 0,3,4
 151 77 151 77 141 101 c 128,-1,5
 131 125 131 125 129 160 c 2,6,-1
 129 242 l 1,7,-1
 129 242 l 1,8,9
 131 244 131 244 131 275.5 c 128,-1,10
 131 307 131 307 133 356 c 0,11,12
 134 409 134 409 135.5 479 c 128,-1,13
 137 549 137 549 138.5 627 c 128,-1,14
 140 705 140 705 142 786.5 c 128,-1,15
 144 868 144 868 146 944.5 c 128,-1,16
 148 1021 148 1021 150 1087.5 c 128,-1,17
 152 1154 152 1154 154 1202 c 0,18,19
 156 1264 156 1264 157 1338 c 128,-1,20
 158 1412 158 1412 159 1487.5 c 128,-1,21
 160 1563 160 1563 161 1634 c 128,-1,22
 162 1705 162 1705 162.5 1760 c 128,-1,23
 163 1815 163 1815 163.5 1849 c 128,-1,24
 164 1883 164 1883 164 1884 c 2,25,-1
 164 1913 l 1,26,-1
 430 1913 l 1,27,-1
 430 1884 l 2,28,29
 430 1883 430 1883 430.5 1849.5 c 128,-1,30
 431 1816 431 1816 431 1760.5 c 128,-1,31
 431 1705 431 1705 431.5 1634.5 c 128,-1,32
 432 1564 432 1564 431 1488.5 c 128,-1,33
 430 1413 430 1413 428.5 1338.5 c 128,-1,34
 427 1264 427 1264 424 1202 c 0,35,36
 422 1155 422 1155 421 1091.5 c 128,-1,37
 420 1028 420 1028 419 956 c 128,-1,38
 418 884 418 884 418 808 c 128,-1,39
 418 732 418 732 418 660 c 0,40,41
 418 491 418 491 420 307 c 0,42,43
 420 292 420 292 420.5 284.5 c 128,-1,44
 421 277 421 277 424 272 c 0,45,46
 429 264 429 264 451 264 c 2,47,-1
 578 264 l 1,48,-1
 684 0 l 1,49,-1
 289 0 l 1,50,-1
 289 0 l 1,0,1
EndSplineSet
EndChar

StartChar: m
Encoding: 109 109 12
Width: 1962
Flags: W
LayerCount: 2
Fore
SplineSet
1812 0 m 1,0,-1
 1497 0 l 1,1,-1
 1513 836 l 2,2,3
 1511 879 1511 879 1499.5 916 c 128,-1,4
 1488 953 1488 953 1460 979 c 0,5,6
 1446 993 1446 993 1432.5 1005.5 c 128,-1,7
 1419 1018 1419 1018 1403 1027 c 128,-1,8
 1387 1036 1387 1036 1367 1041.5 c 128,-1,9
 1347 1047 1347 1047 1321 1047 c 2,10,-1
 1319 1047 l 2,11,12
 1284 1047 1284 1047 1257 1037 c 128,-1,13
 1230 1027 1230 1027 1211.5 1014 c 128,-1,14
 1193 1001 1193 1001 1181.5 988 c 128,-1,15
 1170 975 1170 975 1165 969 c 0,16,17
 1136 935 1136 935 1128 903.5 c 128,-1,18
 1120 872 1120 872 1120 838 c 2,19,-1
 1137 0 l 1,20,-1
 821 0 l 1,21,-1
 838 838 l 2,22,23
 841 903 841 903 803 956 c 0,24,25
 793 971 793 971 780 987.5 c 128,-1,26
 767 1004 767 1004 748.5 1017 c 128,-1,27
 730 1030 730 1030 704 1038.5 c 128,-1,28
 678 1047 678 1047 641 1047 c 0,29,30
 610 1047 610 1047 586.5 1040.5 c 128,-1,31
 563 1034 563 1034 545 1022.5 c 128,-1,32
 527 1011 527 1011 511.5 994.5 c 128,-1,33
 496 978 496 978 481 958 c 0,34,35
 463 934 463 934 454.5 903.5 c 128,-1,36
 446 873 446 873 444 838 c 0,37,38
 444 818 444 818 444 797 c 128,-1,39
 444 776 444 776 446 752 c 2,40,-1
 446 645 l 2,41,42
 446 631 446 631 446.5 597 c 128,-1,43
 447 563 447 563 448 517.5 c 128,-1,44
 449 472 449 472 450.5 418.5 c 128,-1,45
 452 365 452 365 453.5 311.5 c 128,-1,46
 455 258 455 258 456.5 208 c 128,-1,47
 458 158 458 158 459 119 c 128,-1,48
 460 80 460 80 460.5 56 c 128,-1,49
 461 32 461 32 461 31 c 2,50,-1
 461 0 l 1,51,-1
 147 0 l 1,52,-1
 170 1214 l 1,53,-1
 428 1214 l 1,54,-1
 428 1169 l 1,55,56
 442 1180 442 1180 457 1189.5 c 128,-1,57
 472 1199 472 1199 487 1208 c 1,58,-1
 489 1208 l 1,59,60
 500 1214 500 1214 515.5 1222 c 128,-1,61
 531 1230 531 1230 555 1237 c 128,-1,62
 579 1244 579 1244 612.5 1248.5 c 128,-1,63
 646 1253 646 1253 692 1253 c 0,64,65
 755 1253 755 1253 809 1237.5 c 128,-1,66
 863 1222 863 1222 909 1190 c 0,67,68
 931 1174 931 1174 950.5 1157 c 128,-1,69
 970 1140 970 1140 985 1118 c 1,70,71
 1010 1146 1010 1146 1037 1167 c 128,-1,72
 1064 1188 1064 1188 1102 1208 c 0,73,74
 1132 1223 1132 1223 1168.5 1232 c 128,-1,75
 1205 1241 1205 1241 1240 1245.5 c 128,-1,76
 1275 1250 1275 1250 1304 1251.5 c 128,-1,77
 1333 1253 1333 1253 1348 1253 c 2,78,-1
 1352 1253 l 2,79,80
 1461 1253 1461 1253 1552 1210.5 c 128,-1,81
 1643 1168 1643 1168 1706 1090 c 0,82,83
 1754 1028 1754 1028 1776 954.5 c 128,-1,84
 1798 881 1798 881 1798 788 c 2,85,-1
 1812 0 l 1,86,-1
 1812 0 l 1,0,-1
EndSplineSet
EndChar

StartChar: n
Encoding: 110 110 13
Width: 1413
Flags: W
LayerCount: 2
Fore
SplineSet
1249 0 m 1,0,-1
 934 0 l 1,1,-1
 936 31 l 1,2,3
 941 172 941 172 944 276.5 c 128,-1,4
 947 381 947 381 949 457 c 128,-1,5
 951 533 951 533 951.5 584 c 128,-1,6
 952 635 952 635 952.5 667.5 c 128,-1,7
 953 700 953 700 952.5 717.5 c 128,-1,8
 952 735 952 735 952 745 c 2,9,-1
 952 760 l 2,10,11
 952 826 952 826 949.5 864.5 c 128,-1,12
 947 903 947 903 938 926 c 0,13,14
 929 947 929 947 916.5 968.5 c 128,-1,15
 904 990 904 990 885.5 1007.5 c 128,-1,16
 867 1025 867 1025 839 1036 c 128,-1,17
 811 1047 811 1047 770 1047 c 0,18,19
 756 1047 756 1047 740 1042 c 128,-1,20
 724 1037 724 1037 708 1030 c 128,-1,21
 692 1023 692 1023 678 1014.5 c 128,-1,22
 664 1006 664 1006 655 999 c 0,23,24
 638 988 638 988 623.5 976.5 c 128,-1,25
 609 965 609 965 594 951 c 128,-1,26
 579 937 579 937 563.5 920 c 128,-1,27
 548 903 548 903 528 881 c 0,28,29
 507 856 507 856 496.5 831.5 c 128,-1,30
 486 807 486 807 475 772 c 0,31,32
 471 757 471 757 468 741 c 128,-1,33
 465 725 465 725 463.5 707 c 128,-1,34
 462 689 462 689 462 667.5 c 128,-1,35
 462 646 462 646 463 618 c 0,36,37
 463 604 463 604 463.5 572 c 128,-1,38
 464 540 464 540 465 496.5 c 128,-1,39
 466 453 466 453 467.5 402 c 128,-1,40
 469 351 469 351 470 299.5 c 128,-1,41
 471 248 471 248 472.5 200 c 128,-1,42
 474 152 474 152 475 115 c 128,-1,43
 476 78 476 78 476.5 55 c 128,-1,44
 477 32 477 32 477 31 c 2,45,-1
 479 0 l 1,46,-1
 162 0 l 1,47,-1
 164 31 l 2,48,49
 164 33 164 33 166 67 c 128,-1,50
 168 101 168 101 171 157 c 128,-1,51
 174 213 174 213 177.5 285.5 c 128,-1,52
 181 358 181 358 185 436.5 c 128,-1,53
 189 515 189 515 192.5 593 c 128,-1,54
 196 671 196 671 198.5 738.5 c 128,-1,55
 201 806 201 806 202.5 857.5 c 128,-1,56
 204 909 204 909 203 934 c 0,57,58
 202 966 202 966 199 1008.5 c 128,-1,59
 196 1051 196 1051 192.5 1090 c 128,-1,60
 189 1129 189 1129 186.5 1156 c 128,-1,61
 184 1183 184 1183 184 1184 c 2,62,-1
 180 1214 l 1,63,-1
 444 1214 l 1,64,-1
 453 1083 l 1,65,66
 467 1101 467 1101 482.5 1119 c 128,-1,67
 498 1137 498 1137 515 1153 c 128,-1,68
 532 1169 532 1169 550 1182.5 c 128,-1,69
 568 1196 568 1196 586 1204 c 0,70,71
 635 1229 635 1229 691 1241 c 128,-1,72
 747 1253 747 1253 807 1253 c 0,73,74
 937 1253 937 1253 1028 1203.5 c 128,-1,75
 1119 1154 1119 1154 1167 1057 c 0,76,77
 1192 1009 1192 1009 1204.5 940.5 c 128,-1,78
 1217 872 1217 872 1219 770 c 0,79,80
 1219 747 1219 747 1220.5 703.5 c 128,-1,81
 1222 660 1222 660 1224.5 604 c 128,-1,82
 1227 548 1227 548 1229.5 484.5 c 128,-1,83
 1232 421 1232 421 1234.5 357.5 c 128,-1,84
 1237 294 1237 294 1240 235.5 c 128,-1,85
 1243 177 1243 177 1245 132 c 128,-1,86
 1247 87 1247 87 1248 59.5 c 128,-1,87
 1249 32 1249 32 1249 31 c 2,88,-1
 1249 0 l 1,89,-1
 1249 0 l 1,0,-1
EndSplineSet
EndChar

StartChar: o
Encoding: 111 111 14
Width: 1470
Flags: W
LayerCount: 2
Fore
SplineSet
705 -43 m 2,0,1
 578 -43 578 -43 477.5 -0.5 c 128,-1,2
 377 42 377 42 303 129 c 0,3,4
 265 174 265 174 234.5 224 c 128,-1,5
 204 274 204 274 182 328 c 0,6,7
 137 448 137 448 137 584 c 0,8,9
 137 656 137 656 149 724.5 c 128,-1,10
 161 793 161 793 184 856 c 0,11,12
 207 915 207 915 238 968 c 128,-1,13
 269 1021 269 1021 311 1069 c 0,14,15
 465 1250 465 1250 725 1253 c 2,16,-1
 737 1253 l 2,17,18
 865 1251 865 1251 968.5 1205.5 c 128,-1,19
 1072 1160 1072 1160 1149 1069 c 0,20,21
 1189 1021 1189 1021 1220.5 968 c 128,-1,22
 1252 915 1252 915 1274 856 c 0,23,24
 1299 793 1299 793 1311 724.5 c 128,-1,25
 1323 656 1323 656 1323 584 c 0,26,27
 1323 449 1323 449 1276 328 c 0,28,29
 1256 274 1256 274 1225.5 224 c 128,-1,30
 1195 174 1195 174 1157 129 c 0,31,32
 1007 -43 1007 -43 756 -43 c 2,33,-1
 705 -43 l 2,0,1
727 1044 m 2,34,35
 653 1044 653 1044 598.5 1013.5 c 128,-1,36
 544 983 544 983 498 918 c 0,37,38
 452 852 452 852 434 784.5 c 128,-1,39
 416 717 416 717 416 633 c 0,40,41
 416 588 416 588 420 550.5 c 128,-1,42
 424 513 424 513 432 480.5 c 128,-1,43
 440 448 440 448 453.5 418.5 c 128,-1,44
 467 389 467 389 485 360 c 0,45,46
 517 311 517 311 574 287.5 c 128,-1,47
 631 264 631 264 719 264 c 2,48,-1
 731 264 l 2,49,50
 821 264 821 264 877 287.5 c 128,-1,51
 933 311 933 311 965 360 c 0,52,53
 983 388 983 388 997.5 416 c 128,-1,54
 1012 444 1012 444 1022 475.5 c 128,-1,55
 1032 507 1032 507 1037 544.5 c 128,-1,56
 1042 582 1042 582 1042 629 c 0,57,58
 1042 727 1042 727 1021.5 794.5 c 128,-1,59
 1001 862 1001 862 963 920 c 0,60,61
 919 983 919 983 864 1013.5 c 128,-1,62
 809 1044 809 1044 733 1044 c 2,63,-1
 727 1044 l 2,34,35
EndSplineSet
EndChar

StartChar: p
Encoding: 112 112 15
Width: 1386
Flags: W
LayerCount: 2
Fore
SplineSet
182 479 m 0,0,1
 182 569 182 569 182.5 656.5 c 128,-1,2
 183 744 183 744 184 822.5 c 128,-1,3
 185 901 185 901 186 967.5 c 128,-1,4
 187 1034 187 1034 188 1082.5 c 128,-1,5
 189 1131 189 1131 189.5 1159 c 128,-1,6
 190 1187 190 1187 190 1188 c 2,7,-1
 190 1214 l 1,8,-1
 453 1214 l 1,9,-1
 453 1130 l 1,10,11
 473 1150 473 1150 495 1168 c 128,-1,12
 517 1186 517 1186 539 1198 c 0,13,14
 563 1213 563 1213 592 1223 c 128,-1,15
 621 1233 621 1233 651 1240 c 128,-1,16
 681 1247 681 1247 709.5 1250 c 128,-1,17
 738 1253 738 1253 762 1253 c 0,18,19
 814 1253 814 1253 860.5 1239 c 128,-1,20
 907 1225 907 1225 950 1194 c 0,21,22
 1018 1145 1018 1145 1085 1047 c 0,23,24
 1111 1009 1111 1009 1140.5 951 c 128,-1,25
 1170 893 1170 893 1196 827 c 0,26,27
 1203 811 1203 811 1212.5 785 c 128,-1,28
 1222 759 1222 759 1231 730 c 128,-1,29
 1240 701 1240 701 1246.5 673 c 128,-1,30
 1253 645 1253 645 1253 625 c 0,31,32
 1253 603 1253 603 1250 565.5 c 128,-1,33
 1247 528 1247 528 1235.5 478 c 128,-1,34
 1224 428 1224 428 1201.5 368.5 c 128,-1,35
 1179 309 1179 309 1141 244 c 0,36,37
 1096 166 1096 166 1051 111.5 c 128,-1,38
 1006 57 1006 57 956 23 c 128,-1,39
 906 -11 906 -11 848 -26.5 c 128,-1,40
 790 -42 790 -42 719 -43 c 2,41,-1
 707 -43 l 2,42,43
 647 -43 647 -43 599 -33.5 c 128,-1,44
 551 -24 551 -24 502 4 c 0,45,46
 486 12 486 12 474 21 c 128,-1,47
 462 30 462 30 451 39 c 1,48,-1
 451 -686 l 1,49,-1
 133 -686 l 1,50,51
 147 -456 147 -456 158 -239 c 0,52,53
 163 -147 163 -147 167 -48.5 c 128,-1,54
 171 50 171 50 174.5 144.5 c 128,-1,55
 178 239 178 239 180 325 c 128,-1,56
 182 411 182 411 182 479 c 0,0,1
455 410 m 2,57,58
 457 392 457 392 462.5 380 c 128,-1,59
 468 368 468 368 477.5 358 c 128,-1,60
 487 348 487 348 502 338 c 128,-1,61
 517 328 517 328 539 315 c 0,62,63
 576 294 576 294 612 281 c 128,-1,64
 648 268 648 268 696 268 c 0,65,66
 738 268 738 268 769 280.5 c 128,-1,67
 800 293 800 293 824.5 314.5 c 128,-1,68
 849 336 849 336 869 364.5 c 128,-1,69
 889 393 889 393 907 424 c 0,70,71
 948 492 948 492 970.5 545.5 c 128,-1,72
 993 599 993 599 993 625 c 0,73,74
 993 641 993 641 985 673 c 128,-1,75
 977 705 977 705 965.5 740.5 c 128,-1,76
 954 776 954 776 941 809 c 128,-1,77
 928 842 928 842 918 860 c 0,78,79
 892 907 892 907 870 942 c 128,-1,80
 848 977 848 977 826.5 1000.5 c 128,-1,81
 805 1024 805 1024 783 1035.5 c 128,-1,82
 761 1047 761 1047 735 1047 c 0,83,84
 690 1047 690 1047 644.5 1025 c 128,-1,85
 599 1003 599 1003 553 965 c 0,86,87
 536 951 536 951 518.5 933 c 128,-1,88
 501 915 501 915 487 894 c 128,-1,89
 473 873 473 873 463.5 850.5 c 128,-1,90
 454 828 454 828 453 805 c 2,91,-1
 455 410 l 2,57,58
EndSplineSet
EndChar

StartChar: q
Encoding: 113 113 16
Width: 1425
Flags: W
LayerCount: 2
Fore
SplineSet
641 -43 m 1,0,1
 525 -43 525 -43 435 -3.5 c 128,-1,2
 345 36 345 36 272 121 c 0,3,4
 206 198 206 198 169.5 318 c 128,-1,5
 133 438 133 438 133 584 c 0,6,7
 133 660 133 660 143 731 c 128,-1,8
 153 802 153 802 171.5 865 c 128,-1,9
 190 928 190 928 217.5 981.5 c 128,-1,10
 245 1035 245 1035 281 1075 c 0,11,12
 318 1120 318 1120 359.5 1153.5 c 128,-1,13
 401 1187 401 1187 449 1208 c 0,14,15
 497 1231 497 1231 551 1242 c 128,-1,16
 605 1253 605 1253 668 1253 c 0,17,18
 723 1253 723 1253 771.5 1242.5 c 128,-1,19
 820 1232 820 1232 866 1212 c 0,20,21
 951 1174 951 1174 1028 1094 c 0,22,23
 1062 1060 1062 1060 1090.5 1009.5 c 128,-1,24
 1119 959 1119 959 1141 897 c 0,25,26
 1162 835 1162 835 1174 767.5 c 128,-1,27
 1186 700 1186 700 1188 631 c 0,28,29
 1191 541 1191 541 1179.5 454 c 128,-1,30
 1168 367 1168 367 1143 299 c 1,31,-1
 1288 150 l 1,32,-1
 1288 0 l 1,33,-1
 1044 0 l 1,34,-1
 987 80 l 1,35,36
 959 54 959 54 928 31.5 c 128,-1,37
 897 9 897 9 856.5 -7.5 c 128,-1,38
 816 -24 816 -24 764 -33.5 c 128,-1,39
 712 -43 712 -43 643 -43 c 2,40,-1
 641 -43 l 1,41,-1
 641 -43 l 1,0,1
664 1044 m 1,42,43
 589 1044 589 1044 537.5 1014 c 128,-1,44
 486 984 486 984 451 924 c 0,45,46
 432 893 432 893 417.5 852 c 128,-1,47
 403 811 403 811 393.5 766.5 c 128,-1,48
 384 722 384 722 379 676 c 128,-1,49
 374 630 374 630 375 588 c 0,50,51
 375 557 375 557 378 530.5 c 128,-1,52
 381 504 381 504 387.5 479 c 128,-1,53
 394 454 394 454 405 428.5 c 128,-1,54
 416 403 416 403 432 373 c 0,55,56
 437 364 437 364 452 346 c 128,-1,57
 467 328 467 328 494 310 c 128,-1,58
 521 292 521 292 562.5 279 c 128,-1,59
 604 266 604 266 662 266 c 0,60,61
 714 266 714 266 748 272.5 c 128,-1,62
 782 279 782 279 801 287 c 1,63,-1
 557 549 l 1,64,-1
 721 719 l 1,65,-1
 942 487 l 1,66,67
 948 521 948 521 948 558.5 c 128,-1,68
 948 596 948 596 948 625 c 0,69,70
 947 660 947 660 942 698.5 c 128,-1,71
 937 737 937 737 928.5 774 c 128,-1,72
 920 811 920 811 908.5 844 c 128,-1,73
 897 877 897 877 885 901 c 0,74,75
 847 976 847 976 794.5 1010 c 128,-1,76
 742 1044 742 1044 664 1044 c 1,77,-1
 664 1044 l 1,42,43
EndSplineSet
EndChar

StartChar: r
Encoding: 114 114 17
Width: 1026
Flags: W
LayerCount: 2
Fore
SplineSet
479 0 m 1,0,-1
 164 0 l 1,1,-1
 164 31 l 2,2,3
 164 33 164 33 165.5 70 c 128,-1,4
 167 107 167 107 169.5 167.5 c 128,-1,5
 172 228 172 228 175 305.5 c 128,-1,6
 178 383 178 383 181.5 465 c 128,-1,7
 185 547 185 547 188 627 c 128,-1,8
 191 707 191 707 193.5 772.5 c 128,-1,9
 196 838 196 838 197.5 882.5 c 128,-1,10
 199 927 199 927 199 938 c 0,11,12
 199 973 199 973 188 1013.5 c 128,-1,13
 177 1054 177 1054 164 1089 c 128,-1,14
 151 1124 151 1124 140 1147 c 128,-1,15
 129 1170 129 1170 129 1171 c 2,16,-1
 109 1214 l 1,17,-1
 375 1214 l 1,18,-1
 426 1126 l 1,19,20
 435 1140 435 1140 448.5 1154.5 c 128,-1,21
 462 1169 462 1169 485 1186 c 0,22,23
 517 1208 517 1208 549.5 1221.5 c 128,-1,24
 582 1235 582 1235 613 1242 c 128,-1,25
 644 1249 644 1249 673 1251 c 128,-1,26
 702 1253 702 1253 727 1253 c 0,27,28
 733 1253 733 1253 759 1252 c 128,-1,29
 785 1251 785 1251 819 1246.5 c 128,-1,30
 853 1242 853 1242 887.5 1233 c 128,-1,31
 922 1224 922 1224 946 1208 c 2,32,-1
 967 1196 l 1,33,-1
 874 961 l 1,34,-1
 844 989 l 2,35,36
 831 1002 831 1002 817 1012.5 c 128,-1,37
 803 1023 803 1023 786 1030 c 128,-1,38
 769 1037 769 1037 747 1040.5 c 128,-1,39
 725 1044 725 1044 696 1044 c 0,40,41
 633 1044 633 1044 592.5 1011.5 c 128,-1,42
 552 979 552 979 518 924 c 0,43,44
 495 885 495 885 483.5 847.5 c 128,-1,45
 472 810 472 810 467.5 772.5 c 128,-1,46
 463 735 463 735 463.5 698 c 128,-1,47
 464 661 464 661 465 623 c 2,48,-1
 465 586 l 2,49,50
 465 558 465 558 466 506 c 128,-1,51
 467 454 467 454 468 392.5 c 128,-1,52
 469 331 469 331 471 267.5 c 128,-1,53
 473 204 473 204 474 151.5 c 128,-1,54
 475 99 475 99 476 65.5 c 128,-1,55
 477 32 477 32 477 31 c 2,56,-1
 479 0 l 1,57,-1
 479 0 l 1,0,-1
EndSplineSet
EndChar

StartChar: s
Encoding: 115 115 18
Width: 1290
Flags: W
LayerCount: 2
Fore
SplineSet
627 -43 m 1,0,1
 496 -43 496 -43 399 -9 c 128,-1,2
 302 25 302 25 242 94 c 0,3,4
 216 125 216 125 198 151.5 c 128,-1,5
 180 178 180 178 168 206.5 c 128,-1,6
 156 235 156 235 148.5 269.5 c 128,-1,7
 141 304 141 304 135 350 c 1,8,-1
 440 350 l 1,9,10
 440 324 440 324 444.5 312.5 c 128,-1,11
 449 301 449 301 459 293 c 0,12,13
 465 289 465 289 475.5 285 c 128,-1,14
 486 281 486 281 505.5 277 c 128,-1,15
 525 273 525 273 555.5 270.5 c 128,-1,16
 586 268 586 268 631 268 c 0,17,18
 667 268 667 268 692 269.5 c 128,-1,19
 717 271 717 271 736 275.5 c 128,-1,20
 755 280 755 280 770.5 287.5 c 128,-1,21
 786 295 786 295 803 307 c 0,22,23
 818 318 818 318 828.5 327 c 128,-1,24
 839 336 839 336 845 346 c 128,-1,25
 851 356 851 356 853.5 368.5 c 128,-1,26
 856 381 856 381 856 399 c 0,27,28
 854 431 854 431 828.5 456.5 c 128,-1,29
 803 482 803 482 748 502 c 0,30,31
 738 506 738 506 719 511.5 c 128,-1,32
 700 517 700 517 677 524 c 128,-1,33
 654 531 654 531 629.5 538 c 128,-1,34
 605 545 605 545 584.5 551 c 128,-1,35
 564 557 564 557 550.5 561 c 128,-1,36
 537 565 537 565 535 565 c 0,37,38
 475 582 475 582 415.5 606.5 c 128,-1,39
 356 631 356 631 317 655 c 0,40,41
 283 677 283 677 258.5 701 c 128,-1,42
 234 725 234 725 218 753.5 c 128,-1,43
 202 782 202 782 193 815.5 c 128,-1,44
 184 849 184 849 182 891 c 0,45,46
 180 934 180 934 185 969.5 c 128,-1,47
 190 1005 190 1005 203.5 1036.5 c 128,-1,48
 217 1068 217 1068 240 1096.5 c 128,-1,49
 263 1125 263 1125 297 1153 c 0,50,51
 360 1207 360 1207 438 1230 c 128,-1,52
 516 1253 516 1253 625 1253 c 0,53,54
 760 1253 760 1253 849 1227 c 128,-1,55
 938 1201 938 1201 997 1141 c 0,56,57
 1041 1097 1041 1097 1064 1043.5 c 128,-1,58
 1087 990 1087 990 1087 934 c 2,59,-1
 1087 905 l 1,60,-1
 829 905 l 1,61,-1
 829 934 l 2,62,63
 827 949 827 949 821.5 963 c 128,-1,64
 816 977 816 977 801 995 c 1,65,-1
 801 995 l 1,66,67
 794 1003 794 1003 783 1012 c 128,-1,68
 772 1021 772 1021 753 1029 c 128,-1,69
 734 1037 734 1037 704 1042 c 128,-1,70
 674 1047 674 1047 629 1047 c 0,71,72
 572 1047 572 1047 539 1038 c 128,-1,73
 506 1029 506 1029 481 1012 c 0,74,75
 457 995 457 995 444.5 976.5 c 128,-1,76
 432 958 432 958 432 920 c 0,77,78
 432 894 432 894 444 877 c 128,-1,79
 456 860 456 860 492 836 c 0,80,81
 515 819 515 819 540.5 808.5 c 128,-1,82
 566 798 566 798 608 788 c 2,83,-1
 731 758 l 2,84,85
 792 743 792 743 839.5 729.5 c 128,-1,86
 887 716 887 716 924.5 702.5 c 128,-1,87
 962 689 962 689 990.5 674.5 c 128,-1,88
 1019 660 1019 660 1040 645 c 0,89,90
 1161 558 1161 558 1155 365 c 0,91,92
 1151 282 1151 282 1121 219 c 128,-1,93
 1091 156 1091 156 1028 96 c 0,94,95
 996 65 996 65 952.5 39.5 c 128,-1,96
 909 14 909 14 858 -4 c 0,97,98
 804 -23 804 -23 745.5 -33 c 128,-1,99
 687 -43 687 -43 627 -43 c 1,100,-1
 627 -43 l 1,0,1
EndSplineSet
EndChar

StartChar: t
Encoding: 116 116 19
Width: 1223
Flags: W
LayerCount: 2
Fore
SplineSet
688 -43 m 1,0,1
 608 -43 608 -43 541 -19 c 128,-1,2
 474 5 474 5 434 47 c 0,3,4
 402 82 402 82 386.5 132.5 c 128,-1,5
 371 183 371 183 373 252 c 1,6,-1
 373 252 l 1,7,-1
 395 979 l 1,8,-1
 106 979 l 1,9,-1
 106 1214 l 1,10,-1
 401 1214 l 1,11,-1
 432 1735 l 1,12,-1
 567 1735 l 1,13,-1
 674 1595 l 1,14,-1
 666 1214 l 1,15,-1
 948 1214 l 1,16,-1
 1042 1090 l 1,17,-1
 1042 979 l 1,18,-1
 664 979 l 1,19,-1
 662 336 l 2,20,21
 662 266 662 266 684 250 c 0,22,23
 698 241 698 241 719 238.5 c 128,-1,24
 740 236 740 236 762 236 c 2,25,-1
 766 236 l 2,26,27
 795 236 795 236 833 242.5 c 128,-1,28
 871 249 871 249 903 260 c 0,29,30
 920 265 920 265 937.5 274 c 128,-1,31
 955 283 955 283 970 292 c 0,32,33
 987 302 987 302 1004 313 c 1,34,-1
 1087 45 l 1,35,-1
 1067 33 l 2,36,37
 1049 21 1049 21 1033.5 13.5 c 128,-1,38
 1018 6 1018 6 1002 1 c 128,-1,39
 986 -4 986 -4 967.5 -8.5 c 128,-1,40
 949 -13 949 -13 924 -18 c 0,41,42
 905 -22 905 -22 882 -26.5 c 128,-1,43
 859 -31 859 -31 831 -34.5 c 128,-1,44
 803 -38 803 -38 768 -40.5 c 128,-1,45
 733 -43 733 -43 688 -43 c 1,46,-1
 688 -43 l 1,0,1
EndSplineSet
EndChar

StartChar: u
Encoding: 117 117 20
Width: 1442
Flags: W
LayerCount: 2
Fore
SplineSet
580 -43 m 1,0,1
 517 -43 517 -43 460.5 -30 c 128,-1,2
 404 -17 404 -17 356 8 c 0,3,4
 308 31 308 31 271 65.5 c 128,-1,5
 234 100 234 100 205 143 c 0,6,7
 173 193 173 193 157 266.5 c 128,-1,8
 141 340 141 340 143 434 c 1,9,-1
 143 434 l 1,10,-1
 164 1214 l 1,11,-1
 418 1214 l 1,12,-1
 428 436 l 2,13,14
 431 390 431 390 439 359 c 128,-1,15
 447 328 447 328 455 317 c 0,16,17
 478 285 478 285 518 275.5 c 128,-1,18
 558 266 558 266 629 266 c 0,19,20
 672 266 672 266 704 279.5 c 128,-1,21
 736 293 736 293 761 315.5 c 128,-1,22
 786 338 786 338 806.5 369 c 128,-1,23
 827 400 827 400 846 434 c 0,24,25
 856 452 856 452 863 473.5 c 128,-1,26
 870 495 870 495 875 524.5 c 128,-1,27
 880 554 880 554 883 591.5 c 128,-1,28
 886 629 886 629 887 678 c 2,29,-1
 893 1214 l 1,30,-1
 1149 1214 l 1,31,-1
 1149 1186 l 2,32,33
 1150 1120 1150 1120 1151 1036 c 128,-1,34
 1152 952 1152 952 1153.5 863 c 128,-1,35
 1155 774 1155 774 1157 686 c 128,-1,36
 1159 598 1159 598 1161.5 524.5 c 128,-1,37
 1164 451 1164 451 1167 398 c 128,-1,38
 1170 345 1170 345 1174 326 c 0,39,40
 1177 308 1177 308 1184.5 284.5 c 128,-1,41
 1192 261 1192 261 1203 235 c 128,-1,42
 1214 209 1214 209 1227 181 c 128,-1,43
 1240 153 1240 153 1253 127 c 0,44,45
 1284 66 1284 66 1321 0 c 1,46,-1
 1008 0 l 1,47,-1
 942 170 l 1,48,49
 924 141 924 141 900 109.5 c 128,-1,50
 876 78 876 78 854 59 c 0,51,52
 792 7 792 7 725 -18 c 128,-1,53
 658 -43 658 -43 580 -43 c 1,54,-1
 580 -43 l 1,0,1
EndSplineSet
EndChar

StartChar: v
Encoding: 118 118 21
Width: 1350
Flags: W
LayerCount: 2
Fore
SplineSet
823 0 m 1,0,-1
 526 0 l 1,1,-1
 98 1214 l 1,2,-1
 362 1214 l 1,3,-1
 674 428 l 1,4,-1
 987 1214 l 1,5,-1
 1251 1214 l 1,6,-1
 823 0 l 1,7,-1
 823 0 l 1,0,-1
EndSplineSet
EndChar

StartChar: w
Encoding: 119 119 22
Width: 1905
Flags: W
LayerCount: 2
Fore
SplineSet
1405 0 m 1,0,-1
 1106 0 l 1,1,-1
 948 586 l 1,2,-1
 791 0 l 1,3,-1
 492 0 l 1,4,-1
 139 1212 l 1,5,-1
 406 1214 l 1,6,-1
 649 340 l 1,7,-1
 825 903 l 1,8,-1
 1071 903 l 1,9,-1
 1253 340 l 1,10,-1
 1493 1214 l 1,11,-1
 1757 1214 l 1,12,-1
 1405 0 l 1,13,-1
 1405 0 l 1,0,-1
EndSplineSet
EndChar

StartChar: x
Encoding: 120 120 23
Width: 1378
Flags: W
LayerCount: 2
Fore
SplineSet
1257 0 m 1,0,-1
 932 0 l 1,1,-1
 688 416 l 1,2,-1
 444 0 l 1,3,-1
 121 0 l 1,4,-1
 520 633 l 1,5,-1
 160 1214 l 1,6,-1
 432 1214 l 1,7,-1
 688 819 l 1,8,-1
 946 1214 l 1,9,-1
 1219 1214 l 1,10,-1
 838 633 l 1,11,-1
 1257 0 l 1,12,-1
 1257 0 l 1,0,-1
EndSplineSet
EndChar

StartChar: y
Encoding: 121 121 24
Width: 1341
Flags: W
LayerCount: 2
Fore
SplineSet
332 -686 m 1,0,1
 269 -686 269 -686 213.5 -665 c 128,-1,2
 158 -644 158 -644 115 -606 c 2,3,-1
 104 -596 l 1,4,-1
 143 -338 l 1,5,-1
 182 -377 l 2,6,7
 190 -383 190 -383 199.5 -387.5 c 128,-1,8
 209 -392 209 -392 225.5 -395 c 128,-1,9
 242 -398 242 -398 268 -399.5 c 128,-1,10
 294 -401 294 -401 336 -401 c 0,11,12
 362 -401 362 -401 377 -398 c 128,-1,13
 392 -395 392 -395 401 -387 c 0,14,15
 414 -375 414 -375 419 -361.5 c 128,-1,16
 424 -348 424 -348 432 -330 c 1,17,-1
 432 -328 l 1,18,19
 439 -309 439 -309 454.5 -263 c 128,-1,20
 470 -217 470 -217 490 -157.5 c 128,-1,21
 510 -98 510 -98 532.5 -31.5 c 128,-1,22
 555 35 555 35 575 94.5 c 128,-1,23
 595 154 595 154 610.5 200.5 c 128,-1,24
 626 247 626 247 633 266 c 1,25,-1
 145 1214 l 1,26,-1
 418 1214 l 1,27,-1
 748 594 l 1,28,-1
 963 1214 l 1,29,-1
 1233 1214 l 1,30,-1
 1219 1176 l 2,31,32
 1219 1174 1219 1174 1208 1141 c 128,-1,33
 1197 1108 1197 1108 1178.5 1052 c 128,-1,34
 1160 996 1160 996 1135 921.5 c 128,-1,35
 1110 847 1110 847 1081.5 762 c 128,-1,36
 1053 677 1053 677 1022.5 586.5 c 128,-1,37
 992 496 992 496 962.5 407.5 c 128,-1,38
 933 319 933 319 905.5 237.5 c 128,-1,39
 878 156 878 156 855.5 90 c 128,-1,40
 833 24 833 24 817 -23.5 c 128,-1,41
 801 -71 801 -71 795 -90 c 0,42,43
 778 -141 778 -141 764 -184.5 c 128,-1,44
 750 -228 750 -228 737 -268 c 0,45,46
 716 -333 716 -333 700 -383 c 128,-1,47
 684 -433 684 -433 669 -471 c 128,-1,48
 654 -509 654 -509 640 -536.5 c 128,-1,49
 626 -564 626 -564 610 -584 c 0,50,51
 583 -616 583 -616 556.5 -636 c 128,-1,52
 530 -656 530 -656 498 -667 c 128,-1,53
 466 -678 466 -678 426 -682 c 128,-1,54
 386 -686 386 -686 332 -686 c 1,55,-1
 332 -686 l 1,0,1
EndSplineSet
EndChar

StartChar: z
Encoding: 122 122 25
Width: 1415
Flags: W
LayerCount: 2
Fore
SplineSet
1286 0 m 1,0,-1
 133 0 l 1,1,-1
 133 260 l 1,2,-1
 821 1010 l 1,3,-1
 182 1010 l 1,4,-1
 182 1214 l 1,5,-1
 1137 1214 l 1,6,-1
 1137 1001 l 1,7,-1
 545 285 l 1,8,-1
 1186 285 l 1,9,-1
 1286 0 l 1,10,-1
 1286 0 l 1,0,-1
EndSplineSet
EndChar

StartChar: a
Encoding: 97 97 26
Width: 1442
Flags: W
LayerCount: 2
Fore
SplineSet
530 -43 m 0,0,1
 444 -43 444 -43 372.5 -16 c 128,-1,2
 301 11 301 11 246 63 c 0,3,4
 189 117 189 117 162 184 c 0,5,6
 146 218 146 218 139.5 255 c 128,-1,7
 133 292 133 292 135 332 c 0,8,9
 138 391 138 391 147.5 434.5 c 128,-1,10
 157 478 157 478 174 512 c 256,11,12
 191 546 191 546 213.5 569.5 c 128,-1,13
 236 593 236 593 262 616 c 0,14,15
 321 667 321 667 385 695.5 c 128,-1,16
 449 724 449 724 526 735 c 0,17,18
 576 743 576 743 638 744 c 128,-1,19
 700 745 700 745 756 745 c 2,20,-1
 809 745 l 1,21,-1
 850 745 l 2,22,23
 881 745 881 745 892.5 750 c 128,-1,24
 904 755 904 755 907 758 c 0,25,26
 912 763 912 763 912.5 774.5 c 128,-1,27
 913 786 913 786 913 799 c 2,28,-1
 915 862 l 2,29,30
 915 878 915 878 912.5 896.5 c 128,-1,31
 910 915 910 915 904 932.5 c 128,-1,32
 898 950 898 950 887.5 965.5 c 128,-1,33
 877 981 877 981 860 991 c 0,34,35
 828 1013 828 1013 781.5 1023.5 c 128,-1,36
 735 1034 735 1034 676 1034 c 0,37,38
 638 1034 638 1034 610 1031.5 c 128,-1,39
 582 1029 582 1029 562 1025.5 c 128,-1,40
 542 1022 542 1022 529 1017.5 c 128,-1,41
 516 1013 516 1013 508 1008 c 0,42,43
 480 992 480 992 469 975.5 c 128,-1,44
 458 959 458 959 455 930 c 2,45,-1
 453 903 l 1,46,-1
 199 903 l 1,47,-1
 199 934 l 2,48,49
 199 955 199 955 203.5 984.5 c 128,-1,50
 208 1014 208 1014 222 1046 c 128,-1,51
 236 1078 236 1078 262 1110 c 128,-1,52
 288 1142 288 1142 330 1169 c 0,53,54
 396 1211 396 1211 484 1232 c 128,-1,55
 572 1253 572 1253 674 1253 c 0,56,57
 876 1253 876 1253 1022 1165 c 0,58,59
 1163 1080 1163 1080 1163 897 c 2,60,-1
 1165 236 l 1,61,-1
 1165 233 l 1,62,-1
 1292 125 l 1,63,-1
 1294 6 l 1,64,-1
 1272 0 l 1,65,-1
 1257 -5 l 2,66,67
 1238 -11 1238 -11 1222 -14.5 c 128,-1,68
 1206 -18 1206 -18 1186 -20 c 256,69,70
 1166 -22 1166 -22 1149.5 -22 c 128,-1,71
 1133 -22 1133 -22 1112 -20 c 0,72,73
 1052 -15 1052 -15 1012 10 c 128,-1,74
 972 35 972 35 950 86 c 0,75,76
 947 94 947 94 944 101.5 c 128,-1,77
 941 109 941 109 938 117 c 1,78,79
 925 104 925 104 909 88 c 128,-1,80
 893 72 893 72 875 56.5 c 128,-1,81
 857 41 857 41 838 26.5 c 128,-1,82
 819 12 819 12 801 2 c 0,83,84
 771 -13 771 -13 738 -22 c 128,-1,85
 705 -31 705 -31 670.5 -35.5 c 128,-1,86
 636 -40 636 -40 600.5 -41.5 c 128,-1,87
 565 -43 565 -43 530 -43 c 0,0,1
629 555 m 0,88,89
 578 552 578 552 537.5 539 c 128,-1,90
 497 526 497 526 477 506 c 0,91,92
 458 487 458 487 447 470.5 c 128,-1,93
 436 454 436 454 430 437.5 c 128,-1,94
 424 421 424 421 422.5 402 c 128,-1,95
 421 383 421 383 420 360 c 0,96,97
 420 342 420 342 425 327 c 128,-1,98
 430 312 430 312 449 297 c 0,99,100
 462 285 462 285 481.5 279 c 128,-1,101
 501 273 501 273 522.5 270 c 128,-1,102
 544 267 544 267 565.5 266.5 c 128,-1,103
 587 266 587 266 604 266 c 2,104,-1
 612 266 l 2,105,106
 637 266 637 266 663.5 268.5 c 128,-1,107
 690 271 690 271 715 275 c 128,-1,108
 740 279 740 279 761.5 284.5 c 128,-1,109
 783 290 783 290 797 295 c 0,110,111
 825 305 825 305 845 315 c 128,-1,112
 865 325 865 325 877.5 340 c 128,-1,113
 890 355 890 355 897 378 c 128,-1,114
 904 401 904 401 905 438 c 2,115,-1
 907 557 l 1,116,-1
 799 557 l 2,117,118
 758 557 758 557 724 557 c 0,119,120
 695 557 695 557 667 556.5 c 128,-1,121
 639 556 639 556 629 555 c 0,88,89
EndSplineSet
EndChar

StartChar: b
Encoding: 98 98 27
Width: 1438
Flags: W
LayerCount: 2
Fore
SplineSet
748 -41 m 2,0,1
 670 -36 670 -36 610 -18.5 c 128,-1,2
 550 -1 550 -1 504 31 c 0,3,4
 488 42 488 42 477 52.5 c 128,-1,5
 466 63 466 63 455 76 c 1,6,-1
 444 0 l 1,7,-1
 123 0 l 1,8,-1
 131 37 l 2,9,10
 131 38 131 38 135 57 c 128,-1,11
 139 76 139 76 145 106.5 c 128,-1,12
 151 137 151 137 158.5 176.5 c 128,-1,13
 166 216 166 216 173 256.5 c 128,-1,14
 180 297 180 297 185.5 335.5 c 128,-1,15
 191 374 191 374 193 403 c 0,16,17
 195 421 195 421 196.5 473.5 c 128,-1,18
 198 526 198 526 200 602.5 c 128,-1,19
 202 679 202 679 204 774 c 128,-1,20
 206 869 206 869 208.5 973 c 128,-1,21
 211 1077 211 1077 213 1184.5 c 128,-1,22
 215 1292 215 1292 216.5 1393 c 128,-1,23
 218 1494 218 1494 220 1582.5 c 128,-1,24
 222 1671 222 1671 223 1738 c 128,-1,25
 224 1805 224 1805 224.5 1844.5 c 128,-1,26
 225 1884 225 1884 225 1886 c 2,27,-1
 227 1913 l 1,28,-1
 494 1913 l 1,29,-1
 471 1174 l 1,30,31
 483 1183 483 1183 497.5 1192 c 128,-1,32
 512 1201 512 1201 530 1210 c 0,33,34
 557 1225 557 1225 586 1233.5 c 128,-1,35
 615 1242 615 1242 643 1247 c 128,-1,36
 671 1252 671 1252 697.5 1253.5 c 128,-1,37
 724 1255 724 1255 745 1255 c 0,38,39
 815 1255 815 1255 867 1243 c 128,-1,40
 919 1231 919 1231 961 1208 c 0,41,42
 1001 1187 1001 1187 1032.5 1155 c 128,-1,43
 1064 1123 1064 1123 1096 1081 c 0,44,45
 1155 1007 1155 1007 1199.5 901.5 c 128,-1,46
 1244 796 1244 796 1278 647 c 0,47,48
 1295 572 1295 572 1301 514.5 c 128,-1,49
 1307 457 1307 457 1300 397 c 0,50,51
 1292 329 1292 329 1272 272.5 c 128,-1,52
 1252 216 1252 216 1217 168 c 256,53,54
 1182 120 1182 120 1134.5 82 c 128,-1,55
 1087 44 1087 44 1030 16 c 0,56,57
 971 -13 971 -13 907 -28 c 128,-1,58
 843 -43 843 -43 778 -43 c 1,59,-1
 748 -41 l 2,0,1
721 1047 m 0,60,61
 673 1047 673 1047 635.5 1034.5 c 128,-1,62
 598 1022 598 1022 571 1005 c 128,-1,63
 544 988 544 988 527 970 c 128,-1,64
 510 952 510 952 502 940 c 0,65,66
 484 914 484 914 474 891.5 c 128,-1,67
 464 869 464 869 459 839 c 128,-1,68
 454 809 454 809 454 767 c 128,-1,69
 454 725 454 725 457 659 c 0,70,71
 457 647 457 647 457 636.5 c 128,-1,72
 457 626 457 626 459 616 c 0,73,74
 461 575 461 575 463 539 c 128,-1,75
 465 503 465 503 471 471.5 c 128,-1,76
 477 440 477 440 489 412 c 128,-1,77
 501 384 501 384 522 358 c 0,78,79
 549 327 549 327 580 308.5 c 128,-1,80
 611 290 611 290 646.5 280.5 c 128,-1,81
 682 271 682 271 721.5 268.5 c 128,-1,82
 761 266 761 266 805 266 c 0,83,84
 818 266 818 266 835.5 270.5 c 128,-1,85
 853 275 853 275 872.5 283 c 128,-1,86
 892 291 892 291 912 302 c 128,-1,87
 932 313 932 313 950 326 c 0,88,89
 964 336 964 336 975 345.5 c 128,-1,90
 986 355 986 355 995 369 c 0,91,92
 1008 388 1008 388 1020 423 c 128,-1,93
 1032 458 1032 458 1036.5 504.5 c 128,-1,94
 1041 551 1041 551 1036 606.5 c 128,-1,95
 1031 662 1031 662 1010 723 c 0,96,97
 992 779 992 779 975 819.5 c 128,-1,98
 958 860 958 860 942 889 c 128,-1,99
 926 918 926 918 911.5 938.5 c 128,-1,100
 897 959 897 959 883 975 c 0,101,102
 861 999 861 999 840.5 1013.5 c 128,-1,103
 820 1028 820 1028 800 1035.5 c 128,-1,104
 780 1043 780 1043 760.5 1045 c 128,-1,105
 741 1047 741 1047 721 1047 c 0,60,61
EndSplineSet
EndChar

StartChar: c
Encoding: 99 99 28
Width: 1382
Flags: W
LayerCount: 2
Fore
SplineSet
686 -43 m 1,0,1
 556 -43 556 -43 452 1 c 128,-1,2
 348 45 348 45 279 129 c 0,3,4
 210 214 210 214 173.5 330.5 c 128,-1,5
 137 447 137 447 137 584 c 0,6,7
 137 664 137 664 146.5 732 c 128,-1,8
 156 800 156 800 176 862 c 0,9,10
 214 983 214 983 293 1071 c 0,11,12
 331 1116 331 1116 378.5 1150.5 c 128,-1,13
 426 1185 426 1185 483 1208 c 0,14,15
 536 1230 536 1230 593.5 1241.5 c 128,-1,16
 651 1253 651 1253 713 1253 c 0,17,18
 816 1253 816 1253 901 1227.5 c 128,-1,19
 986 1202 986 1202 1051 1151 c 0,20,21
 1144 1080 1144 1080 1184 942 c 2,22,-1
 1196 903 l 1,23,-1
 924 903 l 1,24,-1
 918 922 l 2,25,26
 910 942 910 942 903 958 c 128,-1,27
 896 974 896 974 885 985 c 0,28,29
 870 998 870 998 854 1009.5 c 128,-1,30
 838 1021 838 1021 818 1029 c 128,-1,31
 798 1037 798 1037 773 1042 c 128,-1,32
 748 1047 748 1047 715 1047 c 0,33,34
 670 1047 670 1047 630.5 1033.5 c 128,-1,35
 591 1020 591 1020 558 996 c 128,-1,36
 525 972 525 972 499 938.5 c 128,-1,37
 473 905 473 905 455 864 c 0,38,39
 443 837 443 837 435.5 815.5 c 128,-1,40
 428 794 428 794 424 771 c 128,-1,41
 420 748 420 748 419 719 c 128,-1,42
 418 690 418 690 418 647 c 0,43,44
 418 566 418 566 431 503 c 128,-1,45
 444 440 444 440 473 377 c 2,46,-1
 475 373 l 2,47,48
 488 348 488 348 498.5 329.5 c 128,-1,49
 509 311 509 311 530 297 c 0,50,51
 555 281 555 281 596 273.5 c 128,-1,52
 637 266 637 266 700 266 c 2,53,-1
 719 266 l 2,54,55
 784 266 784 266 819 270 c 128,-1,56
 854 274 854 274 866 281 c 0,57,58
 882 289 882 289 891.5 296.5 c 128,-1,59
 901 304 901 304 903 324 c 2,60,-1
 907 348 l 1,61,-1
 1212 348 l 1,62,-1
 1212 319 l 2,63,64
 1212 281 1212 281 1198.5 239.5 c 128,-1,65
 1185 198 1185 198 1157 156 c 0,66,67
 1137 124 1137 124 1110 94.5 c 128,-1,68
 1083 65 1083 65 1057 45 c 0,69,70
 1015 14 1015 14 970 -3.5 c 128,-1,71
 925 -21 925 -21 877.5 -30 c 128,-1,72
 830 -39 830 -39 782 -41 c 128,-1,73
 734 -43 734 -43 686 -43 c 1,74,-1
 686 -43 l 1,0,1
EndSplineSet
EndChar

StartChar: d
Encoding: 100 100 29
Width: 1477
Flags: W
LayerCount: 2
Fore
SplineSet
647 -43 m 1,0,-1
 645 -43 l 2,1,2
 580 -43 580 -43 533.5 -27.5 c 128,-1,3
 487 -12 487 -12 453 12 c 128,-1,4
 419 36 419 36 394.5 66 c 128,-1,5
 370 96 370 96 348 125 c 1,6,-1
 344 129 l 1,7,8
 320 164 320 164 292 214 c 128,-1,9
 264 264 264 264 237 324.5 c 128,-1,10
 210 385 210 385 186 453.5 c 128,-1,11
 162 522 162 522 147 594 c 0,12,13
 129 675 129 675 124.5 741 c 128,-1,14
 120 807 120 807 129 864 c 0,15,16
 134 896 134 896 143.5 923 c 128,-1,17
 153 950 153 950 166.5 975 c 128,-1,18
 180 1000 180 1000 198.5 1024 c 128,-1,19
 217 1048 217 1048 240 1075 c 0,20,21
 317 1162 317 1162 423.5 1207.5 c 128,-1,22
 530 1253 530 1253 657 1253 c 0,23,24
 726 1253 726 1253 783 1237.5 c 128,-1,25
 840 1222 840 1222 893 1190 c 0,26,27
 912 1179 912 1179 932 1164.5 c 128,-1,28
 952 1150 952 1150 975 1128 c 1,29,-1
 1028 1913 l 1,30,-1
 1294 1913 l 1,31,-1
 1239 940 l 2,32,33
 1239 935 1239 935 1239 901 c 128,-1,34
 1239 867 1239 867 1239.5 817 c 128,-1,35
 1240 767 1240 767 1240.5 706.5 c 128,-1,36
 1241 646 1241 646 1242 587.5 c 128,-1,37
 1243 529 1243 529 1244.5 479 c 128,-1,38
 1246 429 1246 429 1249 399 c 256,39,40
 1252 369 1252 369 1259.5 331 c 128,-1,41
 1267 293 1267 293 1276.5 253.5 c 128,-1,42
 1286 214 1286 214 1296.5 175.5 c 128,-1,43
 1307 137 1307 137 1315.5 107 c 128,-1,44
 1324 77 1324 77 1329.5 58.5 c 128,-1,45
 1335 40 1335 40 1335 39 c 2,46,-1
 1348 0 l 1,47,-1
 997 0 l 1,48,-1
 997 117 l 1,49,50
 968 82 968 82 934.5 54.5 c 128,-1,51
 901 27 901 27 866 8 c 0,52,53
 814 -18 814 -18 761.5 -30.5 c 128,-1,54
 709 -43 709 -43 647 -43 c 1,55,-1
 647 -43 l 1,0,-1
678 1047 m 1,56,57
 666 1047 666 1047 654 1045.5 c 128,-1,58
 642 1044 642 1044 631 1042 c 0,59,60
 554 1030 554 1030 504 999.5 c 128,-1,61
 454 969 454 969 416 913 c 0,62,63
 395 883 395 883 390 836 c 128,-1,64
 385 789 385 789 389.5 738 c 128,-1,65
 394 687 394 687 405 639 c 128,-1,66
 416 591 416 591 428 559 c 0,67,68
 444 515 444 515 456 487 c 128,-1,69
 468 459 468 459 479 437 c 128,-1,70
 490 415 490 415 503 395.5 c 128,-1,71
 516 376 516 376 535 350 c 0,72,73
 553 324 553 324 567 307.5 c 128,-1,74
 581 291 581 291 602 282 c 128,-1,75
 623 273 623 273 657 269.5 c 128,-1,76
 691 266 691 266 750 266 c 1,77,-1
 750 266 l 1,78,79
 805 266 805 266 849 285.5 c 128,-1,80
 893 305 893 305 924 340 c 0,81,82
 962 387 962 387 975 443.5 c 128,-1,83
 988 500 988 500 991 580 c 0,84,85
 993 634 993 634 988 682 c 128,-1,86
 983 730 983 730 974.5 769.5 c 128,-1,87
 966 809 966 809 955 839 c 128,-1,88
 944 869 944 869 932 887 c 0,89,90
 887 962 887 962 821 1004.5 c 128,-1,91
 755 1047 755 1047 678 1047 c 1,92,-1
 678 1047 l 1,56,57
EndSplineSet
EndChar

StartChar: L
Encoding: 76 76 30
Width: 1501
Flags: W
LayerCount: 2
Fore
SplineSet
190 0 m 1,0,-1
 244 1915 l 1,1,-1
 532 1913 l 1,2,-1
 575 348 l 1,3,-1
 1204 348 l 1,4,-1
 1309 203 l 1,5,-1
 1309 0 l 1,6,-1
 190 0 l 1,0,-1
EndSplineSet
EndChar

StartChar: grave
Encoding: 96 96 31
Width: 1706
Flags: W
LayerCount: 2
Fore
SplineSet
596 1929 m 1,0,-1
 1004 1497 l 1,1,-1
 840 1333 l 1,2,-1
 408 1739 l 1,3,-1
 596 1929 l 1,0,-1
EndSplineSet
EndChar

StartChar: A
Encoding: 65 65 32
Width: 2066
Flags: W
LayerCount: 2
Fore
SplineSet
1190 1915 m 1,0,-1
 1913 0 l 1,1,-1
 1495 0 l 1,2,-1
 1346 549 l 1,3,-1
 725 549 l 1,4,-1
 573 0 l 1,5,-1
 152 0 l 1,6,-1
 881 1913 l 1,7,-1
 1190 1913 l 1,8,-1
 1190 1915 l 1,0,-1
1266 842 m 1,9,-1
 1034 1573 l 1,10,-1
 799 842 l 1,11,-1
 1266 842 l 1,9,-1
EndSplineSet
EndChar

StartChar: B
Encoding: 66 66 33
Width: 1849
Flags: W
LayerCount: 2
Fore
SplineSet
252 1913 m 1,0,-1
 997 1913 l 2,1,2
 1100 1913 1100 1913 1198 1879 c 128,-1,3
 1296 1845 1296 1845 1374 1782 c 0,4,5
 1414 1750 1414 1750 1445.5 1714 c 128,-1,6
 1477 1678 1477 1678 1499 1636 c 0,7,8
 1548 1551 1548 1551 1548 1456 c 0,9,10
 1548 1382 1548 1382 1536 1324.5 c 128,-1,11
 1524 1267 1524 1267 1499 1219 c 0,12,13
 1474 1175 1474 1175 1440 1141 c 128,-1,14
 1406 1107 1406 1107 1358 1079 c 1,15,16
 1420 1051 1420 1051 1474.5 1008 c 128,-1,17
 1529 965 1529 965 1571 909 c 0,18,19
 1625 837 1625 837 1653 751.5 c 128,-1,20
 1681 666 1681 666 1681 575 c 0,21,22
 1681 461 1681 461 1632 354 c 0,23,24
 1590 253 1590 253 1507 172 c 0,25,26
 1467 132 1467 132 1421.5 100 c 128,-1,27
 1376 68 1376 68 1323 45 c 256,28,29
 1270 22 1270 22 1215.5 11 c 128,-1,30
 1161 0 1161 0 1104 0 c 2,31,-1
 199 0 l 1,32,-1
 252 1913 l 1,0,-1
1077 346 m 2,33,34
 1133 346 1133 346 1182.5 367 c 128,-1,35
 1232 388 1232 388 1269 424.5 c 128,-1,36
 1306 461 1306 461 1327 510 c 128,-1,37
 1348 559 1348 559 1348 614 c 0,38,39
 1348 670 1348 670 1327 719.5 c 128,-1,40
 1306 769 1306 769 1269 806 c 128,-1,41
 1232 843 1232 843 1182.5 864 c 128,-1,42
 1133 885 1133 885 1077 885 c 2,43,-1
 569 885 l 1,44,-1
 584 346 l 1,45,-1
 1077 346 l 2,33,34
561 1208 m 1,46,-1
 995 1208 l 2,47,48
 1044 1208 1044 1208 1086 1228.5 c 128,-1,49
 1128 1249 1128 1249 1158.5 1282 c 128,-1,50
 1189 1315 1189 1315 1206 1356 c 128,-1,51
 1223 1397 1223 1397 1223 1438 c 256,52,53
 1223 1479 1223 1479 1204.5 1515 c 128,-1,54
 1186 1551 1186 1551 1155 1578.5 c 128,-1,55
 1124 1606 1124 1606 1082.5 1622 c 128,-1,56
 1041 1638 1041 1638 995 1638 c 2,57,-1
 549 1638 l 1,58,-1
 561 1208 l 1,46,-1
EndSplineSet
EndChar

StartChar: C
Encoding: 67 67 34
Width: 2007
Flags: W
LayerCount: 2
Fore
SplineSet
1014 -25 m 0,0,1
 921 -25 921 -25 837 -8 c 128,-1,2
 753 9 753 9 678 41 c 0,3,4
 600 75 600 75 535 125 c 128,-1,5
 470 175 470 175 416 240 c 0,6,7
 362 306 362 306 319.5 383.5 c 128,-1,8
 277 461 277 461 248 549 c 0,9,10
 219 639 219 639 203.5 733 c 128,-1,11
 188 827 188 827 188 924 c 0,12,13
 188 1163 188 1163 246 1341 c 0,14,15
 275 1434 275 1434 319.5 1512 c 128,-1,16
 364 1590 364 1590 424 1659 c 0,17,18
 481 1725 481 1725 552.5 1777 c 128,-1,19
 624 1829 624 1829 709 1864 c 0,20,21
 789 1898 789 1898 875.5 1914.5 c 128,-1,22
 962 1931 962 1931 1055 1931 c 0,23,24
 1211 1931 1211 1931 1338.5 1893 c 128,-1,25
 1466 1855 1466 1855 1565 1778 c 0,26,27
 1640 1719 1640 1719 1689.5 1637.5 c 128,-1,28
 1739 1556 1739 1556 1757 1462 c 2,29,-1
 1763 1427 l 1,30,-1
 1401 1427 l 1,31,-1
 1397 1450 l 2,32,33
 1391 1482 1391 1482 1375 1509.5 c 128,-1,34
 1359 1537 1359 1537 1333 1565 c 0,35,36
 1287 1610 1287 1610 1222 1630.5 c 128,-1,37
 1157 1651 1157 1651 1057 1651 c 0,38,39
 990 1651 990 1651 926 1630 c 128,-1,40
 862 1609 862 1609 805.5 1570.5 c 128,-1,41
 749 1532 749 1532 703.5 1478 c 128,-1,42
 658 1424 658 1424 629 1358 c 0,43,44
 611 1315 611 1315 597 1280 c 128,-1,45
 583 1245 583 1245 574 1207 c 128,-1,46
 565 1169 565 1169 560.5 1122.5 c 128,-1,47
 556 1076 556 1076 555 1010 c 0,48,49
 555 946 555 946 565 883.5 c 128,-1,50
 575 821 575 821 590 765 c 128,-1,51
 605 709 605 709 622 663 c 128,-1,52
 639 617 639 617 654 587 c 0,53,54
 669 555 669 555 693.5 518 c 128,-1,55
 718 481 718 481 760.5 448 c 128,-1,56
 803 415 803 415 869 392 c 128,-1,57
 935 369 935 369 1034 365 c 1,58,-1
 1036 365 l 2,59,60
 1081 365 1081 365 1124 369 c 128,-1,61
 1167 373 1167 373 1203 379 c 128,-1,62
 1239 385 1239 385 1265 392.5 c 128,-1,63
 1291 400 1291 400 1303 408 c 0,64,65
 1327 425 1327 425 1343 454 c 128,-1,66
 1359 483 1359 483 1362 520 c 2,67,-1
 1364 547 l 1,68,-1
 1806 547 l 1,69,-1
 1806 516 l 2,70,71
 1804 441 1804 441 1784.5 372.5 c 128,-1,72
 1765 304 1765 304 1724 244 c 0,73,74
 1690 190 1690 190 1643.5 148.5 c 128,-1,75
 1597 107 1597 107 1543.5 76.5 c 128,-1,76
 1490 46 1490 46 1431.5 26 c 128,-1,77
 1373 6 1373 6 1313 -4 c 0,78,79
 1235 -18 1235 -18 1157 -21.5 c 128,-1,80
 1079 -25 1079 -25 1014 -25 c 0,0,1
EndSplineSet
EndChar

StartChar: D
Encoding: 68 68 35
Width: 1966
Flags: W
LayerCount: 2
Fore
SplineSet
254 1913 m 1,0,-1
 907 1913 l 2,1,2
 1030 1913 1030 1913 1143 1879 c 128,-1,3
 1256 1845 1256 1845 1354.5 1782.5 c 128,-1,4
 1453 1720 1453 1720 1534 1633 c 128,-1,5
 1615 1546 1615 1546 1673 1440 c 128,-1,6
 1731 1334 1731 1334 1762.5 1212 c 128,-1,7
 1794 1090 1794 1090 1794 958 c 0,8,9
 1794 760 1794 760 1740.5 587.5 c 128,-1,10
 1687 415 1687 415 1585 285 c 1,11,12
 1484 149 1484 149 1337 78 c 0,13,14
 1262 40 1262 40 1179.5 21 c 128,-1,15
 1097 2 1097 2 1006 0 c 2,16,-1
 201 0 l 1,17,-1
 254 1913 l 1,0,-1
586 348 m 1,18,-1
 911 348 l 2,19,20
 1030 348 1030 348 1129.5 394.5 c 128,-1,21
 1229 441 1229 441 1302 523.5 c 128,-1,22
 1375 606 1375 606 1415.5 720 c 128,-1,23
 1456 834 1456 834 1456 969 c 0,24,25
 1456 1059 1456 1059 1435 1143 c 128,-1,26
 1414 1227 1414 1227 1375.5 1301 c 128,-1,27
 1337 1375 1337 1375 1283.5 1435.5 c 128,-1,28
 1230 1496 1230 1496 1165 1540 c 128,-1,29
 1100 1584 1100 1584 1025.5 1608 c 128,-1,30
 951 1632 951 1632 872 1632 c 2,31,-1
 551 1632 l 1,32,-1
 586 348 l 1,18,-1
EndSplineSet
EndChar

StartChar: E
Encoding: 69 69 36
Width: 1630
Flags: W
LayerCount: 2
Fore
SplineSet
195 0 m 1,0,-1
 248 1913 l 1,1,-1
 1407 1913 l 1,2,-1
 1407 1632 l 1,3,-1
 545 1632 l 1,4,-1
 557 1161 l 1,5,-1
 1237 1161 l 1,6,-1
 1237 846 l 1,7,-1
 567 846 l 1,8,-1
 580 348 l 1,9,-1
 1407 348 l 1,10,-1
 1407 0 l 1,11,-1
 195 0 l 1,0,-1
EndSplineSet
EndChar

StartChar: F
Encoding: 70 70 37
Width: 1589
Flags: W
LayerCount: 2
Fore
SplineSet
190 0 m 1,0,-1
 244 1913 l 1,1,-1
 1374 1913 l 1,2,-1
 1374 1632 l 1,3,-1
 539 1632 l 1,4,-1
 553 1161 l 1,5,-1
 1188 1161 l 1,6,-1
 1188 997 l 1,7,-1
 1067 848 l 1,8,-1
 561 848 l 1,9,-1
 586 0 l 1,10,-1
 190 0 l 1,0,-1
EndSplineSet
EndChar

StartChar: G
Encoding: 71 71 38
Width: 2077
Flags: W
LayerCount: 2
Fore
SplineSet
1012 -25 m 0,0,1
 919 -25 919 -25 835 -8 c 128,-1,2
 751 9 751 9 676 41 c 0,3,4
 598 75 598 75 533 125 c 128,-1,5
 468 175 468 175 414 240 c 0,6,7
 360 308 360 308 317.5 384.5 c 128,-1,8
 275 461 275 461 246 551 c 0,9,10
 217 639 217 639 201.5 733 c 128,-1,11
 186 827 186 827 186 924 c 0,12,13
 186 1162 186 1162 244 1343 c 0,14,15
 303 1525 303 1525 422 1659 c 0,16,17
 479 1727 479 1727 550.5 1778 c 128,-1,18
 622 1829 622 1829 707 1866 c 0,19,20
 787 1900 787 1900 874 1915.5 c 128,-1,21
 961 1931 961 1931 1055 1931 c 0,22,23
 1207 1931 1207 1931 1335 1894 c 128,-1,24
 1463 1857 1463 1857 1563 1780 c 0,25,26
 1631 1726 1631 1726 1680.5 1648 c 128,-1,27
 1730 1570 1730 1570 1761 1464 c 2,28,-1
 1772 1427 l 1,29,-1
 1403 1427 l 1,30,-1
 1395 1446 l 2,31,32
 1381 1481 1381 1481 1366 1506 c 128,-1,33
 1351 1531 1351 1531 1328 1551 c 0,34,35
 1308 1569 1308 1569 1283 1587 c 128,-1,36
 1258 1605 1258 1605 1225 1619.5 c 128,-1,37
 1192 1634 1192 1634 1150.5 1642.5 c 128,-1,38
 1109 1651 1109 1651 1055 1651 c 0,39,40
 988 1651 988 1651 924.5 1630 c 128,-1,41
 861 1609 861 1609 805.5 1570.5 c 128,-1,42
 750 1532 750 1532 704.5 1478.5 c 128,-1,43
 659 1425 659 1425 629 1360 c 0,44,45
 609 1317 609 1317 595 1281.5 c 128,-1,46
 581 1246 581 1246 572 1207.5 c 128,-1,47
 563 1169 563 1169 558.5 1122.5 c 128,-1,48
 554 1076 554 1076 553 1010 c 0,49,50
 553 946 553 946 565 881 c 128,-1,51
 577 816 577 816 593.5 758.5 c 128,-1,52
 610 701 610 701 628.5 656.5 c 128,-1,53
 647 612 647 612 659 590 c 0,54,55
 678 556 678 556 701.5 515.5 c 128,-1,56
 725 475 725 475 765.5 440.5 c 128,-1,57
 806 406 806 406 870 382 c 128,-1,58
 934 358 934 358 1034 356 c 2,59,-1
 1044 356 l 2,60,61
 1099 356 1099 356 1140.5 359 c 128,-1,62
 1182 362 1182 362 1217 369.5 c 128,-1,63
 1252 377 1252 377 1284.5 391 c 128,-1,64
 1317 405 1317 405 1353 426 c 0,65,66
 1368 435 1368 435 1384 447.5 c 128,-1,67
 1400 460 1400 460 1414.5 478.5 c 128,-1,68
 1429 497 1429 497 1439.5 522 c 128,-1,69
 1450 547 1450 547 1454 580 c 1,70,-1
 1169 580 l 1,71,-1
 1169 905 l 1,72,-1
 1845 905 l 1,73,-1
 1876 -25 l 1,74,-1
 1516 -25 l 1,75,-1
 1524 150 l 1,76,77
 1502 125 1502 125 1477 103 c 128,-1,78
 1452 81 1452 81 1421 61 c 0,79,80
 1355 16 1355 16 1256.5 -4.5 c 128,-1,81
 1158 -25 1158 -25 1012 -25 c 0,0,1
EndSplineSet
EndChar

StartChar: H
Encoding: 72 72 39
Width: 1964
Flags: W
LayerCount: 2
Fore
SplineSet
1372 0 m 1,0,-1
 1395 848 l 1,1,-1
 946 858 l 1,2,-1
 569 848 l 1,3,-1
 594 0 l 1,4,-1
 199 0 l 1,5,-1
 252 1913 l 1,6,-1
 541 1913 l 1,7,-1
 561 1182 l 1,8,-1
 946 1174 l 1,9,-1
 1405 1182 l 1,10,-1
 1425 1913 l 1,11,-1
 1714 1913 l 1,12,-1
 1767 0 l 1,13,-1
 1372 0 l 1,0,-1
EndSplineSet
EndChar

StartChar: I
Encoding: 73 73 40
Width: 795
Flags: W
LayerCount: 2
Fore
SplineSet
199 0 m 1,0,-1
 252 1913 l 1,1,-1
 541 1913 l 1,2,-1
 594 0 l 1,3,-1
 199 0 l 1,0,-1
EndSplineSet
EndChar

StartChar: J
Encoding: 74 74 41
Width: 1489
Flags: W
LayerCount: 2
Fore
SplineSet
723 -43 m 0,0,1
 610 -43 610 -43 510 -3 c 128,-1,2
 410 37 410 37 332 115 c 0,3,4
 253 192 253 192 210.5 291 c 128,-1,5
 168 390 168 390 168 500 c 2,6,-1
 168 528 l 1,7,-1
 494 528 l 1,8,-1
 494 500 l 2,9,10
 494 438 494 438 551 393 c 0,11,12
 580 370 580 370 617 358 c 128,-1,13
 654 346 654 346 696 346 c 256,14,15
 738 346 738 346 776.5 358 c 128,-1,16
 815 370 815 370 844 393 c 0,17,18
 901 438 901 438 901 500 c 2,19,-1
 954 1913 l 1,20,-1
 1243 1913 l 1,21,-1
 1268 500 l 2,22,23
 1268 390 1268 390 1227.5 291 c 128,-1,24
 1187 192 1187 192 1110 115 c 0,25,26
 1033 37 1033 37 933.5 -3 c 128,-1,27
 834 -43 834 -43 723 -43 c 0,0,1
EndSplineSet
EndChar

StartChar: K
Encoding: 75 75 42
Width: 1806
Flags: W
LayerCount: 2
Fore
SplineSet
195 0 m 1,0,-1
 250 1913 l 1,1,-1
 545 1913 l 1,2,-1
 557 1219 l 1,3,-1
 1202 1913 l 1,4,-1
 1565 1913 l 1,5,-1
 801 1059 l 1,6,-1
 1608 133 l 1,7,-1
 1608 0 l 1,8,-1
 1196 0 l 1,9,-1
 571 788 l 1,10,-1
 610 0 l 1,11,-1
 195 0 l 1,0,-1
EndSplineSet
EndChar

StartChar: M
Encoding: 77 77 43
Width: 2439
Flags: W
LayerCount: 2
Fore
SplineSet
1819 0 m 1,0,-1
 1860 1479 l 1,1,-1
 1430 289 l 1,2,-1
 1010 289 l 1,3,-1
 582 1479 l 1,4,-1
 621 0 l 1,5,-1
 205 0 l 1,6,-1
 334 1913 l 1,7,-1
 692 1913 l 1,8,-1
 1221 672 l 1,9,-1
 1747 1913 l 1,10,-1
 2105 1913 l 1,11,-1
 2234 0 l 1,12,-1
 1819 0 l 1,0,-1
EndSplineSet
EndChar

StartChar: N
Encoding: 78 78 44
Width: 2013
Flags: W
LayerCount: 2
Fore
SplineSet
1380 0 m 1,0,-1
 582 1319 l 1,1,-1
 614 0 l 1,2,-1
 199 0 l 1,3,-1
 256 1913 l 1,4,-1
 557 1913 l 1,5,-1
 1436 596 l 1,6,-1
 1466 1681 l 1,7,-1
 1636 1913 l 1,8,-1
 1761 1913 l 1,9,-1
 1815 0 l 1,10,-1
 1380 0 l 1,0,-1
EndSplineSet
EndChar

StartChar: O
Encoding: 79 79 45
Width: 2128
Flags: W
LayerCount: 2
Fore
SplineSet
1024 -25 m 2,0,1
 931 -25 931 -25 849.5 -10.5 c 128,-1,2
 768 4 768 4 696 35 c 0,3,4
 554 96 554 96 444 221 c 0,5,6
 330 355 330 355 268 512 c 0,7,8
 252 554 252 554 239 603 c 128,-1,9
 226 652 226 652 217 705 c 128,-1,10
 208 758 208 758 203.5 813.5 c 128,-1,11
 199 869 199 869 199 924 c 0,12,13
 199 981 199 981 204 1040 c 128,-1,14
 209 1099 209 1099 218.5 1155.5 c 128,-1,15
 228 1212 228 1212 241 1264 c 128,-1,16
 254 1316 254 1316 270 1360 c 0,17,18
 302 1447 302 1447 349.5 1524.5 c 128,-1,19
 397 1602 397 1602 457 1673 c 0,20,21
 567 1802 567 1802 719 1870 c 0,22,23
 791 1901 791 1901 876.5 1915 c 128,-1,24
 962 1929 962 1929 1059 1931 c 2,25,-1
 1065 1931 l 2,26,27
 1162 1929 1162 1929 1247.5 1915 c 128,-1,28
 1333 1901 1333 1901 1405 1870 c 0,29,30
 1556 1802 1556 1802 1667 1673 c 0,31,32
 1727 1602 1727 1602 1774 1524.5 c 128,-1,33
 1821 1447 1821 1447 1853 1360 c 0,34,35
 1869 1316 1869 1316 1882.5 1264 c 128,-1,36
 1896 1212 1896 1212 1905.5 1155.5 c 128,-1,37
 1915 1099 1915 1099 1920 1040 c 128,-1,38
 1925 981 1925 981 1925 924 c 0,39,40
 1925 869 1925 869 1920 813.5 c 128,-1,41
 1915 758 1915 758 1906 705 c 128,-1,42
 1897 652 1897 652 1884 603 c 128,-1,43
 1871 554 1871 554 1855 512 c 0,44,45
 1795 355 1795 355 1679 221 c 0,46,47
 1625 159 1625 159 1562.5 112.5 c 128,-1,48
 1500 66 1500 66 1427 35 c 0,49,50
 1356 4 1356 4 1274 -10.5 c 128,-1,51
 1192 -25 1192 -25 1098 -25 c 2,52,-1
 1024 -25 l 2,0,1
1055 1649 m 2,53,54
 1000 1649 1000 1649 947 1636.5 c 128,-1,55
 894 1624 894 1624 846.5 1600.5 c 128,-1,56
 799 1577 799 1577 758.5 1543 c 128,-1,57
 718 1509 718 1509 686 1466 c 0,58,59
 618 1375 618 1375 583.5 1259.5 c 128,-1,60
 549 1144 549 1144 549 1010 c 0,61,62
 549 860 549 860 576.5 744.5 c 128,-1,63
 604 629 604 629 659 541 c 0,64,65
 691 488 691 488 730 454 c 128,-1,66
 769 420 769 420 817 401 c 0,67,68
 865 381 865 381 921.5 373 c 128,-1,69
 978 365 978 365 1051 365 c 2,70,-1
 1073 365 l 2,71,72
 1145 365 1145 365 1202 373 c 128,-1,73
 1259 381 1259 381 1307 401 c 0,74,75
 1401 438 1401 438 1464 541 c 0,76,77
 1520 629 1520 629 1547.5 744.5 c 128,-1,78
 1575 860 1575 860 1575 1010 c 0,79,80
 1575 1144 1575 1144 1540.5 1259.5 c 128,-1,81
 1506 1375 1506 1375 1438 1466 c 0,82,83
 1407 1509 1407 1509 1366 1543 c 128,-1,84
 1325 1577 1325 1577 1277.5 1600.5 c 128,-1,85
 1230 1624 1230 1624 1177.5 1636.5 c 128,-1,86
 1125 1649 1125 1649 1069 1649 c 2,87,-1
 1055 1649 l 2,53,54
EndSplineSet
EndChar

StartChar: P
Encoding: 80 80 46
Width: 1729
Flags: W
LayerCount: 2
Fore
SplineSet
197 33 m 2,0,1
 197 34 197 34 199.5 79 c 128,-1,2
 202 124 202 124 206 196 c 128,-1,3
 210 268 210 268 215 359 c 128,-1,4
 220 450 220 450 225 544 c 128,-1,5
 230 638 230 638 234 726.5 c 128,-1,6
 238 815 238 815 240 881 c 0,7,8
 242 930 242 930 242.5 999 c 128,-1,9
 243 1068 243 1068 244 1147.5 c 128,-1,10
 245 1227 245 1227 245 1312 c 128,-1,11
 245 1397 245 1397 245 1478.5 c 128,-1,12
 245 1560 245 1560 245 1633.5 c 128,-1,13
 245 1707 245 1707 244.5 1762.5 c 128,-1,14
 244 1818 244 1818 244 1851.5 c 128,-1,15
 244 1885 244 1885 244 1886 c 2,16,-1
 244 1913 l 1,17,-1
 532 1913 l 1,18,-1
 539 1851 l 1,19,20
 574 1871 574 1871 607 1879.5 c 128,-1,21
 640 1888 640 1888 678 1896 c 0,22,23
 684 1898 684 1898 691.5 1899.5 c 128,-1,24
 699 1901 699 1901 707 1903 c 0,25,26
 725 1908 725 1908 749 1910 c 128,-1,27
 773 1912 773 1912 800 1912.5 c 128,-1,28
 827 1913 827 1913 855 1913 c 128,-1,29
 883 1913 883 1913 907 1913 c 2,30,-1
 958 1913 l 2,31,32
 1076 1913 1076 1913 1180 1872 c 128,-1,33
 1284 1831 1284 1831 1366 1749 c 0,34,35
 1450 1668 1450 1668 1493 1563.5 c 128,-1,36
 1536 1459 1536 1459 1536 1343 c 0,37,38
 1536 1229 1536 1229 1490.5 1126 c 128,-1,39
 1445 1023 1445 1023 1360 942 c 0,40,41
 1278 864 1278 864 1174 821 c 128,-1,42
 1070 778 1070 778 958 776 c 2,43,-1
 954 776 l 2,44,45
 942 776 942 776 929 775 c 128,-1,46
 916 774 916 774 903 774 c 0,47,48
 837 774 837 774 778.5 780 c 128,-1,49
 720 786 720 786 655 799 c 0,50,51
 627 804 627 804 607 809.5 c 128,-1,52
 587 815 587 815 571 821 c 1,53,-1
 598 0 l 1,54,-1
 195 0 l 1,55,-1
 197 33 l 2,0,1
559 1163 m 2,56,57
 559 1152 559 1152 565.5 1143.5 c 128,-1,58
 572 1135 572 1135 598 1122 c 0,59,60
 613 1116 613 1116 646 1113 c 128,-1,61
 679 1110 679 1110 717.5 1108.5 c 128,-1,62
 756 1107 756 1107 794.5 1106.5 c 128,-1,63
 833 1106 833 1106 860 1106 c 0,64,65
 874 1106 874 1106 886.5 1107 c 128,-1,66
 899 1108 899 1108 913 1108 c 2,67,-1
 969 1108 l 2,68,69
 1018 1108 1018 1108 1062.5 1129 c 128,-1,70
 1107 1150 1107 1150 1140.5 1186 c 128,-1,71
 1174 1222 1174 1222 1194 1269.5 c 128,-1,72
 1214 1317 1214 1317 1214 1370 c 0,73,74
 1214 1422 1214 1422 1194 1469 c 128,-1,75
 1174 1516 1174 1516 1140.5 1552 c 128,-1,76
 1107 1588 1107 1588 1062.5 1609 c 128,-1,77
 1018 1630 1018 1630 969 1630 c 0,78,79
 857 1630 857 1630 777.5 1628 c 128,-1,80
 698 1626 698 1626 653 1614 c 0,81,82
 643 1611 643 1611 626.5 1605 c 128,-1,83
 610 1599 610 1599 593.5 1589 c 128,-1,84
 577 1579 577 1579 564.5 1566 c 128,-1,85
 552 1553 552 1553 549 1536 c 2,86,-1
 559 1163 l 2,56,57
EndSplineSet
EndChar

StartChar: Q
Encoding: 81 81 47
Width: 2073
Flags: W
LayerCount: 2
Fore
SplineSet
950 -43 m 2,0,1
 864 -43 864 -43 789 -29 c 128,-1,2
 714 -15 714 -15 651 16 c 0,3,4
 517 78 517 78 422 205 c 0,5,6
 369 270 369 270 329.5 342.5 c 128,-1,7
 290 415 290 415 262 496 c 0,8,9
 247 537 247 537 236 585.5 c 128,-1,10
 225 634 225 634 217 687.5 c 128,-1,11
 209 741 209 741 205 796 c 128,-1,12
 201 851 201 851 201 905 c 0,13,14
 201 962 201 962 205.5 1021 c 128,-1,15
 210 1080 210 1080 218 1136.5 c 128,-1,16
 226 1193 226 1193 237.5 1245.5 c 128,-1,17
 249 1298 249 1298 264 1341 c 0,18,19
 293 1426 293 1426 335.5 1504 c 128,-1,20
 378 1582 378 1582 432 1653 c 0,21,22
 533 1783 533 1783 670 1849 c 0,23,24
 736 1881 736 1881 813.5 1896 c 128,-1,25
 891 1911 891 1911 979 1913 c 2,26,-1
 987 1913 l 2,27,28
 1075 1911 1075 1911 1152.5 1896 c 128,-1,29
 1230 1881 1230 1881 1296 1849 c 0,30,31
 1433 1783 1433 1783 1534 1653 c 0,32,33
 1588 1582 1588 1582 1630.5 1504 c 128,-1,34
 1673 1426 1673 1426 1702 1341 c 0,35,36
 1717 1298 1717 1298 1728.5 1245.5 c 128,-1,37
 1740 1193 1740 1193 1748 1136.5 c 128,-1,38
 1756 1080 1756 1080 1760.5 1021 c 128,-1,39
 1765 962 1765 962 1765 905 c 0,40,41
 1765 851 1765 851 1761 796 c 128,-1,42
 1757 741 1757 741 1749 687.5 c 128,-1,43
 1741 634 1741 634 1730 585.5 c 128,-1,44
 1719 537 1719 537 1704 496 c 0,45,46
 1688 453 1688 453 1671 416 c 1,47,-1
 1886 193 l 1,48,-1
 1886 0 l 1,49,-1
 1624 0 l 1,50,-1
 1493 145 l 1,51,52
 1414 63 1414 63 1315 16 c 0,53,54
 1252 -15 1252 -15 1177 -29 c 128,-1,55
 1102 -43 1102 -43 1016 -43 c 2,56,-1
 950 -43 l 2,0,1
977 1630 m 2,57,58
 878 1630 878 1630 791 1582 c 128,-1,59
 704 1534 704 1534 645 1446 c 0,60,61
 585 1355 585 1355 553.5 1240 c 128,-1,62
 522 1125 522 1125 522 991 c 0,63,64
 522 694 522 694 623 520 c 0,65,66
 652 469 652 469 686.5 435.5 c 128,-1,67
 721 402 721 402 764 383 c 0,68,69
 807 363 807 363 857.5 354.5 c 128,-1,70
 908 346 908 346 973 346 c 2,71,-1
 993 346 l 2,72,73
 1058 346 1058 346 1108.5 354.5 c 128,-1,74
 1159 363 1159 363 1202 383 c 0,75,76
 1216 388 1216 388 1228.5 395 c 128,-1,77
 1241 402 1241 402 1253 412 c 1,78,-1
 944 758 l 1,79,-1
 1145 967 l 1,80,-1
 1411 688 l 1,81,82
 1428 754 1428 754 1436 829.5 c 128,-1,83
 1444 905 1444 905 1444 991 c 0,84,85
 1444 1125 1444 1125 1412.5 1240 c 128,-1,86
 1381 1355 1381 1355 1321 1446 c 0,87,88
 1262 1534 1262 1534 1175 1582 c 128,-1,89
 1088 1630 1088 1630 989 1630 c 2,90,-1
 977 1630 l 2,57,58
EndSplineSet
EndChar

StartChar: R
Encoding: 82 82 48
Width: 1952
Flags: W
LayerCount: 2
Fore
SplineSet
1374 0 m 1,0,-1
 993 664 l 2,1,2
 987 675 987 675 974.5 694 c 128,-1,3
 962 713 962 713 941.5 731 c 128,-1,4
 921 749 921 749 891.5 762.5 c 128,-1,5
 862 776 862 776 821 776 c 2,6,-1
 571 776 l 1,7,-1
 594 0 l 1,8,-1
 199 0 l 1,9,-1
 252 1913 l 1,10,-1
 1065 1913 l 2,11,12
 1189 1913 1189 1913 1297 1870.5 c 128,-1,13
 1405 1828 1405 1828 1489 1747 c 0,14,15
 1569 1666 1569 1666 1612 1562.5 c 128,-1,16
 1655 1459 1655 1459 1655 1343 c 0,17,18
 1655 1251 1655 1251 1625 1165 c 128,-1,19
 1595 1079 1595 1079 1538 1004 c 0,20,21
 1489 939 1489 939 1424.5 890.5 c 128,-1,22
 1360 842 1360 842 1288 813 c 1,23,-1
 1755 162 l 1,24,-1
 1755 0 l 1,25,-1
 1374 0 l 1,0,-1
1083 1104 m 2,26,27
 1131 1104 1131 1104 1175.5 1126.5 c 128,-1,28
 1220 1149 1220 1149 1254 1187 c 128,-1,29
 1288 1225 1288 1225 1308.5 1274.5 c 128,-1,30
 1329 1324 1329 1324 1329 1378 c 0,31,32
 1329 1423 1329 1423 1314 1468 c 128,-1,33
 1299 1513 1299 1513 1269 1549 c 128,-1,34
 1239 1585 1239 1585 1192.5 1607.5 c 128,-1,35
 1146 1630 1146 1630 1083 1630 c 2,36,-1
 549 1630 l 1,37,-1
 563 1104 l 1,38,-1
 1083 1104 l 2,26,27
EndSplineSet
EndChar

StartChar: S
Encoding: 83 83 49
Width: 1886
Flags: W
LayerCount: 2
Fore
SplineSet
920 -25 m 0,0,1
 736 -25 736 -25 584 33 c 0,2,3
 518 58 518 58 463 93 c 128,-1,4
 408 128 408 128 365 176 c 0,5,6
 328 215 328 215 299.5 251.5 c 128,-1,7
 271 288 271 288 251 327.5 c 128,-1,8
 231 367 231 367 218 412 c 128,-1,9
 205 457 205 457 199 514 c 2,10,-1
 197 547 l 1,11,-1
 590 547 l 1,12,-1
 596 526 l 2,13,14
 601 509 601 509 607 500 c 128,-1,15
 613 491 613 491 621 481 c 0,16,17
 623 479 623 479 623 478 c 128,-1,18
 623 477 623 477 625 475 c 0,19,20
 643 451 643 451 667.5 430.5 c 128,-1,21
 692 410 692 410 728 395.5 c 128,-1,22
 764 381 764 381 815 373 c 128,-1,23
 866 365 866 365 936 365 c 0,24,25
 1016 365 1016 365 1087.5 385 c 128,-1,26
 1159 405 1159 405 1225 449 c 0,27,28
 1245 462 1245 462 1259 477.5 c 128,-1,29
 1273 493 1273 493 1282 513.5 c 128,-1,30
 1291 534 1291 534 1295.5 560.5 c 128,-1,31
 1300 587 1300 587 1300 621 c 0,32,33
 1302 653 1302 653 1296 673 c 128,-1,34
 1290 693 1290 693 1278 713 c 0,35,36
 1253 753 1253 753 1200 776 c 0,37,38
 1178 787 1178 787 1131.5 802 c 128,-1,39
 1085 817 1085 817 1026 836 c 0,40,41
 970 853 970 853 908.5 872.5 c 128,-1,42
 847 892 847 892 788 913 c 0,43,44
 731 934 731 934 687 951 c 128,-1,45
 643 968 643 968 605 984.5 c 128,-1,46
 567 1001 567 1001 530.5 1020.5 c 128,-1,47
 494 1040 494 1040 451 1065 c 0,48,49
 360 1118 360 1118 317 1200 c 0,50,51
 272 1283 272 1283 272 1397 c 0,52,53
 272 1462 272 1462 282 1517.5 c 128,-1,54
 292 1573 292 1573 313 1621 c 128,-1,55
 334 1669 334 1669 366 1711 c 128,-1,56
 398 1753 398 1753 442 1790 c 0,57,58
 487 1828 487 1828 536 1855 c 128,-1,59
 585 1882 585 1882 642.5 1899 c 128,-1,60
 700 1916 700 1916 768 1923.5 c 128,-1,61
 836 1931 836 1931 918 1931 c 0,62,63
 1017 1931 1017 1931 1094.5 1921 c 128,-1,64
 1172 1911 1172 1911 1235 1888 c 1,65,-1
 1237 1888 l 1,66,67
 1265 1879 1265 1879 1291.5 1869 c 128,-1,68
 1318 1859 1318 1859 1344.5 1844.5 c 128,-1,69
 1371 1830 1371 1830 1397 1809.5 c 128,-1,70
 1423 1789 1423 1789 1450 1759 c 0,71,72
 1506 1696 1506 1696 1537.5 1615.5 c 128,-1,73
 1569 1535 1569 1535 1569 1456 c 2,74,-1
 1569 1427 l 1,75,-1
 1251 1427 l 1,76,-1
 1251 1456 l 2,77,78
 1251 1465 1251 1465 1249 1479.5 c 128,-1,79
 1247 1494 1247 1494 1240.5 1511.5 c 128,-1,80
 1234 1529 1234 1529 1222 1547.5 c 128,-1,81
 1210 1566 1210 1566 1190 1583 c 0,82,83
 1176 1595 1176 1595 1155 1607 c 128,-1,84
 1134 1619 1134 1619 1100 1628.5 c 128,-1,85
 1066 1638 1066 1638 1016 1644.5 c 128,-1,86
 966 1651 966 1651 895 1651 c 0,87,88
 847 1651 847 1651 809.5 1643.5 c 128,-1,89
 772 1636 772 1636 742.5 1624 c 128,-1,90
 713 1612 713 1612 691 1597 c 128,-1,91
 669 1582 669 1582 651 1567 c 0,92,93
 620 1542 620 1542 608 1513 c 128,-1,94
 596 1484 596 1484 596 1436 c 0,95,96
 596 1407 596 1407 601 1394 c 128,-1,97
 606 1381 606 1381 618 1366 c 0,98,99
 632 1351 632 1351 650 1338.5 c 128,-1,100
 668 1326 668 1326 702 1311 c 0,101,102
 711 1307 711 1307 737 1298.5 c 128,-1,103
 763 1290 763 1290 798 1279 c 128,-1,104
 833 1268 833 1268 874 1255 c 128,-1,105
 915 1242 915 1242 955 1229.5 c 128,-1,106
 995 1217 995 1217 1030.5 1206 c 128,-1,107
 1066 1195 1066 1195 1090 1188 c 0,108,109
 1147 1172 1147 1172 1205 1154 c 128,-1,110
 1263 1136 1263 1136 1317.5 1116.5 c 128,-1,111
 1372 1097 1372 1097 1420 1076 c 128,-1,112
 1468 1055 1468 1055 1503 1032 c 0,113,114
 1547 1006 1547 1006 1582.5 963.5 c 128,-1,115
 1618 921 1618 921 1642 864 c 0,116,117
 1665 810 1665 810 1677.5 749 c 128,-1,118
 1690 688 1690 688 1690 623 c 2,119,-1
 1690 584 l 1,120,121
 1683 459 1683 459 1638 359.5 c 128,-1,122
 1593 260 1593 260 1505 176 c 0,123,124
 1459 133 1459 133 1397.5 97 c 128,-1,125
 1336 61 1336 61 1262 35 c 0,126,127
 1177 6 1177 6 1091 -9.5 c 128,-1,128
 1005 -25 1005 -25 920 -25 c 0,0,1
EndSplineSet
EndChar

StartChar: T
Encoding: 84 84 50
Width: 1661
Flags: W
LayerCount: 2
Fore
SplineSet
631 0 m 1,0,-1
 678 1632 l 1,1,-1
 74 1632 l 1,2,-1
 74 1913 l 1,3,-1
 1585 1913 l 1,4,-1
 1585 1632 l 1,5,-1
 981 1632 l 1,6,-1
 1026 0 l 1,7,-1
 631 0 l 1,0,-1
EndSplineSet
EndChar

StartChar: U
Encoding: 85 85 51
Width: 2007
Flags: W
LayerCount: 2
Fore
SplineSet
813 -43 m 0,0,1
 714 -43 714 -43 628.5 -27 c 128,-1,2
 543 -11 543 -11 471 25 c 0,3,4
 400 60 400 60 347 111 c 128,-1,5
 294 162 294 162 260 225 c 0,6,7
 239 264 239 264 227 308.5 c 128,-1,8
 215 353 215 353 208 401.5 c 128,-1,9
 201 450 201 450 199 500.5 c 128,-1,10
 197 551 197 551 197 602 c 1,11,-1
 197 602 l 1,12,13
 197 603 197 603 198 639 c 128,-1,14
 199 675 199 675 200.5 736.5 c 128,-1,15
 202 798 202 798 204.5 879.5 c 128,-1,16
 207 961 207 961 209.5 1053.5 c 128,-1,17
 212 1146 212 1146 214.5 1243.5 c 128,-1,18
 217 1341 217 1341 219.5 1434.5 c 128,-1,19
 222 1528 222 1528 224.5 1612 c 128,-1,20
 227 1696 227 1696 228.5 1760.5 c 128,-1,21
 230 1825 230 1825 231.5 1866 c 128,-1,22
 233 1907 233 1907 233 1913 c 1,23,-1
 522 1913 l 1,24,-1
 557 649 l 1,25,-1
 557 641 l 2,26,27
 557 624 557 624 557.5 599 c 128,-1,28
 558 574 558 574 562 547 c 128,-1,29
 566 520 566 520 573.5 494.5 c 128,-1,30
 581 469 581 469 596 451 c 0,31,32
 630 411 630 411 670 389 c 128,-1,33
 710 367 710 367 748.5 357 c 128,-1,34
 787 347 787 347 820 345.5 c 128,-1,35
 853 344 853 344 874 344 c 0,36,37
 937 344 937 344 1002.5 371.5 c 128,-1,38
 1068 399 1068 399 1133 453 c 0,39,40
 1190 499 1190 499 1233.5 563 c 128,-1,41
 1277 627 1277 627 1298 696 c 0,42,43
 1311 739 1311 739 1320.5 775 c 128,-1,44
 1330 811 1330 811 1336 850 c 128,-1,45
 1342 889 1342 889 1345 937 c 128,-1,46
 1348 985 1348 985 1348 1051 c 1,47,-1
 1348 1051 l 1,48,-1
 1372 1913 l 1,49,-1
 1661 1913 l 1,50,51
 1661 1905 1661 1905 1663 1845.5 c 128,-1,52
 1665 1786 1665 1786 1667.5 1693 c 128,-1,53
 1670 1600 1670 1600 1673 1482.5 c 128,-1,54
 1676 1365 1676 1365 1679.5 1241 c 128,-1,55
 1683 1117 1683 1117 1687 995 c 128,-1,56
 1691 873 1691 873 1694.5 771.5 c 128,-1,57
 1698 670 1698 670 1701 597.5 c 128,-1,58
 1704 525 1704 525 1706 500 c 0,59,60
 1710 467 1710 467 1718.5 419.5 c 128,-1,61
 1727 372 1727 372 1737.5 319.5 c 128,-1,62
 1748 267 1748 267 1760.5 214 c 128,-1,63
 1773 161 1773 161 1783.5 116.5 c 128,-1,64
 1794 72 1794 72 1802 40.5 c 128,-1,65
 1810 9 1810 9 1812 0 c 1,66,-1
 1493 0 l 1,67,-1
 1399 129 l 1,68,-1
 1397 293 l 1,69,70
 1363 230 1363 230 1319 177 c 128,-1,71
 1275 124 1275 124 1221 86 c 0,72,73
 1173 51 1173 51 1126 26.5 c 128,-1,74
 1079 2 1079 2 1029.5 -13.5 c 128,-1,75
 980 -29 980 -29 927 -36 c 128,-1,76
 874 -43 874 -43 813 -43 c 0,0,1
EndSplineSet
EndChar

StartChar: V
Encoding: 86 86 52
Width: 1937
Flags: W
LayerCount: 2
Fore
SplineSet
776 0 m 1,0,-1
 152 1913 l 1,1,-1
 442 1913 l 1,2,-1
 969 584 l 1,3,-1
 1493 1913 l 1,4,-1
 1786 1913 l 1,5,-1
 1161 0 l 1,6,-1
 776 0 l 1,0,-1
EndSplineSet
EndChar

StartChar: W
Encoding: 87 87 53
Width: 2732
Flags: W
LayerCount: 2
Fore
SplineSet
1651 0 m 1,0,-1
 1368 1022 l 1,1,-1
 1083 0 l 1,2,-1
 684 0 l 1,3,-1
 166 1913 l 1,4,-1
 504 1913 l 1,5,-1
 887 453 l 1,6,-1
 1196 1386 l 1,7,-1
 1538 1386 l 1,8,-1
 1847 453 l 1,9,-1
 2230 1913 l 1,10,-1
 2568 1913 l 1,11,-1
 2050 0 l 1,12,-1
 1651 0 l 1,0,-1
EndSplineSet
EndChar

StartChar: X
Encoding: 88 88 54
Width: 2064
Flags: W
LayerCount: 2
Fore
SplineSet
1432 0 m 1,0,-1
 1032 801 l 1,1,-1
 631 0 l 1,2,-1
 180 0 l 1,3,-1
 782 1061 l 1,4,-1
 266 1913 l 1,5,-1
 608 1913 l 1,6,-1
 1032 1309 l 1,7,-1
 1454 1913 l 1,8,-1
 1800 1913 l 1,9,-1
 1249 1061 l 1,10,-1
 1888 0 l 1,11,-1
 1432 0 l 1,0,-1
EndSplineSet
EndChar

StartChar: Y
Encoding: 89 89 55
Width: 1837
Flags: W
LayerCount: 2
Fore
SplineSet
657 0 m 1,0,-1
 778 817 l 1,1,-1
 141 1913 l 1,2,-1
 457 1913 l 1,3,-1
 958 1059 l 1,4,-1
 1364 1913 l 1,5,-1
 1696 1913 l 1,6,-1
 1118 815 l 1,7,8
 1114 755 1114 755 1108.5 687.5 c 128,-1,9
 1103 620 1103 620 1098 553 c 128,-1,10
 1093 486 1093 486 1088 424 c 128,-1,11
 1083 362 1083 362 1079 312.5 c 128,-1,12
 1075 263 1075 263 1073 231 c 128,-1,13
 1071 199 1071 199 1071 193 c 0,14,15
 1065 185 1065 185 1043.5 159 c 128,-1,16
 1022 133 1022 133 995.5 102.5 c 128,-1,17
 969 72 969 72 944 43 c 128,-1,18
 919 14 919 14 907 0 c 1,19,-1
 657 0 l 1,0,-1
EndSplineSet
EndChar

StartChar: Z
Encoding: 90 90 56
Width: 2095
Flags: W
LayerCount: 2
Fore
SplineSet
195 0 m 1,0,-1
 203 358 l 1,1,-1
 1296 1634 l 1,2,-1
 336 1634 l 1,3,-1
 336 1913 l 1,4,-1
 1720 1913 l 1,5,-1
 1720 1618 l 1,6,-1
 735 362 l 1,7,-1
 1765 362 l 1,8,-1
 1903 0 l 1,9,-1
 195 0 l 1,0,-1
EndSplineSet
EndChar

StartChar: question
Encoding: 63 63 57
Width: 1378
Flags: W
LayerCount: 2
Fore
SplineSet
483 565 m 1,0,-1
 483 596 l 2,1,2
 483 629 483 629 486 678 c 128,-1,3
 489 727 489 727 494 777.5 c 128,-1,4
 499 828 499 828 507.5 873 c 128,-1,5
 516 918 516 918 526 942 c 0,6,7
 535 963 535 963 554 995.5 c 128,-1,8
 573 1028 573 1028 599 1064 c 128,-1,9
 625 1100 625 1100 657 1136.5 c 128,-1,10
 689 1173 689 1173 723 1202 c 2,11,-1
 805 1274 l 2,12,13
 823 1289 823 1289 839 1304 c 128,-1,14
 855 1319 855 1319 872 1343 c 0,15,16
 881 1356 881 1356 889 1375 c 128,-1,17
 897 1394 897 1394 902 1414.5 c 128,-1,18
 907 1435 907 1435 910 1455.5 c 128,-1,19
 913 1476 913 1476 913 1493 c 0,20,21
 913 1517 913 1517 912 1536 c 128,-1,22
 911 1555 911 1555 907.5 1571.5 c 128,-1,23
 904 1588 904 1588 897 1602 c 128,-1,24
 890 1616 890 1616 877 1630 c 0,25,26
 851 1659 851 1659 793.5 1675.5 c 128,-1,27
 736 1692 736 1692 662 1692 c 0,28,29
 616 1692 616 1692 582.5 1688 c 128,-1,30
 549 1684 549 1684 524 1675 c 128,-1,31
 499 1666 499 1666 482 1651.5 c 128,-1,32
 465 1637 465 1637 451 1616 c 0,33,34
 443 1605 443 1605 436.5 1579 c 128,-1,35
 430 1553 430 1553 428 1499 c 2,36,-1
 428 1489 l 1,37,-1
 424 1464 l 1,38,-1
 168 1464 l 1,39,-1
 168 1493 l 2,40,41
 166 1516 166 1516 167.5 1551 c 128,-1,42
 169 1586 169 1586 178 1626 c 0,43,44
 189 1676 189 1676 210.5 1715.5 c 128,-1,45
 232 1755 232 1755 266 1786 c 0,46,47
 300 1820 300 1820 345 1844.5 c 128,-1,48
 390 1869 390 1869 442 1886 c 0,49,50
 492 1900 492 1900 548.5 1906.5 c 128,-1,51
 605 1913 605 1913 668 1913 c 0,52,53
 730 1913 730 1913 789.5 1905 c 128,-1,54
 849 1897 849 1897 902.5 1882 c 128,-1,55
 956 1867 956 1867 1000.5 1845.5 c 128,-1,56
 1045 1824 1045 1824 1077 1796 c 0,57,58
 1148 1737 1148 1737 1184.5 1660.5 c 128,-1,59
 1221 1584 1221 1584 1221 1491 c 0,60,61
 1221 1462 1221 1462 1219 1429.5 c 128,-1,62
 1217 1397 1217 1397 1211.5 1365 c 128,-1,63
 1206 1333 1206 1333 1195.5 1303 c 128,-1,64
 1185 1273 1185 1273 1167 1249 c 0,65,66
 1150 1226 1150 1226 1131 1205 c 128,-1,67
 1112 1184 1112 1184 1088.5 1161 c 128,-1,68
 1065 1138 1065 1138 1035 1112 c 128,-1,69
 1005 1086 1005 1086 967 1053 c 0,70,71
 945 1034 945 1034 927 1012.5 c 128,-1,72
 909 991 909 991 895 970 c 128,-1,73
 881 949 881 949 870.5 929 c 128,-1,74
 860 909 860 909 852 893 c 0,75,76
 850 888 850 888 848 885 c 128,-1,77
 846 882 846 882 844 877 c 0,78,79
 843 872 843 872 838 848.5 c 128,-1,80
 833 825 833 825 829 762 c 0,81,82
 826 719 826 719 825.5 675 c 128,-1,83
 825 631 825 631 825 600 c 2,84,-1
 825 565 l 1,85,-1
 483 565 l 1,0,-1
664 -43 m 0,86,87
 616 -43 616 -43 574.5 -25.5 c 128,-1,88
 533 -8 533 -8 502.5 22.5 c 128,-1,89
 472 53 472 53 454 94 c 128,-1,90
 436 135 436 135 436 182 c 256,91,92
 436 229 436 229 454 270.5 c 128,-1,93
 472 312 472 312 502.5 343 c 128,-1,94
 533 374 533 374 574.5 392 c 128,-1,95
 616 410 616 410 664 410 c 0,96,97
 711 410 711 410 751.5 392 c 128,-1,98
 792 374 792 374 823 343 c 128,-1,99
 854 312 854 312 871.5 270.5 c 128,-1,100
 889 229 889 229 889 182 c 256,101,102
 889 135 889 135 871.5 94 c 128,-1,103
 854 53 854 53 823 22.5 c 128,-1,104
 792 -8 792 -8 751.5 -25.5 c 128,-1,105
 711 -43 711 -43 664 -43 c 0,86,87
EndSplineSet
EndChar

StartChar: quotesinglbase
Encoding: 8218 8218 58
Width: 813
Flags: W
LayerCount: 2
Fore
SplineSet
408 365 m 256,0,1
 450 365 450 365 487 349 c 128,-1,2
 524 333 524 333 551 305.5 c 128,-1,3
 578 278 578 278 594 241 c 128,-1,4
 610 204 610 204 610 162 c 0,5,6
 610 40 610 40 605 -41.5 c 128,-1,7
 600 -123 600 -123 589 -177.5 c 128,-1,8
 578 -232 578 -232 561 -266 c 128,-1,9
 544 -300 544 -300 520 -328 c 0,10,11
 495 -358 495 -358 462 -378 c 128,-1,12
 429 -398 429 -398 399 -409 c 0,13,14
 364 -423 364 -423 328 -430 c 1,15,-1
 305 -299 l 1,16,17
 343 -288 343 -288 371 -269.5 c 128,-1,18
 399 -251 399 -251 424 -223 c 0,19,20
 436 -206 436 -206 444.5 -188 c 128,-1,21
 453 -170 453 -170 458 -147.5 c 128,-1,22
 463 -125 463 -125 465 -97 c 128,-1,23
 467 -69 467 -69 467 -31 c 1,24,25
 456 -37 456 -37 438 -39 c 128,-1,26
 420 -41 420 -41 408 -41 c 0,27,28
 366 -41 366 -41 329 -25 c 128,-1,29
 292 -9 292 -9 264.5 18.5 c 128,-1,30
 237 46 237 46 221 83 c 128,-1,31
 205 120 205 120 205 162 c 256,32,33
 205 204 205 204 221 241 c 128,-1,34
 237 278 237 278 264.5 305.5 c 128,-1,35
 292 333 292 333 329 349 c 128,-1,36
 366 365 366 365 408 365 c 256,0,1
EndSplineSet
EndChar

StartChar: comma
Encoding: 44 44 59
Width: 813
Flags: W
LayerCount: 2
Fore
SplineSet
408 365 m 256,0,1
 450 365 450 365 487 349 c 128,-1,2
 524 333 524 333 551 305.5 c 128,-1,3
 578 278 578 278 594 241 c 128,-1,4
 610 204 610 204 610 162 c 0,5,6
 610 40 610 40 605 -41.5 c 128,-1,7
 600 -123 600 -123 589 -177.5 c 128,-1,8
 578 -232 578 -232 561 -266 c 128,-1,9
 544 -300 544 -300 520 -328 c 0,10,11
 495 -358 495 -358 462 -378 c 128,-1,12
 429 -398 429 -398 399 -409 c 0,13,14
 364 -423 364 -423 328 -430 c 1,15,-1
 305 -299 l 1,16,17
 343 -288 343 -288 371 -269.5 c 128,-1,18
 399 -251 399 -251 424 -223 c 0,19,20
 436 -206 436 -206 444.5 -188 c 128,-1,21
 453 -170 453 -170 458 -147.5 c 128,-1,22
 463 -125 463 -125 465 -97 c 128,-1,23
 467 -69 467 -69 467 -31 c 1,24,25
 456 -37 456 -37 438 -39 c 128,-1,26
 420 -41 420 -41 408 -41 c 0,27,28
 366 -41 366 -41 329 -25 c 128,-1,29
 292 -9 292 -9 264.5 18.5 c 128,-1,30
 237 46 237 46 221 83 c 128,-1,31
 205 120 205 120 205 162 c 256,32,33
 205 204 205 204 221 241 c 128,-1,34
 237 278 237 278 264.5 305.5 c 128,-1,35
 292 333 292 333 329 349 c 128,-1,36
 366 365 366 365 408 365 c 256,0,1
EndSplineSet
EndChar

StartChar: period
Encoding: 46 46 60
Width: 817
Flags: W
LayerCount: 2
Fore
SplineSet
610 178 m 0,0,1
 610 137 610 137 594 100 c 128,-1,2
 578 63 578 63 551 35.5 c 128,-1,3
 524 8 524 8 487 -8.5 c 128,-1,4
 450 -25 450 -25 408 -25 c 256,5,6
 366 -25 366 -25 329 -8.5 c 128,-1,7
 292 8 292 8 264.5 35.5 c 128,-1,8
 237 63 237 63 221 100 c 128,-1,9
 205 137 205 137 205 178 c 0,10,11
 205 220 205 220 221 257.5 c 128,-1,12
 237 295 237 295 264.5 323 c 128,-1,13
 292 351 292 351 329 367 c 128,-1,14
 366 383 366 383 408 383 c 256,15,16
 450 383 450 383 487 367 c 128,-1,17
 524 351 524 351 551 323 c 128,-1,18
 578 295 578 295 594 257.5 c 128,-1,19
 610 220 610 220 610 178 c 0,0,1
EndSplineSet
EndChar

StartChar: parenleft
Encoding: 40 40 61
Width: 868
Flags: W
LayerCount: 2
Fore
SplineSet
457 -690 m 1,0,-1
 449 -674 l 1,1,2
 377 -521 377 -521 332 -424.5 c 128,-1,3
 287 -328 287 -328 270 -285 c 0,4,5
 267 -277 267 -277 264 -269.5 c 128,-1,6
 261 -262 261 -262 258 -254 c 0,7,8
 241 -214 241 -214 221.5 -164.5 c 128,-1,9
 202 -115 202 -115 186 -53 c 0,10,11
 159 46 159 46 134 152 c 128,-1,12
 109 258 109 258 98 373 c 0,13,14
 95 402 95 402 93 436 c 128,-1,15
 91 470 91 470 90 504.5 c 128,-1,16
 89 539 89 539 88.5 572.5 c 128,-1,17
 88 606 88 606 88 633 c 0,18,19
 88 741 88 741 96.5 834.5 c 128,-1,20
 105 928 105 928 119 1010 c 128,-1,21
 133 1092 133 1092 151.5 1165 c 128,-1,22
 170 1238 170 1238 190 1305 c 0,23,24
 218 1403 218 1403 282.5 1547.5 c 128,-1,25
 347 1692 347 1692 442 1894 c 2,26,-1
 451 1913 l 1,27,-1
 713 1913 l 1,28,-1
 698 1872 l 2,29,30
 625 1676 625 1676 582.5 1529 c 128,-1,31
 540 1382 540 1382 514 1278 c 0,32,33
 496 1203 496 1203 481.5 1129.5 c 128,-1,34
 467 1056 467 1056 456.5 979.5 c 128,-1,35
 446 903 446 903 440 822 c 128,-1,36
 434 741 434 741 434 649 c 0,37,38
 434 547 434 547 443.5 445.5 c 128,-1,39
 453 344 453 344 467.5 248.5 c 128,-1,40
 482 153 482 153 500.5 68 c 128,-1,41
 519 -17 519 -17 537 -86 c 0,42,43
 561 -185 561 -185 613.5 -327.5 c 128,-1,44
 666 -470 666 -470 735 -649 c 1,45,-1
 752 -690 l 1,46,-1
 457 -690 l 1,0,-1
EndSplineSet
EndChar

StartChar: parenright
Encoding: 41 41 62
Width: 889
Flags: W
LayerCount: 2
Fore
SplineSet
162 -690 m 1,0,-1
 178 -649 l 2,1,2
 249 -470 249 -470 301.5 -327.5 c 128,-1,3
 354 -185 354 -185 377 -86 c 0,4,5
 395 -17 395 -17 413 68 c 128,-1,6
 431 153 431 153 445.5 248.5 c 128,-1,7
 460 344 460 344 469.5 445.5 c 128,-1,8
 479 547 479 547 479 649 c 0,9,10
 479 741 479 741 473 822 c 128,-1,11
 467 903 467 903 456.5 979.5 c 128,-1,12
 446 1056 446 1056 431.5 1129.5 c 128,-1,13
 417 1203 417 1203 399 1278 c 0,14,15
 374 1382 374 1382 332 1529 c 128,-1,16
 290 1676 290 1676 215 1872 c 1,17,-1
 201 1913 l 1,18,-1
 465 1913 l 1,19,-1
 473 1894 l 1,20,21
 568 1692 568 1692 632 1547.5 c 128,-1,22
 696 1403 696 1403 725 1305 c 0,23,24
 745 1238 745 1238 763.5 1165 c 128,-1,25
 782 1092 782 1092 796 1010 c 128,-1,26
 810 928 810 928 818.5 834.5 c 128,-1,27
 827 741 827 741 827 633 c 0,28,29
 827 606 827 606 826.5 572.5 c 128,-1,30
 826 539 826 539 824.5 504.5 c 128,-1,31
 823 470 823 470 820.5 436 c 128,-1,32
 818 402 818 402 815 373 c 0,33,34
 804 258 804 258 780.5 152 c 128,-1,35
 757 46 757 46 729 -53 c 0,36,37
 712 -115 712 -115 692 -164.5 c 128,-1,38
 672 -214 672 -214 655 -254 c 0,39,40
 652 -262 652 -262 649 -269.5 c 128,-1,41
 646 -277 646 -277 643 -285 c 0,42,43
 626 -328 626 -328 581.5 -424.5 c 128,-1,44
 537 -521 537 -521 465 -674 c 1,45,-1
 457 -690 l 1,46,-1
 162 -690 l 1,0,-1
EndSplineSet
EndChar

StartChar: slash
Encoding: 47 47 63
Width: 1176
Flags: W
LayerCount: 2
Fore
SplineSet
94 -86 m 1,0,-1
 741 1913 l 1,1,-1
 1030 1913 l 1,2,-1
 465 -86 l 1,3,-1
 94 -86 l 1,0,-1
EndSplineSet
EndChar

StartChar: zero
Encoding: 48 48 64
Width: 1350
Flags: W
LayerCount: 2
Fore
SplineSet
1116 1159 m 0,0,1
 1148 1068 1148 1068 1165 961 c 128,-1,2
 1182 854 1182 854 1182 729 c 0,3,4
 1182 408 1182 408 1073 213 c 0,5,6
 940 -25 940 -25 666 -25 c 2,7,-1
 664 -25 l 2,8,9
 391 -25 391 -25 258 213 c 0,10,11
 150 407 150 407 150 729 c 0,12,13
 150 854 150 854 165.5 961 c 128,-1,14
 181 1068 181 1068 213 1159 c 0,15,16
 275 1330 275 1330 387 1416.5 c 128,-1,17
 499 1503 499 1503 662 1503 c 0,18,19
 743 1503 743 1503 813 1481.5 c 128,-1,20
 883 1460 883 1460 940 1415 c 0,21,22
 1054 1329 1054 1329 1116 1159 c 0,0,1
852 444 m 0,23,24
 889 514 889 514 908.5 605.5 c 128,-1,25
 928 697 928 697 928 793 c 0,26,27
 928 864 928 864 926.5 912.5 c 128,-1,28
 925 961 925 961 920 998 c 128,-1,29
 915 1035 915 1035 905.5 1066.5 c 128,-1,30
 896 1098 896 1098 881 1135 c 0,31,32
 868 1168 868 1168 846 1194.5 c 128,-1,33
 824 1221 824 1221 795.5 1240 c 128,-1,34
 767 1259 767 1259 734 1269 c 128,-1,35
 701 1279 701 1279 666 1280 c 0,36,37
 593 1278 593 1278 534.5 1239.5 c 128,-1,38
 476 1201 476 1201 449 1135 c 0,39,40
 434 1098 434 1098 425 1066.5 c 128,-1,41
 416 1035 416 1035 410.5 998 c 128,-1,42
 405 961 405 961 403 912.5 c 128,-1,43
 401 864 401 864 401 793 c 0,44,45
 401 697 401 697 421.5 605.5 c 128,-1,46
 442 514 442 514 477 444 c 0,47,48
 509 384 509 384 552.5 357 c 128,-1,49
 596 330 596 330 662 330 c 2,50,-1
 668 330 l 2,51,52
 734 330 734 330 777.5 357 c 128,-1,53
 821 384 821 384 852 444 c 0,23,24
EndSplineSet
EndChar

StartChar: one
Encoding: 49 49 65
Width: 1350
Flags: W
LayerCount: 2
Fore
SplineSet
560 0 m 1,0,-1
 619 1073 l 1,1,-1
 287 1073 l 1,2,-1
 287 1276 l 1,3,-1
 314 1280 l 1,4,5
 405 1288 405 1288 474 1303.5 c 128,-1,6
 543 1319 543 1319 580 1339 c 1,7,-1
 582 1339 l 1,8,9
 600 1349 600 1349 613.5 1357 c 128,-1,10
 627 1365 627 1365 637 1376.5 c 128,-1,11
 647 1388 647 1388 655 1406 c 128,-1,12
 663 1424 663 1424 670 1454 c 2,13,-1
 676 1477 l 1,14,-1
 869 1477 l 1,15,-1
 928 0 l 1,16,-1
 560 0 l 1,0,-1
EndSplineSet
EndChar

StartChar: two
Encoding: 50 50 66
Width: 1350
Flags: W
LayerCount: 2
Fore
SplineSet
149 0 m 1,0,-1
 151 31 l 2,1,2
 151 39 151 39 151 46 c 128,-1,3
 151 53 151 53 153 61 c 0,4,5
 158 146 158 146 166.5 220 c 128,-1,6
 175 294 175 294 207 360 c 0,7,8
 225 396 225 396 253.5 434 c 128,-1,9
 282 472 282 472 319.5 508.5 c 128,-1,10
 357 545 357 545 402 579.5 c 128,-1,11
 447 614 447 614 497 643 c 2,12,-1
 688 752 l 2,13,14
 750 789 750 789 792.5 819.5 c 128,-1,15
 835 850 835 850 860 874 c 0,16,17
 878 893 878 893 889.5 911 c 128,-1,18
 901 929 901 929 907 948 c 128,-1,19
 913 967 913 967 915 987.5 c 128,-1,20
 917 1008 917 1008 917 1032 c 0,21,22
 917 1063 917 1063 916 1085 c 128,-1,23
 915 1107 915 1107 911 1124 c 128,-1,24
 907 1141 907 1141 898 1155 c 128,-1,25
 889 1169 889 1169 874 1184 c 0,26,27
 840 1218 840 1218 791 1236.5 c 128,-1,28
 742 1255 742 1255 688 1255 c 0,29,30
 648 1255 648 1255 618.5 1249.5 c 128,-1,31
 589 1244 589 1244 567.5 1235.5 c 128,-1,32
 546 1227 546 1227 532 1216.5 c 128,-1,33
 518 1206 518 1206 508 1196 c 0,34,35
 494 1182 494 1182 481 1154.5 c 128,-1,36
 468 1127 468 1127 463 1096 c 2,37,-1
 459 1071 l 1,38,-1
 217 1071 l 1,39,-1
 223 1104 l 2,40,41
 224 1109 224 1109 227.5 1128.5 c 128,-1,42
 231 1148 231 1148 235.5 1172 c 128,-1,43
 240 1196 240 1196 245.5 1219.5 c 128,-1,44
 251 1243 251 1243 256 1255 c 0,45,46
 301 1362 301 1362 397 1417 c 0,47,48
 453 1448 453 1448 525.5 1463.5 c 128,-1,49
 598 1479 598 1479 692 1479 c 0,50,51
 949 1479 949 1479 1069 1337 c 0,52,53
 1128 1268 1128 1268 1158 1190.5 c 128,-1,54
 1188 1113 1188 1113 1188 1026 c 0,55,56
 1188 932 1188 932 1156 853.5 c 128,-1,57
 1124 775 1124 775 1059 715 c 0,58,59
 1033 690 1033 690 1009 669 c 128,-1,60
 985 648 985 648 962 629 c 128,-1,61
 939 610 939 610 916 592.5 c 128,-1,62
 893 575 893 575 868 557 c 0,63,64
 859 549 859 549 848.5 541.5 c 128,-1,65
 838 534 838 534 827 526 c 1,66,-1
 827 526 l 1,67,68
 827 526 827 526 813.5 516 c 128,-1,69
 800 506 800 506 779.5 490.5 c 128,-1,70
 759 475 759 475 734 457 c 128,-1,71
 709 439 709 439 686 421.5 c 128,-1,72
 663 404 663 404 644 389 c 128,-1,73
 625 374 625 374 616 367 c 0,74,75
 596 350 596 350 586 335 c 128,-1,76
 576 320 576 320 571 307 c 1,77,-1
 1181 307 l 1,78,-1
 1181 0 l 1,79,-1
 149 0 l 1,0,-1
EndSplineSet
EndChar

StartChar: three
Encoding: 51 51 67
Width: 1350
Flags: W
LayerCount: 2
Fore
SplineSet
633 -25 m 0,0,1
 568 -25 568 -25 512 -16.5 c 128,-1,2
 456 -8 456 -8 408 12 c 0,3,4
 311 49 311 49 246 123 c 0,5,6
 221 154 221 154 202.5 184.5 c 128,-1,7
 184 215 184 215 171.5 248 c 128,-1,8
 159 281 159 281 152.5 319 c 128,-1,9
 146 357 146 357 143 403 c 2,10,-1
 143 434 l 1,11,-1
 430 434 l 1,12,-1
 438 418 l 2,13,14
 441 413 441 413 447 405 c 0,15,16
 452 398 452 398 458.5 387.5 c 128,-1,17
 465 377 465 377 475 362 c 0,18,19
 479 356 479 356 488.5 350 c 128,-1,20
 498 344 498 344 517.5 339 c 128,-1,21
 537 334 537 334 567.5 331 c 128,-1,22
 598 328 598 328 643 328 c 2,23,-1
 662 328 l 2,24,25
 688 328 688 328 715 328.5 c 128,-1,26
 742 329 742 329 766 332 c 128,-1,27
 790 335 790 335 809.5 341.5 c 128,-1,28
 829 348 829 348 840 360 c 0,29,30
 857 378 857 378 866.5 394 c 128,-1,31
 876 410 876 410 881 428 c 128,-1,32
 886 446 886 446 887.5 468 c 128,-1,33
 889 490 889 490 889 520 c 0,34,35
 889 554 889 554 885.5 574.5 c 128,-1,36
 882 595 882 595 874.5 608 c 128,-1,37
 867 621 867 621 855 630.5 c 128,-1,38
 843 640 843 640 825 651 c 0,39,40
 805 664 805 664 784.5 673 c 128,-1,41
 764 682 764 682 739.5 687.5 c 128,-1,42
 715 693 715 693 685 695.5 c 128,-1,43
 655 698 655 698 616 698 c 2,44,-1
 582 698 l 2,45,46
 572 698 572 698 563 697 c 128,-1,47
 554 696 554 696 545 696 c 2,48,-1
 514 694 l 1,49,-1
 514 918 l 1,50,-1
 547 913 l 2,51,52
 559 913 559 913 571 912 c 128,-1,53
 583 911 583 911 592 911 c 0,54,55
 601 909 601 909 610.5 909 c 128,-1,56
 620 909 620 909 631 909 c 0,57,58
 677 909 677 909 715 916.5 c 128,-1,59
 753 924 753 924 782 938 c 0,60,61
 806 950 806 950 824 963 c 128,-1,62
 842 976 842 976 854.5 992.5 c 128,-1,63
 867 1009 867 1009 873 1032 c 128,-1,64
 879 1055 879 1055 879 1087 c 0,65,66
 879 1146 879 1146 867 1178.5 c 128,-1,67
 855 1211 855 1211 829 1231 c 0,68,69
 812 1243 812 1243 789.5 1252.5 c 128,-1,70
 767 1262 767 1262 742.5 1268 c 128,-1,71
 718 1274 718 1274 692 1277 c 128,-1,72
 666 1280 666 1280 643 1280 c 0,73,74
 584 1280 584 1280 542 1260.5 c 128,-1,75
 500 1241 500 1241 477 1204 c 0,76,77
 472 1195 472 1195 469 1184 c 128,-1,78
 466 1173 466 1173 464.5 1162.5 c 128,-1,79
 463 1152 463 1152 463 1143 c 128,-1,80
 463 1134 463 1134 463 1130 c 2,81,-1
 465 1098 l 1,82,-1
 199 1098 l 1,83,84
 198 1106 198 1106 198 1111.5 c 128,-1,85
 198 1117 198 1117 198 1122 c 128,-1,86
 198 1127 198 1127 198.5 1132.5 c 128,-1,87
 199 1138 199 1138 199 1147 c 0,88,89
 199 1153 199 1153 200 1164 c 128,-1,90
 201 1175 201 1175 203 1188 c 0,91,92
 212 1257 212 1257 229 1288 c 0,93,94
 257 1341 257 1341 298 1380.5 c 128,-1,95
 339 1420 339 1420 391 1448 c 0,96,97
 442 1476 442 1476 504 1489.5 c 128,-1,98
 566 1503 566 1503 637 1503 c 0,99,100
 864 1503 864 1503 991 1399 c 0,101,102
 1056 1346 1056 1346 1089 1270.5 c 128,-1,103
 1122 1195 1122 1195 1122 1096 c 0,104,105
 1122 1058 1122 1058 1116.5 1028.5 c 128,-1,106
 1111 999 1111 999 1101 974.5 c 128,-1,107
 1091 950 1091 950 1076.5 929 c 128,-1,108
 1062 908 1062 908 1044 887 c 0,109,110
 1030 870 1030 870 1015 856 c 128,-1,111
 1000 842 1000 842 981 829 c 1,112,113
 1060 792 1060 792 1108 723 c 0,114,115
 1143 672 1143 672 1159.5 620 c 128,-1,116
 1176 568 1176 568 1176 502 c 0,117,118
 1176 443 1176 443 1168.5 389 c 128,-1,119
 1161 335 1161 335 1147 287 c 0,120,121
 1112 171 1112 171 1044 106 c 0,122,123
 972 37 972 37 866 6 c 0,124,125
 815 -11 815 -11 757 -18 c 128,-1,126
 699 -25 699 -25 633 -25 c 0,0,1
EndSplineSet
EndChar

StartChar: four
Encoding: 52 52 68
Width: 1350
Flags: W
LayerCount: 2
Fore
SplineSet
702 0 m 1,0,-1
 729 244 l 1,1,-1
 145 244 l 1,2,-1
 145 535 l 1,3,-1
 807 1477 l 1,4,-1
 1001 1477 l 1,5,-1
 1016 537 l 1,6,-1
 1210 537 l 1,7,-1
 1210 244 l 1,8,-1
 1034 244 l 1,9,-1
 1061 0 l 1,10,-1
 702 0 l 1,0,-1
745 537 m 1,11,-1
 788 1139 l 1,12,-1
 393 537 l 1,13,-1
 745 537 l 1,11,-1
EndSplineSet
EndChar

StartChar: five
Encoding: 53 53 69
Width: 1350
Flags: W
LayerCount: 2
Fore
SplineSet
621 -25 m 0,0,1
 431 -25 431 -25 287 86 c 0,2,3
 215 140 215 140 172 233 c 0,4,5
 153 275 153 275 142.5 321.5 c 128,-1,6
 132 368 132 368 127 416 c 2,7,-1
 125 449 l 1,8,-1
 426 449 l 1,9,-1
 426 418 l 2,10,11
 426 400 426 400 444.5 387 c 128,-1,12
 463 374 463 374 483 366 c 0,13,14
 496 360 496 360 509 355.5 c 128,-1,15
 522 351 522 351 539.5 347.5 c 128,-1,16
 557 344 557 344 581.5 342 c 128,-1,17
 606 340 606 340 641 340 c 0,18,19
 718 340 718 340 766 360.5 c 128,-1,20
 814 381 814 381 848 426 c 0,21,22
 866 451 866 451 877 472.5 c 128,-1,23
 888 494 888 494 893 515.5 c 128,-1,24
 898 537 898 537 899.5 561.5 c 128,-1,25
 901 586 901 586 901 616 c 0,26,27
 901 654 901 654 897.5 683.5 c 128,-1,28
 894 713 894 713 885.5 737 c 128,-1,29
 877 761 877 761 863 781 c 128,-1,30
 849 801 849 801 829 819 c 0,31,32
 789 857 789 857 746.5 873 c 128,-1,33
 704 889 704 889 641 889 c 0,34,35
 618 889 618 889 601 887.5 c 128,-1,36
 584 886 584 886 570 883 c 128,-1,37
 556 880 556 880 543.5 875 c 128,-1,38
 531 870 531 870 516 862 c 0,39,40
 484 844 484 844 455.5 825 c 128,-1,41
 427 806 427 806 410 786 c 2,42,-1
 399 776 l 1,43,-1
 174 776 l 1,44,-1
 178 1503 l 1,45,-1
 1104 1503 l 1,46,-1
 1104 1272 l 1,47,-1
 422 1272 l 1,48,-1
 422 1053 l 1,49,50
 436 1062 436 1062 448.5 1068.5 c 128,-1,51
 461 1075 461 1075 475 1081 c 0,52,53
 518 1100 518 1100 568.5 1109 c 128,-1,54
 619 1118 619 1118 676 1118 c 0,55,56
 889 1118 889 1118 1036 977 c 0,57,58
 1186 835 1186 835 1186 616 c 0,59,60
 1186 542 1186 542 1178 478 c 128,-1,61
 1170 414 1170 414 1154 358.5 c 128,-1,62
 1138 303 1138 303 1113.5 254.5 c 128,-1,63
 1089 206 1089 206 1055 162 c 0,64,65
 985 73 985 73 874 25 c 0,66,67
 763 -25 763 -25 621 -25 c 0,0,1
EndSplineSet
EndChar

StartChar: six
Encoding: 54 54 70
Width: 1350
Flags: W
LayerCount: 2
Fore
SplineSet
662 -25 m 1,0,1
 555 -25 555 -25 463.5 16 c 128,-1,2
 372 57 372 57 295 137 c 256,3,4
 218 217 218 217 180 354 c 0,5,6
 162 419 162 419 152.5 498 c 128,-1,7
 143 577 143 577 143 670 c 0,8,9
 143 806 143 806 159 921 c 128,-1,10
 175 1036 175 1036 209 1130 c 0,11,12
 274 1319 274 1319 395 1411 c 128,-1,13
 516 1503 516 1503 690 1503 c 0,14,15
 751 1503 751 1503 798.5 1496 c 128,-1,16
 846 1489 846 1489 886 1475 c 128,-1,17
 926 1461 926 1461 960 1440.5 c 128,-1,18
 994 1420 994 1420 1028 1393 c 0,19,20
 1041 1383 1041 1383 1058.5 1359.5 c 128,-1,21
 1076 1336 1076 1336 1091 1306.5 c 128,-1,22
 1106 1277 1106 1277 1116.5 1245 c 128,-1,23
 1127 1213 1127 1213 1126 1184 c 2,24,-1
 1126 1155 l 1,25,-1
 897 1155 l 1,26,-1
 891 1180 l 2,27,28
 888 1197 888 1197 882 1210 c 128,-1,29
 876 1223 876 1223 854 1241 c 0,30,31
 831 1263 831 1263 791.5 1274.5 c 128,-1,32
 752 1286 752 1286 702 1286 c 2,33,-1
 696 1286 l 2,34,35
 650 1285 650 1285 616 1280 c 128,-1,36
 582 1275 582 1275 556.5 1263 c 128,-1,37
 531 1251 531 1251 510.5 1231 c 128,-1,38
 490 1211 490 1211 471 1182 c 0,39,40
 440 1132 440 1132 420 1055 c 128,-1,41
 400 978 400 978 391 868 c 1,42,43
 414 891 414 891 441.5 910.5 c 128,-1,44
 469 930 469 930 498 944 c 1,45,-1
 500 944 l 1,46,47
 545 966 545 966 596 976.5 c 128,-1,48
 647 987 647 987 702 987 c 0,49,50
 796 987 796 987 879.5 956.5 c 128,-1,51
 963 926 963 926 1032 864 c 0,52,53
 1176 741 1176 741 1176 500 c 0,54,55
 1176 398 1176 398 1143.5 307 c 128,-1,56
 1111 216 1111 216 1044 137 c 0,57,58
 976 57 976 57 880.5 16 c 128,-1,59
 785 -25 785 -25 662 -25 c 1,60,-1
 662 -25 l 1,0,1
668 764 m 1,61,62
 611 764 611 764 568 748 c 128,-1,63
 525 732 525 732 487 700 c 0,64,65
 469 684 469 684 456 668 c 128,-1,66
 443 652 443 652 433.5 632 c 128,-1,67
 424 612 424 612 419 585 c 128,-1,68
 414 558 414 558 412 520 c 0,69,70
 411 497 411 497 411.5 480 c 128,-1,71
 412 463 412 463 415 449 c 128,-1,72
 418 435 418 435 425 422.5 c 128,-1,73
 432 410 432 410 442 397 c 0,74,75
 476 356 476 356 529 344 c 128,-1,76
 582 332 582 332 664 332 c 0,77,78
 847 332 847 332 895 395 c 0,79,80
 910 416 910 416 918.5 430 c 128,-1,81
 927 444 927 444 931 458.5 c 128,-1,82
 935 473 935 473 935.5 491.5 c 128,-1,83
 936 510 936 510 936 541 c 2,84,-1
 936 545 l 2,85,86
 936 595 936 595 923 628 c 128,-1,87
 910 661 910 661 887 692 c 0,88,89
 859 729 859 729 806 746.5 c 128,-1,90
 753 764 753 764 668 764 c 1,91,-1
 668 764 l 1,61,62
EndSplineSet
EndChar

StartChar: seven
Encoding: 55 55 71
Width: 1350
Flags: W
LayerCount: 2
Fore
SplineSet
321 0 m 1,0,-1
 328 35 l 2,1,2
 343 130 343 130 370 227.5 c 128,-1,3
 397 325 397 325 437.5 428.5 c 128,-1,4
 478 532 478 532 532 644.5 c 128,-1,5
 586 757 586 757 655 881 c 0,6,7
 706 968 706 968 759 1038.5 c 128,-1,8
 812 1109 812 1109 864 1176 c 0,9,10
 878 1193 878 1193 891.5 1210 c 128,-1,11
 905 1227 905 1227 919 1245 c 1,12,-1
 139 1245 l 1,13,-1
 139 1477 l 1,14,-1
 1212 1477 l 1,15,-1
 1212 1225 l 1,16,-1
 1202 1217 l 2,17,18
 1181 1201 1181 1201 1160.5 1184.5 c 128,-1,19
 1140 1168 1140 1168 1119 1146.5 c 128,-1,20
 1098 1125 1098 1125 1074.5 1095.5 c 128,-1,21
 1051 1066 1051 1066 1022 1024 c 0,22,23
 991 979 991 979 966 939 c 128,-1,24
 941 899 941 899 918.5 859.5 c 128,-1,25
 896 820 896 820 875.5 779.5 c 128,-1,26
 855 739 855 739 833 692 c 0,27,28
 816 657 816 657 801.5 611.5 c 128,-1,29
 787 566 787 566 775.5 519.5 c 128,-1,30
 764 473 764 473 756 430.5 c 128,-1,31
 748 388 748 388 745 358 c 0,32,33
 742 341 742 341 740 321.5 c 128,-1,34
 738 302 738 302 735 281 c 0,35,36
 727 230 727 230 719 168.5 c 128,-1,37
 711 107 711 107 704 27 c 2,38,-1
 702 0 l 1,39,-1
 321 0 l 1,0,-1
EndSplineSet
EndChar

StartChar: eight
Encoding: 56 56 72
Width: 1350
Flags: W
LayerCount: 2
Fore
SplineSet
668 -25 m 0,0,1
 448 -25 448 -25 299 94 c 0,2,3
 222 154 222 154 182.5 242.5 c 128,-1,4
 143 331 143 331 143 446 c 0,5,6
 143 580 143 580 211 680 c 0,7,8
 261 757 261 757 350 807 c 1,9,10
 306 832 306 832 281 860 c 0,11,12
 237 904 237 904 216 961 c 128,-1,13
 195 1018 195 1018 195 1087 c 0,14,15
 195 1258 195 1258 317 1382 c 0,16,17
 379 1444 379 1444 465.5 1473.5 c 128,-1,18
 552 1503 552 1503 664 1503 c 0,19,20
 879 1503 879 1503 1004 1391 c 0,21,22
 1065 1332 1065 1332 1096.5 1263.5 c 128,-1,23
 1128 1195 1128 1195 1128 1116 c 0,24,25
 1128 1044 1128 1044 1110 985 c 128,-1,26
 1092 926 1092 926 1055 881 c 0,27,28
 1039 862 1039 862 1019.5 845 c 128,-1,29
 1000 828 1000 828 975 811 c 1,30,31
 1006 792 1006 792 1030.5 773.5 c 128,-1,32
 1055 755 1055 755 1075 735 c 0,33,34
 1178 624 1178 624 1178 455 c 0,35,36
 1178 254 1178 254 1044 115 c 0,37,38
 976 46 976 46 882 10.5 c 128,-1,39
 788 -25 788 -25 668 -25 c 0,0,1
657 711 m 0,40,41
 541 711 541 711 469 645 c 0,42,43
 451 628 451 628 437.5 614.5 c 128,-1,44
 424 601 424 601 415 586 c 128,-1,45
 406 571 406 571 401.5 552 c 128,-1,46
 397 533 397 533 397 504 c 0,47,48
 398 484 398 484 400.5 469 c 128,-1,49
 403 454 403 454 408 441.5 c 128,-1,50
 413 429 413 429 420.5 417.5 c 128,-1,51
 428 406 428 406 438 393 c 0,52,53
 451 377 451 377 466.5 366 c 128,-1,54
 482 355 482 355 505 348.5 c 128,-1,55
 528 342 528 342 560.5 339 c 128,-1,56
 593 336 593 336 641 336 c 2,57,-1
 670 336 l 2,58,59
 701 336 701 336 734.5 341 c 128,-1,60
 768 346 768 346 798.5 354.5 c 128,-1,61
 829 363 829 363 852.5 374.5 c 128,-1,62
 876 386 876 386 887 399 c 0,63,64
 901 416 901 416 909 428 c 128,-1,65
 917 440 917 440 921.5 450.5 c 128,-1,66
 926 461 926 461 927 472 c 128,-1,67
 928 483 928 483 928 498 c 0,68,69
 928 529 928 529 923.5 550 c 128,-1,70
 919 571 919 571 910 587 c 128,-1,71
 901 603 901 603 887 617 c 128,-1,72
 873 631 873 631 854 647 c 0,73,74
 817 679 817 679 767 695 c 128,-1,75
 717 711 717 711 657 711 c 0,40,41
659 1282 m 0,76,77
 598 1282 598 1282 550.5 1267.5 c 128,-1,78
 503 1253 503 1253 481 1227 c 0,79,80
 460 1201 460 1201 450 1169.5 c 128,-1,81
 440 1138 440 1138 440 1092 c 0,82,83
 440 1072 440 1072 443.5 1057 c 128,-1,84
 447 1042 447 1042 454.5 1029.5 c 128,-1,85
 462 1017 462 1017 473.5 1005.5 c 128,-1,86
 485 994 485 994 502 981 c 0,87,88
 568 930 568 930 659 930 c 0,89,90
 712 930 712 930 752 944.5 c 128,-1,91
 792 959 792 959 821 987 c 0,92,93
 837 1004 837 1004 848 1017.5 c 128,-1,94
 859 1031 859 1031 866 1044 c 128,-1,95
 873 1057 873 1057 876 1070.5 c 128,-1,96
 879 1084 879 1084 879 1102 c 0,97,98
 879 1142 879 1142 871.5 1171.5 c 128,-1,99
 864 1201 864 1201 840 1227 c 0,100,101
 815 1255 815 1255 768.5 1268.5 c 128,-1,102
 722 1282 722 1282 659 1282 c 0,76,77
EndSplineSet
EndChar

StartChar: nine
Encoding: 57 57 73
Width: 1350
Flags: W
LayerCount: 2
Fore
SplineSet
630 -25 m 0,0,1
 411 -25 411 -25 292 94 c 0,2,3
 238 150 238 150 209 229.5 c 128,-1,4
 180 309 180 309 180 403 c 2,5,-1
 180 432 l 1,6,-1
 432 432 l 1,7,8
 444 403 444 403 450.5 385.5 c 128,-1,9
 457 368 457 368 471 358 c 0,10,11
 486 347 486 347 522.5 341.5 c 128,-1,12
 559 336 559 336 606 336 c 0,13,14
 617 336 617 336 626.5 335 c 128,-1,15
 636 334 636 334 647 334 c 2,16,-1
 690 334 l 2,17,18
 730 334 730 334 767.5 342 c 128,-1,19
 805 350 805 350 831 379 c 0,20,21
 849 400 849 400 863 425 c 128,-1,22
 877 450 877 450 888 482 c 128,-1,23
 899 514 899 514 908.5 554.5 c 128,-1,24
 918 595 918 595 925 647 c 1,25,26
 908 633 908 633 888 621 c 128,-1,27
 868 609 868 609 845 598 c 0,28,29
 796 576 796 576 740.5 571.5 c 128,-1,30
 685 567 685 567 632 567 c 0,31,32
 578 567 578 567 526 575.5 c 128,-1,33
 474 584 474 584 428 599 c 128,-1,34
 382 614 382 614 345.5 635.5 c 128,-1,35
 309 657 309 657 286 682 c 0,36,37
 161 822 161 822 161 1028 c 0,38,39
 161 1080 161 1080 168.5 1122 c 128,-1,40
 176 1164 176 1164 191.5 1201.5 c 128,-1,41
 207 1239 207 1239 230 1274 c 128,-1,42
 253 1309 253 1309 284 1348 c 0,43,44
 347 1426 347 1426 440 1464.5 c 128,-1,45
 533 1503 533 1503 655 1503 c 0,46,47
 819 1503 819 1503 933 1429.5 c 128,-1,48
 1047 1356 1047 1356 1110 1206 c 0,49,50
 1144 1125 1144 1125 1151.5 1026 c 128,-1,51
 1159 927 1159 927 1159 807 c 0,52,53
 1159 734 1159 734 1156.5 669.5 c 128,-1,54
 1154 605 1154 605 1147 546.5 c 128,-1,55
 1140 488 1140 488 1128 435 c 128,-1,56
 1116 382 1116 382 1097 332 c 0,57,58
 1028 154 1028 154 911.5 64.5 c 128,-1,59
 795 -25 795 -25 630 -25 c 0,0,1
659 1282 m 0,60,61
 602 1282 602 1282 547.5 1259 c 128,-1,62
 493 1236 493 1236 458 1194 c 0,63,64
 442 1176 442 1176 431.5 1157.5 c 128,-1,65
 421 1139 421 1139 414.5 1116.5 c 128,-1,66
 408 1094 408 1094 405.5 1066 c 128,-1,67
 403 1038 403 1038 403 1001 c 2,68,-1
 403 999 l 2,69,70
 403 985 403 985 403.5 973 c 128,-1,71
 404 961 404 961 407.5 948.5 c 128,-1,72
 411 936 411 936 418.5 922.5 c 128,-1,73
 426 909 426 909 440 891 c 0,74,75
 468 859 468 859 522 841 c 128,-1,76
 576 823 576 823 651 823 c 0,77,78
 675 823 675 823 703.5 826.5 c 128,-1,79
 732 830 732 830 759.5 837.5 c 128,-1,80
 787 845 787 845 813 856.5 c 128,-1,81
 839 868 839 868 858 883 c 0,82,83
 876 898 876 898 887.5 916.5 c 128,-1,84
 899 935 899 935 905.5 954.5 c 128,-1,85
 912 974 912 974 914.5 993.5 c 128,-1,86
 917 1013 917 1013 917 1030 c 0,87,88
 917 1069 917 1069 913.5 1097 c 128,-1,89
 910 1125 910 1125 902.5 1145 c 128,-1,90
 895 1165 895 1165 883.5 1181 c 128,-1,91
 872 1197 872 1197 856 1212 c 0,92,93
 822 1244 822 1244 770 1263 c 128,-1,94
 718 1282 718 1282 659 1282 c 0,60,61
EndSplineSet
EndChar

StartChar: colon
Encoding: 58 58 74
Width: 817
Flags: W
LayerCount: 2
Fore
SplineSet
610 178 m 256,0,1
 610 136 610 136 594 99 c 128,-1,2
 578 62 578 62 551 34.5 c 128,-1,3
 524 7 524 7 487 -9 c 128,-1,4
 450 -25 450 -25 408 -25 c 256,5,6
 366 -25 366 -25 329 -9 c 128,-1,7
 292 7 292 7 264.5 34.5 c 128,-1,8
 237 62 237 62 221 99 c 128,-1,9
 205 136 205 136 205 178 c 256,10,11
 205 220 205 220 221 257 c 128,-1,12
 237 294 237 294 264.5 321.5 c 128,-1,13
 292 349 292 349 329 365 c 128,-1,14
 366 381 366 381 408 381 c 256,15,16
 450 381 450 381 487 365 c 128,-1,17
 524 349 524 349 551 321.5 c 128,-1,18
 578 294 578 294 594 257 c 128,-1,19
 610 220 610 220 610 178 c 256,0,1
610 1028 m 256,20,21
 610 986 610 986 594 949 c 128,-1,22
 578 912 578 912 551 884.5 c 128,-1,23
 524 857 524 857 487 841 c 128,-1,24
 450 825 450 825 408 825 c 256,25,26
 366 825 366 825 329 841 c 128,-1,27
 292 857 292 857 264.5 884.5 c 128,-1,28
 237 912 237 912 221 949 c 128,-1,29
 205 986 205 986 205 1028 c 256,30,31
 205 1070 205 1070 221 1107 c 128,-1,32
 237 1144 237 1144 264.5 1171.5 c 128,-1,33
 292 1199 292 1199 329 1215 c 128,-1,34
 366 1231 366 1231 408 1231 c 256,35,36
 450 1231 450 1231 487 1215 c 128,-1,37
 524 1199 524 1199 551 1171.5 c 128,-1,38
 578 1144 578 1144 594 1107 c 128,-1,39
 610 1070 610 1070 610 1028 c 256,20,21
EndSplineSet
EndChar

StartChar: hyphen
Encoding: 45 45 75
Width: 1544
Flags: W
LayerCount: 2
Fore
SplineSet
193 455 m 1,0,-1
 193 803 l 1,1,-1
 1370 803 l 1,2,-1
 1370 455 l 1,3,-1
 193 455 l 1,0,-1
EndSplineSet
EndChar

StartChar: semicolon
Encoding: 59 59 76
Width: 817
Flags: W
LayerCount: 2
Fore
SplineSet
610 1012 m 256,0,1
 610 1054 610 1054 594 1091 c 128,-1,2
 578 1128 578 1128 551 1155 c 128,-1,3
 524 1182 524 1182 487 1198 c 128,-1,4
 450 1214 450 1214 408 1214 c 256,5,6
 366 1214 366 1214 329 1198 c 128,-1,7
 292 1182 292 1182 264.5 1155 c 128,-1,8
 237 1128 237 1128 221 1091 c 128,-1,9
 205 1054 205 1054 205 1012 c 256,10,11
 205 970 205 970 221 933 c 128,-1,12
 237 896 237 896 264.5 868.5 c 128,-1,13
 292 841 292 841 329 825 c 128,-1,14
 366 809 366 809 408 809 c 256,15,16
 450 809 450 809 487 825 c 128,-1,17
 524 841 524 841 551 868.5 c 128,-1,18
 578 896 578 896 594 933 c 128,-1,19
 610 970 610 970 610 1012 c 256,0,1
408 365 m 256,20,21
 450 365 450 365 487 349 c 128,-1,22
 524 333 524 333 551 305.5 c 128,-1,23
 578 278 578 278 594 241 c 128,-1,24
 610 204 610 204 610 162 c 0,25,26
 610 40 610 40 605 -41.5 c 128,-1,27
 600 -123 600 -123 589 -177.5 c 128,-1,28
 578 -232 578 -232 561 -266 c 128,-1,29
 544 -300 544 -300 520 -328 c 0,30,31
 495 -358 495 -358 462 -378 c 128,-1,32
 429 -398 429 -398 399 -409 c 0,33,34
 364 -423 364 -423 328 -430 c 1,35,-1
 305 -299 l 1,36,37
 343 -288 343 -288 371 -269.5 c 128,-1,38
 399 -251 399 -251 424 -223 c 0,39,40
 436 -206 436 -206 444.5 -188 c 128,-1,41
 453 -170 453 -170 458 -147.5 c 128,-1,42
 463 -125 463 -125 465 -97 c 128,-1,43
 467 -69 467 -69 467 -31 c 1,44,45
 456 -37 456 -37 438 -39 c 128,-1,46
 420 -41 420 -41 408 -41 c 0,47,48
 366 -41 366 -41 329 -25 c 128,-1,49
 292 -9 292 -9 264.5 18.5 c 128,-1,50
 237 46 237 46 221 83 c 128,-1,51
 205 120 205 120 205 162 c 256,52,53
 205 204 205 204 221 241 c 128,-1,54
 237 278 237 278 264.5 305.5 c 128,-1,55
 292 333 292 333 329 349 c 128,-1,56
 366 365 366 365 408 365 c 256,20,21
EndSplineSet
EndChar

StartChar: quotesingle
Encoding: 39 39 77
Width: 797
Flags: W
LayerCount: 2
Fore
SplineSet
408 1597 m 256,0,1
 450 1597 450 1597 487 1581 c 128,-1,2
 524 1565 524 1565 552 1538 c 128,-1,3
 580 1511 580 1511 596 1474 c 128,-1,4
 612 1437 612 1437 612 1395 c 0,5,6
 612 1273 612 1273 606.5 1191.5 c 128,-1,7
 601 1110 601 1110 590 1055.5 c 128,-1,8
 579 1001 579 1001 562 967 c 128,-1,9
 545 933 545 933 522 905 c 0,10,11
 497 875 497 875 464 855.5 c 128,-1,12
 431 836 431 836 401 824 c 0,13,14
 366 810 366 810 330 803 c 1,15,-1
 305 936 l 1,16,17
 345 945 345 945 373 963.5 c 128,-1,18
 401 982 401 982 424 1010 c 0,19,20
 436 1027 436 1027 444.5 1045 c 128,-1,21
 453 1063 453 1063 458 1085.5 c 128,-1,22
 463 1108 463 1108 465 1136.5 c 128,-1,23
 467 1165 467 1165 467 1202 c 1,24,25
 456 1196 456 1196 439 1194 c 128,-1,26
 422 1192 422 1192 408 1192 c 0,27,28
 366 1192 366 1192 329.5 1208 c 128,-1,29
 293 1224 293 1224 265 1251.5 c 128,-1,30
 237 1279 237 1279 221 1316 c 128,-1,31
 205 1353 205 1353 205 1395 c 256,32,33
 205 1437 205 1437 221 1474 c 128,-1,34
 237 1511 237 1511 265 1538 c 128,-1,35
 293 1565 293 1565 329.5 1581 c 128,-1,36
 366 1597 366 1597 408 1597 c 256,0,1
EndSplineSet
EndChar

StartChar: quotedbl
Encoding: 34 34 78
Width: 1452
Flags: W
LayerCount: 2
Fore
SplineSet
1065 1602 m 256,0,1
 1107 1602 1107 1602 1143.5 1586 c 128,-1,2
 1180 1570 1180 1570 1208 1542.5 c 128,-1,3
 1236 1515 1236 1515 1252 1478 c 128,-1,4
 1268 1441 1268 1441 1268 1399 c 0,5,6
 1268 1277 1268 1277 1262.5 1195.5 c 128,-1,7
 1257 1114 1257 1114 1246 1059.5 c 128,-1,8
 1235 1005 1235 1005 1218 971 c 128,-1,9
 1201 937 1201 937 1178 909 c 0,10,11
 1152 879 1152 879 1119 859.5 c 128,-1,12
 1086 840 1086 840 1056 828 c 0,13,14
 1021 814 1021 814 985 807 c 1,15,-1
 963 938 l 1,16,17
 1001 949 1001 949 1028.5 967.5 c 128,-1,18
 1056 986 1056 986 1079 1014 c 0,19,20
 1092 1031 1092 1031 1100.5 1049 c 128,-1,21
 1109 1067 1109 1067 1114.5 1089.5 c 128,-1,22
 1120 1112 1120 1112 1122 1140.5 c 128,-1,23
 1124 1169 1124 1169 1124 1206 c 1,24,25
 1112 1200 1112 1200 1094.5 1198 c 128,-1,26
 1077 1196 1077 1196 1065 1196 c 0,27,28
 1023 1196 1023 1196 985.5 1212 c 128,-1,29
 948 1228 948 1228 920 1255.5 c 128,-1,30
 892 1283 892 1283 876 1320 c 128,-1,31
 860 1357 860 1357 860 1399 c 256,32,33
 860 1441 860 1441 876 1478 c 128,-1,34
 892 1515 892 1515 920 1542.5 c 128,-1,35
 948 1570 948 1570 985.5 1586 c 128,-1,36
 1023 1602 1023 1602 1065 1602 c 256,0,1
408 1602 m 256,37,38
 450 1602 450 1602 487 1586 c 128,-1,39
 524 1570 524 1570 551 1542.5 c 128,-1,40
 578 1515 578 1515 594 1478 c 128,-1,41
 610 1441 610 1441 610 1399 c 0,42,43
 610 1277 610 1277 605 1195.5 c 128,-1,44
 600 1114 600 1114 589.5 1059.5 c 128,-1,45
 579 1005 579 1005 562 971 c 128,-1,46
 545 937 545 937 522 909 c 0,47,48
 497 879 497 879 464 859.5 c 128,-1,49
 431 840 431 840 401 828 c 0,50,51
 366 814 366 814 330 807 c 1,52,-1
 305 938 l 1,53,54
 343 949 343 949 371 967.5 c 128,-1,55
 399 986 399 986 424 1014 c 0,56,57
 436 1031 436 1031 444.5 1049 c 128,-1,58
 453 1067 453 1067 458 1089.5 c 128,-1,59
 463 1112 463 1112 465 1140.5 c 128,-1,60
 467 1169 467 1169 467 1206 c 1,61,62
 456 1200 456 1200 439 1198 c 128,-1,63
 422 1196 422 1196 408 1196 c 0,64,65
 366 1196 366 1196 329 1212 c 128,-1,66
 292 1228 292 1228 264.5 1255.5 c 128,-1,67
 237 1283 237 1283 221 1320 c 128,-1,68
 205 1357 205 1357 205 1399 c 256,69,70
 205 1441 205 1441 221 1478 c 128,-1,71
 237 1515 237 1515 264.5 1542.5 c 128,-1,72
 292 1570 292 1570 329 1586 c 128,-1,73
 366 1602 366 1602 408 1602 c 256,37,38
EndSplineSet
EndChar

StartChar: idieresis
Encoding: 239 239 85
Width: 1141
Flags: W
LayerCount: 2
Fore
SplineSet
991 1638 m 256,0,1
 991 1602 991 1602 977.5 1570.5 c 128,-1,2
 964 1539 964 1539 940 1515 c 128,-1,3
 916 1491 916 1491 884.5 1477.5 c 128,-1,4
 853 1464 853 1464 817 1464 c 256,5,6
 781 1464 781 1464 749.5 1477.5 c 128,-1,7
 718 1491 718 1491 694 1515 c 128,-1,8
 670 1539 670 1539 656.5 1570.5 c 128,-1,9
 643 1602 643 1602 643 1638 c 256,10,11
 643 1674 643 1674 656.5 1706 c 128,-1,12
 670 1738 670 1738 694 1761.5 c 128,-1,13
 718 1785 718 1785 749.5 1798.5 c 128,-1,14
 781 1812 781 1812 817 1812 c 256,15,16
 853 1812 853 1812 884.5 1798.5 c 128,-1,17
 916 1785 916 1785 940 1761.5 c 128,-1,18
 964 1738 964 1738 977.5 1706 c 128,-1,19
 991 1674 991 1674 991 1638 c 256,0,1
487 1638 m 256,20,21
 487 1602 487 1602 473 1570.5 c 128,-1,22
 459 1539 459 1539 435 1515 c 128,-1,23
 411 1491 411 1491 379.5 1477.5 c 128,-1,24
 348 1464 348 1464 313 1464 c 0,25,26
 277 1464 277 1464 245 1477.5 c 128,-1,27
 213 1491 213 1491 189 1515 c 128,-1,28
 165 1539 165 1539 151 1570.5 c 128,-1,29
 137 1602 137 1602 137 1638 c 256,30,31
 137 1674 137 1674 151 1706 c 128,-1,32
 165 1738 165 1738 189 1761.5 c 128,-1,33
 213 1785 213 1785 245 1798.5 c 128,-1,34
 277 1812 277 1812 313 1812 c 0,35,36
 348 1812 348 1812 379.5 1798.5 c 128,-1,37
 411 1785 411 1785 435 1761.5 c 128,-1,38
 459 1738 459 1738 473 1706 c 128,-1,39
 487 1674 487 1674 487 1638 c 256,20,21
725 0 m 1,40,-1
 410 0 l 1,41,-1
 436 1214 l 1,42,-1
 698 1214 l 1,43,-1
 725 0 l 1,40,-1
EndSplineSet
EndChar

StartChar: underscore
Encoding: 95 95 86
Width: 1858
Flags: W
LayerCount: 2
Fore
SplineSet
95 -398 m 1,0,-1
 95 -50 l 1,1,-1
 1763 -50 l 1,2,-1
 1763 -398 l 1,3,-1
 95 -398 l 1,0,-1
EndSplineSet
EndChar

StartChar: exclam
Encoding: 33 33 87
Width: 1227
Flags: W
LayerCount: 2
Fore
SplineSet
817 156 m 256,0,1
 817 114 817 114 801 77.5 c 128,-1,2
 785 41 785 41 757.5 13 c 128,-1,3
 730 -15 730 -15 693 -31 c 128,-1,4
 656 -47 656 -47 614 -47 c 256,5,6
 572 -47 572 -47 535 -31 c 128,-1,7
 498 -15 498 -15 471 13 c 128,-1,8
 444 41 444 41 428 77.5 c 128,-1,9
 412 114 412 114 412 156 c 256,10,11
 412 198 412 198 428 235 c 128,-1,12
 444 272 444 272 471 300 c 128,-1,13
 498 328 498 328 535 344 c 128,-1,14
 572 360 572 360 614 360 c 256,15,16
 656 360 656 360 693 344 c 128,-1,17
 730 328 730 328 757.5 300 c 128,-1,18
 785 272 785 272 801 235 c 128,-1,19
 817 198 817 198 817 156 c 256,0,1
442 563 m 1,20,-1
 483 1913 l 1,21,-1
 750 1913 l 1,22,-1
 788 563 l 1,23,-1
 442 563 l 1,20,-1
EndSplineSet
EndChar

StartChar: fraction
Encoding: 8260 8260 88
Width: 1208
Flags: W
LayerCount: 2
Fore
SplineSet
94 0 m 1,0,-1
 741 1999 l 1,1,-1
 1030 1999 l 1,2,-1
 465 0 l 1,3,-1
 94 0 l 1,0,-1
EndSplineSet
EndChar

StartChar: backslash
Encoding: 92 92 89
Width: 1208
Flags: W
LayerCount: 2
Fore
SplineSet
178 1999 m 1,0,-1
 467 1999 l 1,1,-1
 1112 0 l 1,2,-1
 741 0 l 1,3,-1
 178 1999 l 1,0,-1
EndSplineSet
EndChar

StartChar: igrave
Encoding: 236 236 96
Width: 1141
Flags: W
LayerCount: 2
Fore
SplineSet
993 1638 m 256,0,1
 993 1602 993 1602 979.5 1570.5 c 128,-1,2
 966 1539 966 1539 942 1515 c 128,-1,3
 918 1491 918 1491 886.5 1477.5 c 128,-1,4
 855 1464 855 1464 819 1464 c 256,5,6
 783 1464 783 1464 751.5 1477.5 c 128,-1,7
 720 1491 720 1491 696 1515 c 128,-1,8
 672 1539 672 1539 658.5 1570.5 c 128,-1,9
 645 1602 645 1602 645 1638 c 256,10,11
 645 1674 645 1674 658.5 1706 c 128,-1,12
 672 1738 672 1738 696 1761.5 c 128,-1,13
 720 1785 720 1785 751.5 1798.5 c 128,-1,14
 783 1812 783 1812 819 1812 c 256,15,16
 855 1812 855 1812 886.5 1798.5 c 128,-1,17
 918 1785 918 1785 942 1761.5 c 128,-1,18
 966 1738 966 1738 979.5 1706 c 128,-1,19
 993 1674 993 1674 993 1638 c 256,0,1
489 1638 m 256,20,21
 489 1602 489 1602 475 1570.5 c 128,-1,22
 461 1539 461 1539 437 1515 c 128,-1,23
 413 1491 413 1491 381.5 1477.5 c 128,-1,24
 350 1464 350 1464 315 1464 c 0,25,26
 279 1464 279 1464 247 1477.5 c 128,-1,27
 215 1491 215 1491 191 1515 c 128,-1,28
 167 1539 167 1539 153 1570.5 c 128,-1,29
 139 1602 139 1602 139 1638 c 256,30,31
 139 1674 139 1674 153 1706 c 128,-1,32
 167 1738 167 1738 191 1761.5 c 128,-1,33
 215 1785 215 1785 247 1798.5 c 128,-1,34
 279 1812 279 1812 315 1812 c 0,35,36
 350 1812 350 1812 381.5 1798.5 c 128,-1,37
 413 1785 413 1785 437 1761.5 c 128,-1,38
 461 1738 461 1738 475 1706 c 128,-1,39
 489 1674 489 1674 489 1638 c 256,20,21
727 0 m 1,40,-1
 412 0 l 1,41,-1
 438 1214 l 1,42,-1
 700 1214 l 1,43,-1
 727 0 l 1,40,-1
EndSplineSet
EndChar

StartChar: iacute
Encoding: 237 237 97
Width: 844
Flags: W
LayerCount: 2
Fore
SplineSet
760 1722 m 1,0,-1
 367 1356 l 1,1,-1
 203 1522 l 1,2,-1
 570 1913 l 1,3,-1
 760 1722 l 1,0,-1
215 0 m 1,4,-1
 242 1214 l 1,5,-1
 504 1214 l 1,6,-1
 528 0 l 1,7,-1
 215 0 l 1,4,-1
EndSplineSet
EndChar

StartChar: minus
Encoding: 8722 8722 98
Width: 1350
Flags: W
LayerCount: 2
Fore
SplineSet
101 383 m 1,0,-1
 101 731 l 1,1,-1
 1279 731 l 1,2,-1
 1279 383 l 1,3,-1
 101 383 l 1,0,-1
EndSplineSet
EndChar

StartChar: quotedblright
Encoding: 8221 8221 99
Width: 1526
Flags: W
LayerCount: 2
Fore
SplineSet
1014 1563 m 0,0,1
 1055 1563 1055 1563 1092 1547 c 128,-1,2
 1129 1531 1129 1531 1157 1503.5 c 128,-1,3
 1185 1476 1185 1476 1201 1439 c 128,-1,4
 1217 1402 1217 1402 1217 1360 c 0,5,6
 1217 1238 1217 1238 1211.5 1156.5 c 128,-1,7
 1206 1075 1206 1075 1195 1020.5 c 128,-1,8
 1184 966 1184 966 1166.5 932 c 128,-1,9
 1149 898 1149 898 1126 870 c 0,10,11
 1101 841 1101 841 1068 821 c 128,-1,12
 1035 801 1035 801 1005 789 c 0,13,14
 970 776 970 776 934 768 c 1,15,-1
 911 899 l 1,16,17
 950 910 950 910 977.5 928.5 c 128,-1,18
 1005 947 1005 947 1028 975 c 0,19,20
 1041 992 1041 992 1049.5 1010 c 128,-1,21
 1058 1028 1058 1028 1063.5 1050.5 c 128,-1,22
 1069 1073 1069 1073 1071 1101.5 c 128,-1,23
 1073 1130 1073 1130 1073 1167 c 1,24,25
 1061 1161 1061 1161 1043.5 1159 c 128,-1,26
 1026 1157 1026 1157 1014 1157 c 0,27,28
 972 1157 972 1157 934.5 1173 c 128,-1,29
 897 1189 897 1189 869 1216.5 c 128,-1,30
 841 1244 841 1244 825 1281 c 128,-1,31
 809 1318 809 1318 809 1360 c 256,32,33
 809 1402 809 1402 825 1439 c 128,-1,34
 841 1476 841 1476 869 1503.5 c 128,-1,35
 897 1531 897 1531 934.5 1547 c 128,-1,36
 972 1563 972 1563 1014 1563 c 0,0,1
356 1563 m 256,37,38
 398 1563 398 1563 435 1547 c 128,-1,39
 472 1531 472 1531 499.5 1503.5 c 128,-1,40
 527 1476 527 1476 543 1439 c 128,-1,41
 559 1402 559 1402 559 1360 c 0,42,43
 559 1238 559 1238 554 1156.5 c 128,-1,44
 549 1075 549 1075 538 1020.5 c 128,-1,45
 527 966 527 966 510.5 932 c 128,-1,46
 494 898 494 898 471 870 c 0,47,48
 445 841 445 841 412 821 c 128,-1,49
 379 801 379 801 350 789 c 0,50,51
 315 776 315 776 279 768 c 1,52,-1
 254 899 l 1,53,54
 292 910 292 910 320 928.5 c 128,-1,55
 348 947 348 947 373 975 c 0,56,57
 385 992 385 992 393.5 1010 c 128,-1,58
 402 1028 402 1028 407 1050.5 c 128,-1,59
 412 1073 412 1073 414 1101.5 c 128,-1,60
 416 1130 416 1130 416 1167 c 1,61,62
 405 1161 405 1161 387.5 1159 c 128,-1,63
 370 1157 370 1157 356 1157 c 0,64,65
 314 1157 314 1157 277 1173 c 128,-1,66
 240 1189 240 1189 213 1216.5 c 128,-1,67
 186 1244 186 1244 170 1281 c 128,-1,68
 154 1318 154 1318 154 1360 c 256,69,70
 154 1402 154 1402 170 1439 c 128,-1,71
 186 1476 186 1476 213 1503.5 c 128,-1,72
 240 1531 240 1531 277 1547 c 128,-1,73
 314 1563 314 1563 356 1563 c 256,37,38
EndSplineSet
EndChar

StartChar: quotedblbase
Encoding: 8222 8222 100
Width: 1468
Flags: W
LayerCount: 2
Fore
SplineSet
1065 365 m 256,0,1
 1107 365 1107 365 1143.5 349 c 128,-1,2
 1180 333 1180 333 1208 305.5 c 128,-1,3
 1236 278 1236 278 1252 241 c 128,-1,4
 1268 204 1268 204 1268 162 c 0,5,6
 1268 40 1268 40 1262.5 -41.5 c 128,-1,7
 1257 -123 1257 -123 1246 -177.5 c 128,-1,8
 1235 -232 1235 -232 1218 -266 c 128,-1,9
 1201 -300 1201 -300 1178 -328 c 0,10,11
 1152 -358 1152 -358 1119 -378 c 128,-1,12
 1086 -398 1086 -398 1056 -409 c 0,13,14
 1021 -423 1021 -423 985 -430 c 1,15,-1
 963 -299 l 1,16,17
 1001 -288 1001 -288 1028.5 -269.5 c 128,-1,18
 1056 -251 1056 -251 1079 -223 c 0,19,20
 1092 -206 1092 -206 1100.5 -188 c 128,-1,21
 1109 -170 1109 -170 1114.5 -147.5 c 128,-1,22
 1120 -125 1120 -125 1122 -97 c 128,-1,23
 1124 -69 1124 -69 1124 -31 c 1,24,25
 1112 -37 1112 -37 1094.5 -39 c 128,-1,26
 1077 -41 1077 -41 1065 -41 c 0,27,28
 1023 -41 1023 -41 985.5 -25 c 128,-1,29
 948 -9 948 -9 920 18.5 c 128,-1,30
 892 46 892 46 876 83 c 128,-1,31
 860 120 860 120 860 162 c 256,32,33
 860 204 860 204 876 241 c 128,-1,34
 892 278 892 278 920 305.5 c 128,-1,35
 948 333 948 333 985.5 349 c 128,-1,36
 1023 365 1023 365 1065 365 c 256,0,1
408 365 m 256,37,38
 450 365 450 365 487 349 c 128,-1,39
 524 333 524 333 551 305.5 c 128,-1,40
 578 278 578 278 594 241 c 128,-1,41
 610 204 610 204 610 162 c 0,42,43
 610 40 610 40 605 -41.5 c 128,-1,44
 600 -123 600 -123 589.5 -177.5 c 128,-1,45
 579 -232 579 -232 562 -266 c 128,-1,46
 545 -300 545 -300 522 -328 c 0,47,48
 497 -358 497 -358 464 -378 c 128,-1,49
 431 -398 431 -398 401 -409 c 0,50,51
 366 -423 366 -423 330 -430 c 1,52,-1
 305 -299 l 1,53,54
 343 -288 343 -288 371 -269.5 c 128,-1,55
 399 -251 399 -251 424 -223 c 0,56,57
 436 -206 436 -206 444.5 -188 c 128,-1,58
 453 -170 453 -170 458 -147.5 c 128,-1,59
 463 -125 463 -125 465 -97 c 128,-1,60
 467 -69 467 -69 467 -31 c 1,61,62
 456 -37 456 -37 439 -39 c 128,-1,63
 422 -41 422 -41 408 -41 c 0,64,65
 366 -41 366 -41 329 -25 c 128,-1,66
 292 -9 292 -9 264.5 18.5 c 128,-1,67
 237 46 237 46 221 83 c 128,-1,68
 205 120 205 120 205 162 c 256,69,70
 205 204 205 204 221 241 c 128,-1,71
 237 278 237 278 264.5 305.5 c 128,-1,72
 292 333 292 333 329 349 c 128,-1,73
 366 365 366 365 408 365 c 256,37,38
EndSplineSet
EndChar

StartChar: quotedblleft
Encoding: 8220 8220 101
Width: 1522
Flags: W
LayerCount: 2
Fore
SplineSet
356 807 m 256,0,1
 314 807 314 807 277 823 c 128,-1,2
 240 839 240 839 213 866.5 c 128,-1,3
 186 894 186 894 170 931 c 128,-1,4
 154 968 154 968 154 1010 c 0,5,6
 154 1132 154 1132 159 1213 c 128,-1,7
 164 1294 164 1294 174.5 1348.5 c 128,-1,8
 185 1403 185 1403 202 1437 c 128,-1,9
 219 1471 219 1471 242 1499 c 0,10,11
 268 1529 268 1529 301 1549 c 128,-1,12
 334 1569 334 1569 363 1581 c 0,13,14
 398 1594 398 1594 434 1602 c 1,15,-1
 459 1468 l 1,16,17
 421 1459 421 1459 393 1441 c 128,-1,18
 365 1423 365 1423 340 1395 c 0,19,20
 328 1378 328 1378 319.5 1360 c 128,-1,21
 311 1342 311 1342 306 1319.5 c 128,-1,22
 301 1297 301 1297 299 1268.5 c 128,-1,23
 297 1240 297 1240 297 1202 c 1,24,25
 308 1208 308 1208 325 1210 c 128,-1,26
 342 1212 342 1212 356 1212 c 0,27,28
 398 1212 398 1212 435 1196 c 128,-1,29
 472 1180 472 1180 499.5 1153 c 128,-1,30
 527 1126 527 1126 543 1089 c 128,-1,31
 559 1052 559 1052 559 1010 c 256,32,33
 559 968 559 968 543 931 c 128,-1,34
 527 894 527 894 499.5 866.5 c 128,-1,35
 472 839 472 839 435 823 c 128,-1,36
 398 807 398 807 356 807 c 256,0,1
1012 807 m 256,37,38
 970 807 970 807 933 823 c 128,-1,39
 896 839 896 839 868.5 866.5 c 128,-1,40
 841 894 841 894 825 931 c 128,-1,41
 809 968 809 968 809 1010 c 0,42,43
 809 1132 809 1132 814.5 1213 c 128,-1,44
 820 1294 820 1294 831 1348.5 c 128,-1,45
 842 1403 842 1403 859 1437 c 128,-1,46
 876 1471 876 1471 899 1499 c 0,47,48
 925 1529 925 1529 958 1549 c 128,-1,49
 991 1569 991 1569 1021 1581 c 0,50,51
 1056 1594 1056 1594 1092 1602 c 1,52,-1
 1114 1468 l 1,53,54
 1076 1459 1076 1459 1048 1441 c 128,-1,55
 1020 1423 1020 1423 997 1395 c 0,56,57
 984 1378 984 1378 975.5 1360 c 128,-1,58
 967 1342 967 1342 962 1319.5 c 128,-1,59
 957 1297 957 1297 954.5 1268.5 c 128,-1,60
 952 1240 952 1240 952 1202 c 1,61,62
 965 1208 965 1208 982 1210 c 128,-1,63
 999 1212 999 1212 1012 1212 c 0,64,65
 1054 1212 1054 1212 1091 1196 c 128,-1,66
 1128 1180 1128 1180 1155 1153 c 128,-1,67
 1182 1126 1182 1126 1198 1089 c 128,-1,68
 1214 1052 1214 1052 1214 1010 c 256,69,70
 1214 968 1214 968 1198 931 c 128,-1,71
 1182 894 1182 894 1155 866.5 c 128,-1,72
 1128 839 1128 839 1091 823 c 128,-1,73
 1054 807 1054 807 1012 807 c 256,37,38
EndSplineSet
EndChar

StartChar: Euro
Encoding: 8364 8364 102
Width: 2404
Flags: W
LayerCount: 2
Fore
SplineSet
1368 -43 m 0,0,1
 1275 -43 1275 -43 1191.5 -26 c 128,-1,2
 1108 -9 1108 -9 1032 23 c 0,3,4
 955 57 955 57 889 106.5 c 128,-1,5
 823 156 823 156 770 221 c 0,6,7
 692 317 692 317 639.5 434 c 128,-1,8
 587 551 587 551 561 684 c 1,9,-1
 225 684 l 1,10,-1
 225 952 l 1,11,-1
 543 952 l 1,12,13
 543 986 543 986 544.5 1019.5 c 128,-1,14
 546 1053 546 1053 551 1085 c 1,15,-1
 225 1085 l 1,16,-1
 225 1323 l 1,17,-1
 598 1323 l 1,18,19
 627 1416 627 1416 671.5 1494.5 c 128,-1,20
 716 1573 716 1573 776 1642 c 0,21,22
 835 1711 835 1711 906.5 1761.5 c 128,-1,23
 978 1812 978 1812 1063 1847 c 0,24,25
 1143 1881 1143 1881 1230 1897 c 128,-1,26
 1317 1913 1317 1913 1411 1913 c 0,27,28
 1724 1913 1724 1913 1919 1763 c 0,29,30
 1987 1709 1987 1709 2037 1631 c 128,-1,31
 2087 1553 2087 1553 2118 1448 c 2,32,-1
 2128 1409 l 1,33,-1
 1755 1409 l 1,34,-1
 1751 1436 l 2,35,36
 1745 1471 1745 1471 1726.5 1499 c 128,-1,37
 1708 1527 1708 1527 1694 1542 c 0,38,39
 1648 1592 1648 1592 1581 1613 c 128,-1,40
 1514 1634 1514 1634 1411 1634 c 0,41,42
 1344 1634 1344 1634 1280 1613 c 128,-1,43
 1216 1592 1216 1592 1159.5 1554 c 128,-1,44
 1103 1516 1103 1516 1057.5 1461.5 c 128,-1,45
 1012 1407 1012 1407 983 1341 c 0,46,47
 981 1336 981 1336 979.5 1332 c 128,-1,48
 978 1328 978 1328 975 1323 c 1,49,-1
 1587 1323 l 1,50,-1
 1587 1085 l 1,51,-1
 913 1085 l 1,52,53
 911 1065 911 1065 910 1042 c 128,-1,54
 909 1019 909 1019 909 993 c 0,55,56
 909 982 909 982 909 972 c 128,-1,57
 909 962 909 962 911 952 c 1,58,-1
 1587 952 l 1,59,-1
 1587 684 l 1,60,-1
 967 684 l 1,61,62
 979 650 979 650 989 621.5 c 128,-1,63
 999 593 999 593 1012 571 c 0,64,65
 1015 566 1015 566 1017 561 c 128,-1,66
 1019 556 1019 556 1022 551 c 0,67,68
 1035 526 1035 526 1057.5 490.5 c 128,-1,69
 1080 455 1080 455 1121.5 423 c 128,-1,70
 1163 391 1163 391 1227.5 368.5 c 128,-1,71
 1292 346 1292 346 1389 346 c 2,72,-1
 1391 346 l 2,73,74
 1436 346 1436 346 1479 350 c 128,-1,75
 1522 354 1522 354 1557.5 360.5 c 128,-1,76
 1593 367 1593 367 1619 375 c 128,-1,77
 1645 383 1645 383 1657 391 c 0,78,79
 1682 408 1682 408 1697.5 437.5 c 128,-1,80
 1713 467 1713 467 1716 502 c 2,81,-1
 1720 528 l 1,82,-1
 2161 528 l 1,83,-1
 2161 500 l 2,84,85
 2161 346 2161 346 2081 225 c 0,86,87
 2052 183 2052 183 2013.5 145.5 c 128,-1,88
 1975 108 1975 108 1927 76 c 0,89,90
 1875 41 1875 41 1811.5 16 c 128,-1,91
 1748 -9 1748 -9 1669 -23 c 0,92,93
 1591 -37 1591 -37 1512 -40 c 128,-1,94
 1433 -43 1433 -43 1368 -43 c 0,0,1
EndSplineSet
EndChar

StartChar: ampersand
Encoding: 38 38 103
Width: 1909
Flags: W
LayerCount: 2
Fore
SplineSet
758 -43 m 2,0,1
 461 -43 461 -43 319 123 c 0,2,3
 182 287 182 287 182 494 c 0,4,5
 182 594 182 594 217 697.5 c 128,-1,6
 252 801 252 801 317 889 c 0,7,8
 349 933 349 933 410 995 c 128,-1,9
 471 1057 471 1057 569 1120 c 1,10,11
 522 1177 522 1177 498.5 1220.5 c 128,-1,12
 475 1264 475 1264 457 1307 c 0,13,14
 438 1350 438 1350 429 1395 c 128,-1,15
 420 1440 420 1440 420 1497 c 0,16,17
 420 1545 420 1545 426 1584 c 128,-1,18
 432 1623 432 1623 445 1656 c 128,-1,19
 458 1689 458 1689 479.5 1719 c 128,-1,20
 501 1749 501 1749 532 1780 c 0,21,22
 597 1843 597 1843 683.5 1878 c 128,-1,23
 770 1913 770 1913 877 1913 c 0,24,25
 983 1913 983 1913 1063.5 1880 c 128,-1,26
 1144 1847 1144 1847 1198 1788 c 0,27,28
 1224 1759 1224 1759 1241.5 1733 c 128,-1,29
 1259 1707 1259 1707 1272 1679 c 0,30,31
 1296 1618 1296 1618 1296 1540 c 0,32,33
 1296 1495 1296 1495 1292.5 1454.5 c 128,-1,34
 1289 1414 1289 1414 1278.5 1376 c 128,-1,35
 1268 1338 1268 1338 1249 1302 c 128,-1,36
 1230 1266 1230 1266 1200 1229 c 0,37,38
 1174 1198 1174 1198 1123 1146.5 c 128,-1,39
 1072 1095 1072 1095 997 1042 c 1,40,-1
 1227 739 l 1,41,42
 1232 749 1232 749 1235 758 c 128,-1,43
 1238 767 1238 767 1241 778 c 0,44,45
 1243 781 1243 781 1244 785 c 128,-1,46
 1245 789 1245 789 1247 793 c 0,47,48
 1247 795 1247 795 1256 825 c 128,-1,49
 1265 855 1265 855 1268 903 c 2,50,-1
 1268 932 l 1,51,-1
 1561 932 l 1,52,-1
 1556 899 l 2,53,54
 1550 852 1550 852 1543.5 815.5 c 128,-1,55
 1537 779 1537 779 1528.5 746 c 128,-1,56
 1520 713 1520 713 1508.5 679.5 c 128,-1,57
 1497 646 1497 646 1481 606 c 0,58,59
 1467 568 1467 568 1453 540.5 c 128,-1,60
 1439 513 1439 513 1430 498 c 1,61,-1
 1819 0 l 1,62,-1
 1391 0 l 1,63,-1
 1247 201 l 1,64,65
 1204 144 1204 144 1160.5 107 c 128,-1,66
 1117 70 1117 70 1083 47 c 0,67,68
 1046 22 1046 22 1011 4.5 c 128,-1,69
 976 -13 976 -13 937.5 -23.5 c 128,-1,70
 899 -34 899 -34 856 -38.5 c 128,-1,71
 813 -43 813 -43 760 -43 c 2,72,-1
 758 -43 l 2,0,1
741 911 m 1,73,74
 729 903 729 903 718 896 c 128,-1,75
 707 889 707 889 696 883 c 0,76,77
 671 866 671 866 652 853 c 128,-1,78
 633 840 633 840 618 829 c 128,-1,79
 603 818 603 818 591 808 c 128,-1,80
 579 798 579 798 569 786 c 0,81,82
 549 763 549 763 535.5 743.5 c 128,-1,83
 522 724 522 724 513.5 703.5 c 128,-1,84
 505 683 505 683 500 658.5 c 128,-1,85
 495 634 495 634 492 602 c 0,86,87
 485 545 485 545 491.5 505.5 c 128,-1,88
 498 466 498 466 518 440 c 0,89,90
 536 416 536 416 564 398 c 128,-1,91
 592 380 592 380 624.5 368.5 c 128,-1,92
 657 357 657 357 691 351.5 c 128,-1,93
 725 346 725 346 756 346 c 0,94,95
 819 346 819 346 868.5 359 c 128,-1,96
 918 372 918 372 965 401 c 0,97,98
 988 415 988 415 1010 437 c 128,-1,99
 1032 459 1032 459 1051 485 c 1,100,-1
 741 911 l 1,73,74
872 1679 m 2,101,102
 803 1679 803 1679 765.5 1661 c 128,-1,103
 728 1643 728 1643 707 1606 c 0,104,105
 694 1584 694 1584 689 1565.5 c 128,-1,106
 684 1547 684 1547 684 1526 c 0,107,108
 684 1457 684 1457 721 1393 c 0,109,110
 750 1346 750 1346 776 1311 c 128,-1,111
 802 1276 802 1276 817 1257 c 1,112,113
 823 1261 823 1261 830.5 1265 c 128,-1,114
 838 1269 838 1269 846 1274 c 0,115,116
 861 1284 861 1284 879 1295 c 128,-1,117
 897 1306 897 1306 914.5 1317.5 c 128,-1,118
 932 1329 932 1329 947.5 1340.5 c 128,-1,119
 963 1352 963 1352 975 1362 c 0,120,121
 1042 1420 1042 1420 1042 1522 c 0,122,123
 1042 1556 1042 1556 1032 1582 c 128,-1,124
 1022 1608 1022 1608 997 1634 c 0,125,126
 979 1656 979 1656 950.5 1667.5 c 128,-1,127
 922 1679 922 1679 874 1679 c 2,128,-1
 872 1679 l 2,101,102
EndSplineSet
EndChar

StartChar: at
Encoding: 64 64 104
Width: 2445
Flags: W
LayerCount: 2
Fore
SplineSet
1247 -43 m 0,0,1
 1116 -43 1116 -43 997.5 -23 c 128,-1,2
 879 -3 879 -3 776 37 c 0,3,4
 566 120 566 120 424 285 c 0,5,6
 367 350 367 350 324 421 c 128,-1,7
 281 492 281 492 252 569 c 0,8,9
 224 645 224 645 209.5 726.5 c 128,-1,10
 195 808 195 808 195 895 c 0,11,12
 195 1096 195 1096 272 1276 c 0,13,14
 307 1363 307 1363 361.5 1442 c 128,-1,15
 416 1521 416 1521 485 1593 c 0,16,17
 563 1674 563 1674 653 1734.5 c 128,-1,18
 743 1795 743 1795 846 1835 c 0,19,20
 949 1873 949 1873 1065 1894 c 128,-1,21
 1181 1915 1181 1915 1309 1915 c 0,22,23
 1430 1915 1430 1915 1531.5 1903 c 128,-1,24
 1633 1891 1633 1891 1718 1870 c 0,25,26
 1818 1842 1818 1842 1895.5 1800 c 128,-1,27
 1973 1758 1973 1758 2030 1696 c 0,28,29
 2087 1636 2087 1636 2124.5 1576.5 c 128,-1,30
 2162 1517 2162 1517 2185 1452 c 0,31,32
 2208 1390 2208 1390 2218 1320 c 128,-1,33
 2228 1250 2228 1250 2228 1159 c 0,34,35
 2228 1091 2228 1091 2219.5 1031.5 c 128,-1,36
 2211 972 2211 972 2192.5 917 c 128,-1,37
 2174 862 2174 862 2144.5 809 c 128,-1,38
 2115 756 2115 756 2073 700 c 0,39,40
 2034 648 2034 648 1983 604.5 c 128,-1,41
 1932 561 1932 561 1872 530 c 0,42,43
 1815 501 1815 501 1756.5 486 c 128,-1,44
 1698 471 1698 471 1642 471 c 0,45,46
 1482 471 1482 471 1438 561 c 0,47,48
 1428 580 1428 580 1423.5 598 c 128,-1,49
 1419 616 1419 616 1417 633 c 1,50,51
 1383 580 1383 580 1333 545 c 0,52,53
 1281 507 1281 507 1223.5 489 c 128,-1,54
 1166 471 1166 471 1087 471 c 0,55,56
 1047 471 1047 471 1006.5 480 c 128,-1,57
 966 489 966 489 929 505.5 c 128,-1,58
 892 522 892 522 859.5 546 c 128,-1,59
 827 570 827 570 801 600 c 0,60,61
 775 631 775 631 757 661 c 128,-1,62
 739 691 739 691 728.5 725.5 c 128,-1,63
 718 760 718 760 713.5 800 c 128,-1,64
 709 840 709 840 709 891 c 0,65,66
 711 1018 711 1018 754.5 1134.5 c 128,-1,67
 798 1251 798 1251 883 1350 c 0,68,69
 964 1446 964 1446 1058.5 1495 c 128,-1,70
 1153 1544 1153 1544 1255 1544 c 0,71,72
 1392 1544 1392 1544 1481 1464 c 0,73,74
 1505 1443 1505 1443 1523.5 1419.5 c 128,-1,75
 1542 1396 1542 1396 1554 1368 c 1,76,-1
 1606 1503 l 1,77,-1
 1825 1503 l 1,78,-1
 1808 1462 l 1,79,80
 1808 1462 1808 1462 1800 1443 c 128,-1,81
 1792 1424 1792 1424 1779.5 1393 c 128,-1,82
 1767 1362 1767 1362 1751.5 1322 c 128,-1,83
 1736 1282 1736 1282 1720 1238.5 c 128,-1,84
 1704 1195 1704 1195 1689.5 1151 c 128,-1,85
 1675 1107 1675 1107 1665 1069 c 0,86,87
 1650 1009 1650 1009 1638.5 954 c 128,-1,88
 1627 899 1627 899 1622 854 c 0,89,90
 1618 821 1618 821 1618.5 799.5 c 128,-1,91
 1619 778 1619 778 1620.5 765.5 c 128,-1,92
 1622 753 1622 753 1624.5 747.5 c 128,-1,93
 1627 742 1627 742 1628 741 c 0,94,95
 1642 735 1642 735 1657 732 c 128,-1,96
 1672 729 1672 729 1681 729 c 2,97,-1
 1686 729 l 2,98,99
 1716 732 1716 732 1741 739 c 128,-1,100
 1766 746 1766 746 1789 759 c 128,-1,101
 1812 772 1812 772 1834.5 792.5 c 128,-1,102
 1857 813 1857 813 1882 842 c 0,103,104
 1980 958 1980 958 1980 1167 c 0,105,106
 1980 1237 1980 1237 1974 1290 c 128,-1,107
 1968 1343 1968 1343 1952 1387 c 128,-1,108
 1936 1431 1936 1431 1909.5 1472 c 128,-1,109
 1883 1513 1883 1513 1841 1559 c 0,110,111
 1771 1636 1771 1636 1646 1673 c 128,-1,112
 1521 1710 1521 1710 1329 1710 c 0,113,114
 879 1710 879 1710 641 1448 c 0,115,116
 597 1400 597 1400 565.5 1343 c 128,-1,117
 534 1286 534 1286 514.5 1218 c 128,-1,118
 495 1150 495 1150 487 1068 c 128,-1,119
 479 986 479 986 481 887 c 0,120,121
 483 811 483 811 497 754 c 128,-1,122
 511 697 511 697 534 652 c 128,-1,123
 557 607 557 607 588 571 c 128,-1,124
 619 535 619 535 653 500 c 0,125,126
 712 441 712 441 778.5 397.5 c 128,-1,127
 845 354 845 354 921.5 325.5 c 128,-1,128
 998 297 998 297 1086 283.5 c 128,-1,129
 1174 270 1174 270 1276 270 c 0,130,131
 1327 270 1327 270 1373.5 272 c 128,-1,132
 1420 274 1420 274 1463.5 279.5 c 128,-1,133
 1507 285 1507 285 1548.5 294.5 c 128,-1,134
 1590 304 1590 304 1632 319 c 0,135,136
 1820 388 1820 388 1948 485 c 2,137,-1
 1978 508 l 1,138,-1
 2103 211 l 1,139,-1
 2087 199 l 2,140,141
 2060 174 2060 174 2029.5 152.5 c 128,-1,142
 1999 131 1999 131 1961.5 111 c 128,-1,143
 1924 91 1924 91 1877.5 70.5 c 128,-1,144
 1831 50 1831 50 1772 27 c 0,145,146
 1713 3 1713 3 1646 -11 c 128,-1,147
 1579 -25 1579 -25 1511 -32 c 128,-1,148
 1443 -39 1443 -39 1375.5 -41 c 128,-1,149
 1308 -43 1308 -43 1247 -43 c 0,0,1
1290 1374 m 0,150,151
 1227 1374 1227 1374 1167 1332.5 c 128,-1,152
 1107 1291 1107 1291 1061 1217 c 0,153,154
 1037 1178 1037 1178 1022 1142.5 c 128,-1,155
 1007 1107 1007 1107 999 1071.5 c 128,-1,156
 991 1036 991 1036 988 999.5 c 128,-1,157
 985 963 985 963 985 922 c 0,158,159
 985 892 985 892 987.5 870.5 c 128,-1,160
 990 849 990 849 995.5 832.5 c 128,-1,161
 1001 816 1001 816 1009 802.5 c 128,-1,162
 1017 789 1017 789 1028 776 c 0,163,164
 1070 725 1070 725 1137 725 c 0,165,166
 1220 725 1220 725 1276 762 c 128,-1,167
 1332 799 1332 799 1370 881 c 0,168,169
 1391 925 1391 925 1407.5 964.5 c 128,-1,170
 1424 1004 1424 1004 1435.5 1041 c 128,-1,171
 1447 1078 1447 1078 1452.5 1114.5 c 128,-1,172
 1458 1151 1458 1151 1458 1190 c 0,173,174
 1458 1224 1458 1224 1448 1253.5 c 128,-1,175
 1438 1283 1438 1283 1415 1309 c 0,176,177
 1396 1332 1396 1332 1363 1353 c 128,-1,178
 1330 1374 1330 1374 1290 1374 c 0,150,151
EndSplineSet
EndChar

StartChar: dieresis
Encoding: 168 168 105
Width: 1448
Flags: W
LayerCount: 2
Fore
SplineSet
1151 1638 m 256,0,1
 1151 1602 1151 1602 1137.5 1570.5 c 128,-1,2
 1124 1539 1124 1539 1100 1515 c 128,-1,3
 1076 1491 1076 1491 1044.5 1477.5 c 128,-1,4
 1013 1464 1013 1464 977 1464 c 256,5,6
 941 1464 941 1464 909.5 1477.5 c 128,-1,7
 878 1491 878 1491 854 1515 c 128,-1,8
 830 1539 830 1539 816.5 1570.5 c 128,-1,9
 803 1602 803 1602 803 1638 c 256,10,11
 803 1674 803 1674 816.5 1706 c 128,-1,12
 830 1738 830 1738 854 1761.5 c 128,-1,13
 878 1785 878 1785 909.5 1798.5 c 128,-1,14
 941 1812 941 1812 977 1812 c 256,15,16
 1013 1812 1013 1812 1044.5 1798.5 c 128,-1,17
 1076 1785 1076 1785 1100 1761.5 c 128,-1,18
 1124 1738 1124 1738 1137.5 1706 c 128,-1,19
 1151 1674 1151 1674 1151 1638 c 256,0,1
647 1638 m 256,20,21
 647 1602 647 1602 633 1570.5 c 128,-1,22
 619 1539 619 1539 595 1515 c 128,-1,23
 571 1491 571 1491 539.5 1477.5 c 128,-1,24
 508 1464 508 1464 473 1464 c 0,25,26
 437 1464 437 1464 405 1477.5 c 128,-1,27
 373 1491 373 1491 349 1515 c 128,-1,28
 325 1539 325 1539 311 1570.5 c 128,-1,29
 297 1602 297 1602 297 1638 c 256,30,31
 297 1674 297 1674 311 1706 c 128,-1,32
 325 1738 325 1738 349 1761.5 c 128,-1,33
 373 1785 373 1785 405 1798.5 c 128,-1,34
 437 1812 437 1812 473 1812 c 0,35,36
 508 1812 508 1812 539.5 1798.5 c 128,-1,37
 571 1785 571 1785 595 1761.5 c 128,-1,38
 619 1738 619 1738 633 1706 c 128,-1,39
 647 1674 647 1674 647 1638 c 256,20,21
EndSplineSet
EndChar

StartChar: quoteleft
Encoding: 8216 8216 106
Width: 866
Flags: W
LayerCount: 2
Fore
SplineSet
356 807 m 256,0,1
 314 807 314 807 277 823 c 128,-1,2
 240 839 240 839 213 866.5 c 128,-1,3
 186 894 186 894 170 931 c 128,-1,4
 154 968 154 968 154 1010 c 0,5,6
 154 1132 154 1132 159.5 1213 c 128,-1,7
 165 1294 165 1294 176 1348.5 c 128,-1,8
 187 1403 187 1403 204 1437 c 128,-1,9
 221 1471 221 1471 244 1499 c 0,10,11
 270 1529 270 1529 303 1549 c 128,-1,12
 336 1569 336 1569 365 1581 c 0,13,14
 400 1594 400 1594 436 1602 c 1,15,-1
 459 1468 l 1,16,17
 421 1459 421 1459 393 1441 c 128,-1,18
 365 1423 365 1423 342 1395 c 0,19,20
 329 1378 329 1378 320.5 1360 c 128,-1,21
 312 1342 312 1342 306.5 1319.5 c 128,-1,22
 301 1297 301 1297 299 1268.5 c 128,-1,23
 297 1240 297 1240 297 1202 c 1,24,25
 309 1208 309 1208 326.5 1210 c 128,-1,26
 344 1212 344 1212 356 1212 c 0,27,28
 398 1212 398 1212 435 1196 c 128,-1,29
 472 1180 472 1180 499.5 1153 c 128,-1,30
 527 1126 527 1126 543 1089 c 128,-1,31
 559 1052 559 1052 559 1010 c 256,32,33
 559 968 559 968 543 931 c 128,-1,34
 527 894 527 894 499.5 866.5 c 128,-1,35
 472 839 472 839 435 823 c 128,-1,36
 398 807 398 807 356 807 c 256,0,1
EndSplineSet
EndChar

StartChar: quoteright
Encoding: 8217 8217 107
Width: 868
Flags: W
LayerCount: 2
Fore
SplineSet
356 1563 m 0,0,1
 398 1563 398 1563 435.5 1547 c 128,-1,2
 473 1531 473 1531 501 1503.5 c 128,-1,3
 529 1476 529 1476 545 1439 c 128,-1,4
 561 1402 561 1402 561 1360 c 0,5,6
 561 1238 561 1238 555.5 1156.5 c 128,-1,7
 550 1075 550 1075 539 1020.5 c 128,-1,8
 528 966 528 966 511 932 c 128,-1,9
 494 898 494 898 471 870 c 0,10,11
 445 841 445 841 412 821 c 128,-1,12
 379 801 379 801 350 789 c 0,13,14
 315 776 315 776 279 768 c 1,15,-1
 254 901 l 1,16,17
 294 910 294 910 322 928.5 c 128,-1,18
 350 947 350 947 373 975 c 0,19,20
 385 992 385 992 393.5 1010 c 128,-1,21
 402 1028 402 1028 407 1050.5 c 128,-1,22
 412 1073 412 1073 414 1101.5 c 128,-1,23
 416 1130 416 1130 416 1167 c 1,24,25
 405 1161 405 1161 387.5 1159 c 128,-1,26
 370 1157 370 1157 356 1157 c 0,27,28
 315 1157 315 1157 278 1173 c 128,-1,29
 241 1189 241 1189 213.5 1216.5 c 128,-1,30
 186 1244 186 1244 170 1281 c 128,-1,31
 154 1318 154 1318 154 1360 c 256,32,33
 154 1402 154 1402 170 1439 c 128,-1,34
 186 1476 186 1476 213.5 1503.5 c 128,-1,35
 241 1531 241 1531 278 1547 c 128,-1,36
 315 1563 315 1563 356 1563 c 0,0,1
EndSplineSet
EndChar

StartChar: icircumflex
Encoding: 238 238 110
Width: 973
Flags: W
LayerCount: 2
Fore
SplineSet
684 1432 m 1,0,-1
 489 1630 l 1,1,-1
 293 1432 l 1,2,-1
 160 1565 l 1,3,-1
 489 1913 l 1,4,-1
 817 1565 l 1,5,-1
 684 1432 l 1,0,-1
643 0 m 1,6,-1
 328 0 l 1,7,-1
 354 1214 l 1,8,-1
 616 1214 l 1,9,-1
 643 0 l 1,6,-1
EndSplineSet
EndChar

StartChar: percent
Encoding: 37 37 112
Width: 1925
Flags: W
LayerCount: 2
Fore
SplineSet
539 0 m 1,0,-1
 1075 1778 l 1,1,-1
 1368 1778 l 1,2,-1
 834 0 l 1,3,-1
 539 0 l 1,0,-1
477 940 m 0,4,5
 408 940 408 940 347 966.5 c 128,-1,6
 286 993 286 993 241 1039 c 128,-1,7
 196 1085 196 1085 169.5 1146 c 128,-1,8
 143 1207 143 1207 143 1276 c 256,9,10
 143 1345 143 1345 169.5 1406 c 128,-1,11
 196 1467 196 1467 241 1513 c 128,-1,12
 286 1559 286 1559 347 1585.5 c 128,-1,13
 408 1612 408 1612 477 1612 c 0,14,15
 547 1612 547 1612 608.5 1585.5 c 128,-1,16
 670 1559 670 1559 715.5 1513 c 128,-1,17
 761 1467 761 1467 787 1406 c 128,-1,18
 813 1345 813 1345 813 1276 c 256,19,20
 813 1207 813 1207 787 1146 c 128,-1,21
 761 1085 761 1085 715.5 1039 c 128,-1,22
 670 993 670 993 608.5 966.5 c 128,-1,23
 547 940 547 940 477 940 c 0,4,5
477 1393 m 0,24,25
 453 1393 453 1393 432 1384 c 128,-1,26
 411 1375 411 1375 395 1359 c 128,-1,27
 379 1343 379 1343 369.5 1321.5 c 128,-1,28
 360 1300 360 1300 360 1276 c 256,29,30
 360 1252 360 1252 369.5 1230.5 c 128,-1,31
 379 1209 379 1209 395 1193.5 c 128,-1,32
 411 1178 411 1178 432 1168.5 c 128,-1,33
 453 1159 453 1159 477 1159 c 0,34,35
 502 1159 502 1159 523.5 1168.5 c 128,-1,36
 545 1178 545 1178 560.5 1193.5 c 128,-1,37
 576 1209 576 1209 585 1230.5 c 128,-1,38
 594 1252 594 1252 594 1276 c 256,39,40
 594 1300 594 1300 585 1321.5 c 128,-1,41
 576 1343 576 1343 560.5 1359 c 128,-1,42
 545 1375 545 1375 523.5 1384 c 128,-1,43
 502 1393 502 1393 477 1393 c 0,24,25
1446 252 m 256,44,45
 1377 252 1377 252 1316 278.5 c 128,-1,46
 1255 305 1255 305 1209 350.5 c 128,-1,47
 1163 396 1163 396 1136.5 457.5 c 128,-1,48
 1110 519 1110 519 1110 588 c 0,49,50
 1110 658 1110 658 1136.5 719 c 128,-1,51
 1163 780 1163 780 1209 825.5 c 128,-1,52
 1255 871 1255 871 1316 897.5 c 128,-1,53
 1377 924 1377 924 1446 924 c 256,54,55
 1515 924 1515 924 1576 897.5 c 128,-1,56
 1637 871 1637 871 1683 825.5 c 128,-1,57
 1729 780 1729 780 1755.5 719 c 128,-1,58
 1782 658 1782 658 1782 588 c 0,59,60
 1782 519 1782 519 1755.5 457.5 c 128,-1,61
 1729 396 1729 396 1683 350.5 c 128,-1,62
 1637 305 1637 305 1576 278.5 c 128,-1,63
 1515 252 1515 252 1446 252 c 256,44,45
1446 705 m 0,64,65
 1421 705 1421 705 1400 696 c 128,-1,66
 1379 687 1379 687 1363 671 c 128,-1,67
 1347 655 1347 655 1338 633.5 c 128,-1,68
 1329 612 1329 612 1329 588 c 256,69,70
 1329 564 1329 564 1338 542.5 c 128,-1,71
 1347 521 1347 521 1363 505.5 c 128,-1,72
 1379 490 1379 490 1400 480.5 c 128,-1,73
 1421 471 1421 471 1446 471 c 0,74,75
 1470 471 1470 471 1491 480.5 c 128,-1,76
 1512 490 1512 490 1528 505.5 c 128,-1,77
 1544 521 1544 521 1553.5 542.5 c 128,-1,78
 1563 564 1563 564 1563 588 c 256,79,80
 1563 612 1563 612 1553.5 633.5 c 128,-1,81
 1544 655 1544 655 1528 671 c 128,-1,82
 1512 687 1512 687 1491 696 c 128,-1,83
 1470 705 1470 705 1446 705 c 0,64,65
EndSplineSet
EndChar

StartChar: divide
Encoding: 247 247 113
Width: 1350
Flags: W
LayerCount: 2
Fore
SplineSet
889 1051 m 256,0,1
 889 1009 889 1009 873 972 c 128,-1,2
 857 935 857 935 829 907.5 c 128,-1,3
 801 880 801 880 764.5 864 c 128,-1,4
 728 848 728 848 686 848 c 256,5,6
 644 848 644 848 607 864 c 128,-1,7
 570 880 570 880 542 907.5 c 128,-1,8
 514 935 514 935 498 972 c 128,-1,9
 482 1009 482 1009 482 1051 c 256,10,11
 482 1093 482 1093 498 1130 c 128,-1,12
 514 1167 514 1167 542 1194 c 128,-1,13
 570 1221 570 1221 607 1237 c 128,-1,14
 644 1253 644 1253 686 1253 c 256,15,16
 728 1253 728 1253 764.5 1237 c 128,-1,17
 801 1221 801 1221 829 1194 c 128,-1,18
 857 1167 857 1167 873 1130 c 128,-1,19
 889 1093 889 1093 889 1051 c 256,0,1
889 160 m 256,20,21
 889 118 889 118 873 81.5 c 128,-1,22
 857 45 857 45 829 17 c 128,-1,23
 801 -11 801 -11 764.5 -27 c 128,-1,24
 728 -43 728 -43 686 -43 c 256,25,26
 644 -43 644 -43 607 -27 c 128,-1,27
 570 -11 570 -11 542 17 c 128,-1,28
 514 45 514 45 498 81.5 c 128,-1,29
 482 118 482 118 482 160 c 256,30,31
 482 202 482 202 498 239.5 c 128,-1,32
 514 277 514 277 542 304.5 c 128,-1,33
 570 332 570 332 607 348.5 c 128,-1,34
 644 365 644 365 686 365 c 256,35,36
 728 365 728 365 764.5 348.5 c 128,-1,37
 801 332 801 332 829 304.5 c 128,-1,38
 857 277 857 277 873 239.5 c 128,-1,39
 889 202 889 202 889 160 c 256,20,21
1254 510 m 1,40,-1
 117 510 l 1,41,-1
 117 688 l 1,42,-1
 1254 688 l 1,43,-1
 1254 510 l 1,40,-1
EndSplineSet
EndChar

StartChar: multiply
Encoding: 215 215 114
Width: 1350
Flags: W
LayerCount: 2
Fore
SplineSet
95 250 m 1,0,-1
 431 586 l 1,1,-1
 95 924 l 1,2,-1
 343 1174 l 1,3,-1
 681 836 l 1,4,-1
 1019 1174 l 1,5,-1
 1266 924 l 1,6,-1
 931 586 l 1,7,-1
 1266 250 l 1,8,-1
 1019 0 l 1,9,-1
 681 338 l 1,10,-1
 343 0 l 1,11,-1
 95 250 l 1,0,-1
EndSplineSet
EndChar

StartChar: equal
Encoding: 61 61 115
Width: 1350
Flags: W
LayerCount: 2
Fore
SplineSet
104 170 m 1,0,-1
 104 471 l 1,1,-1
 1261 471 l 1,2,-1
 1261 170 l 1,3,-1
 104 170 l 1,0,-1
104 709 m 1,4,-1
 104 1010 l 1,5,-1
 1261 1010 l 1,6,-1
 1261 709 l 1,7,-1
 104 709 l 1,4,-1
EndSplineSet
EndChar

StartChar: plus
Encoding: 43 43 116
Width: 1350
Flags: W
LayerCount: 2
Fore
SplineSet
488 0 m 1,0,-1
 488 408 l 1,1,-1
 81 408 l 1,2,-1
 81 750 l 1,3,-1
 488 750 l 1,4,-1
 488 1157 l 1,5,-1
 830 1157 l 1,6,-1
 830 750 l 1,7,-1
 1238 750 l 1,8,-1
 1238 408 l 1,9,-1
 830 408 l 1,10,-1
 830 0 l 1,11,-1
 488 0 l 1,0,-1
EndSplineSet
EndChar

StartChar: asterisk
Encoding: 42 42 117
Width: 1419
Flags: W
LayerCount: 2
Fore
SplineSet
604 971 m 1,0,-1
 543 911 l 1,1,-1
 403 1051 l 1,2,-1
 463 1110 l 1,3,-1
 379 1110 l 1,4,-1
 379 1309 l 1,5,-1
 463 1309 l 1,6,-1
 403 1368 l 1,7,-1
 543 1509 l 1,8,-1
 604 1448 l 1,9,-1
 604 1534 l 1,10,-1
 801 1534 l 1,11,-1
 801 1448 l 1,12,-1
 862 1509 l 1,13,-1
 1001 1368 l 1,14,-1
 940 1309 l 1,15,-1
 1026 1309 l 1,16,-1
 1026 1110 l 1,17,-1
 940 1110 l 1,18,-1
 1001 1051 l 1,19,-1
 862 911 l 1,20,-1
 801 971 l 1,21,-1
 801 887 l 1,22,-1
 604 887 l 1,23,-1
 604 971 l 1,0,-1
EndSplineSet
EndChar

StartChar: degree
Encoding: 176 176 118
Width: 905
Flags: W
LayerCount: 2
Fore
SplineSet
453 1286 m 0,0,1
 504 1286 504 1286 549 1266.5 c 128,-1,2
 594 1247 594 1247 627.5 1213.5 c 128,-1,3
 661 1180 661 1180 680.5 1135 c 128,-1,4
 700 1090 700 1090 700 1038 c 0,5,6
 700 987 700 987 680.5 942 c 128,-1,7
 661 897 661 897 627.5 863.5 c 128,-1,8
 594 830 594 830 549 810.5 c 128,-1,9
 504 791 504 791 453 791 c 0,10,11
 401 791 401 791 356 810.5 c 128,-1,12
 311 830 311 830 277.5 863.5 c 128,-1,13
 244 897 244 897 224.5 942 c 128,-1,14
 205 987 205 987 205 1038 c 0,15,16
 205 1090 205 1090 224.5 1135 c 128,-1,17
 244 1180 244 1180 277.5 1213.5 c 128,-1,18
 311 1247 311 1247 356 1266.5 c 128,-1,19
 401 1286 401 1286 453 1286 c 0,0,1
453 920 m 0,20,21
 477 920 477 920 498.5 929.5 c 128,-1,22
 520 939 520 939 536 955 c 128,-1,23
 552 971 552 971 561.5 992.5 c 128,-1,24
 571 1014 571 1014 571 1038 c 0,25,26
 571 1063 571 1063 561.5 1084.5 c 128,-1,27
 552 1106 552 1106 536 1122 c 128,-1,28
 520 1138 520 1138 498.5 1147.5 c 128,-1,29
 477 1157 477 1157 453 1157 c 0,30,31
 428 1157 428 1157 406.5 1147.5 c 128,-1,32
 385 1138 385 1138 369 1122 c 128,-1,33
 353 1106 353 1106 343.5 1084.5 c 128,-1,34
 334 1063 334 1063 334 1038 c 0,35,36
 334 1014 334 1014 343.5 992.5 c 128,-1,37
 353 971 353 971 369 955 c 128,-1,38
 385 939 385 939 406.5 929.5 c 128,-1,39
 428 920 428 920 453 920 c 0,20,21
EndSplineSet
EndChar

StartChar: numbersign
Encoding: 35 35 119
Width: 1884
Flags: W
LayerCount: 2
Fore
SplineSet
1407 1044 m 1,0,-1
 1339 729 l 1,1,-1
 1720 729 l 1,2,-1
 1720 469 l 1,3,-1
 1284 469 l 1,4,-1
 1186 0 l 1,5,-1
 905 0 l 1,6,-1
 1006 469 l 1,7,-1
 690 469 l 1,8,-1
 592 0 l 1,9,-1
 311 0 l 1,10,-1
 412 469 l 1,11,-1
 143 469 l 1,12,-1
 143 729 l 1,13,-1
 467 729 l 1,14,-1
 532 1044 l 1,15,-1
 143 1044 l 1,16,-1
 143 1303 l 1,17,-1
 588 1303 l 1,18,-1
 680 1735 l 1,19,-1
 961 1735 l 1,20,-1
 868 1303 l 1,21,-1
 1182 1303 l 1,22,-1
 1274 1735 l 1,23,-1
 1554 1735 l 1,24,-1
 1462 1303 l 1,25,-1
 1720 1303 l 1,26,-1
 1720 1044 l 1,27,-1
 1407 1044 l 1,0,-1
1126 1044 m 1,28,-1
 813 1044 l 1,29,-1
 745 729 l 1,30,-1
 1061 729 l 1,31,-1
 1126 1044 l 1,28,-1
EndSplineSet
EndChar

StartChar: less
Encoding: 60 60 120
Width: 942
Flags: W
LayerCount: 2
Fore
SplineSet
446 0 m 1,0,-1
 76 633 l 1,1,-1
 498 1214 l 1,2,-1
 774 1214 l 1,3,-1
 367 633 l 1,4,-1
 770 0 l 1,5,-1
 446 0 l 1,0,-1
EndSplineSet
EndChar

StartChar: greater
Encoding: 62 62 121
Width: 948
Flags: W
LayerCount: 2
Fore
SplineSet
176 0 m 1,0,-1
 582 633 l 1,1,-1
 174 1214 l 1,2,-1
 451 1214 l 1,3,-1
 872 633 l 1,4,-1
 502 0 l 1,5,-1
 176 0 l 1,0,-1
EndSplineSet
EndChar

StartChar: bracketleft
Encoding: 91 91 122
Width: 1182
Flags: W
LayerCount: 2
Fore
SplineSet
246 -686 m 1,0,-1
 272 1913 l 1,1,-1
 901 1913 l 1,2,-1
 901 1647 l 1,3,-1
 543 1647 l 1,4,-1
 563 -367 l 1,5,-1
 901 -367 l 1,6,-1
 901 -686 l 1,7,-1
 246 -686 l 1,0,-1
EndSplineSet
EndChar

StartChar: bracketright
Encoding: 93 93 123
Width: 1182
Flags: W
LayerCount: 2
Fore
SplineSet
211 -686 m 1,0,-1
 211 -367 l 1,1,-1
 549 -367 l 1,2,-1
 569 1647 l 1,3,-1
 211 1647 l 1,4,-1
 211 1913 l 1,5,-1
 842 1913 l 1,6,-1
 866 -686 l 1,7,-1
 211 -686 l 1,0,-1
EndSplineSet
EndChar

StartChar: circumflex
Encoding: 710 710 124
Width: 1151
Flags: W
LayerCount: 2
Fore
SplineSet
764 1432 m 1,0,-1
 569 1630 l 1,1,-1
 373 1432 l 1,2,-1
 240 1565 l 1,3,-1
 569 1913 l 1,4,-1
 897 1565 l 1,5,-1
 764 1432 l 1,0,-1
EndSplineSet
EndChar

StartChar: bullet
Encoding: 8226 8226 125
Width: 1436
Flags: W
LayerCount: 2
Fore
SplineSet
1030 631 m 0,0,1
 1030 556 1030 556 1002 490.5 c 128,-1,2
 974 425 974 425 925 376 c 128,-1,3
 876 327 876 327 810.5 298.5 c 128,-1,4
 745 270 745 270 670 270 c 256,5,6
 595 270 595 270 529.5 298.5 c 128,-1,7
 464 327 464 327 415 376 c 128,-1,8
 366 425 366 425 337.5 490.5 c 128,-1,9
 309 556 309 556 309 631 c 0,10,11
 309 705 309 705 337.5 770.5 c 128,-1,12
 366 836 366 836 415 885 c 128,-1,13
 464 934 464 934 529.5 962.5 c 128,-1,14
 595 991 595 991 670 991 c 256,15,16
 745 991 745 991 810.5 962.5 c 128,-1,17
 876 934 876 934 925 885 c 128,-1,18
 974 836 974 836 1002 770.5 c 128,-1,19
 1030 705 1030 705 1030 631 c 0,0,1
EndSplineSet
EndChar

StartChar: braceleft
Encoding: 123 123 126
Width: 1264
Flags: W
LayerCount: 2
Fore
SplineSet
1026 -686 m 1,0,1
 998 -678 998 -678 955.5 -657 c 128,-1,2
 913 -636 913 -636 866 -606 c 128,-1,3
 819 -576 819 -576 773.5 -538 c 128,-1,4
 728 -500 728 -500 694 -457 c 0,5,6
 651 -401 651 -401 624 -354 c 128,-1,7
 597 -307 597 -307 586 -281 c 0,8,9
 581 -267 581 -267 573 -248 c 0,10,11
 556 -208 556 -208 536.5 -158.5 c 128,-1,12
 517 -109 517 -109 500 -47 c 0,13,14
 472 53 472 53 448.5 159.5 c 128,-1,15
 425 266 425 266 414 381 c 0,16,17
 412 392 412 392 411 403 c 128,-1,18
 410 414 410 414 410 426 c 1,19,-1
 408 426 l 1,20,21
 408 444 408 444 399.5 461 c 128,-1,22
 391 478 391 478 377.5 494.5 c 128,-1,23
 364 511 364 511 347.5 525 c 128,-1,24
 331 539 331 539 315 551 c 0,25,26
 297 564 297 564 279 575 c 128,-1,27
 261 586 261 586 247 593.5 c 128,-1,28
 233 601 233 601 224.5 605.5 c 128,-1,29
 216 610 216 610 215 610 c 2,30,-1
 154 637 l 1,31,-1
 215 666 l 2,32,33
 234 674 234 674 265 690.5 c 128,-1,34
 296 707 296 707 326.5 730 c 128,-1,35
 357 753 357 753 381 780.5 c 128,-1,36
 405 808 405 808 410 836 c 1,37,-1
 410 842 l 1,38,-1
 410 844 l 1,39,-1
 410 846 l 1,40,41
 415 903 415 903 423.5 959.5 c 128,-1,42
 432 1016 432 1016 443.5 1074 c 128,-1,43
 455 1132 455 1132 470 1192.5 c 128,-1,44
 485 1253 485 1253 504 1319 c 0,45,46
 516 1361 516 1361 537.5 1413 c 128,-1,47
 559 1465 559 1465 584.5 1517.5 c 128,-1,48
 610 1570 610 1570 636.5 1618.5 c 128,-1,49
 663 1667 663 1667 686 1704 c 0,50,51
 710 1740 710 1740 740 1772.5 c 128,-1,52
 770 1805 770 1805 803.5 1831.5 c 128,-1,53
 837 1858 837 1858 874 1877 c 128,-1,54
 911 1896 911 1896 948 1905 c 0,55,56
 956 1907 956 1907 969 1908.5 c 128,-1,57
 982 1910 982 1910 995 1911 c 0,58,59
 1010 1912 1010 1912 1026 1913 c 1,60,-1
 1010 1870 l 2,61,62
 939 1681 939 1681 897.5 1538.5 c 128,-1,63
 856 1396 856 1396 831 1292 c 0,64,65
 809 1194 809 1194 788 1084 c 128,-1,66
 767 974 767 974 758 842 c 0,67,68
 754 811 754 811 742.5 785.5 c 128,-1,69
 731 760 731 760 714.5 739 c 128,-1,70
 698 718 698 718 678 700.5 c 128,-1,71
 658 683 658 683 637 668 c 0,72,73
 610 650 610 650 588 637 c 1,74,75
 600 629 600 629 614.5 620 c 128,-1,76
 629 611 629 611 643 600 c 0,77,78
 753 524 753 524 762 438 c 0,79,80
 770 362 770 362 780.5 289 c 128,-1,81
 791 216 791 216 803.5 149.5 c 128,-1,82
 816 83 816 83 829 24.5 c 128,-1,83
 842 -34 842 -34 854 -80 c 0,84,85
 879 -180 879 -180 931.5 -323.5 c 128,-1,86
 984 -467 984 -467 1055 -647 c 1,87,-1
 1069 -686 l 1,88,-1
 1026 -686 l 1,0,1
EndSplineSet
EndChar

StartChar: braceright
Encoding: 125 125 127
Width: 1260
Flags: W
LayerCount: 2
Fore
SplineSet
190 -647 m 2,0,1
 262 -467 262 -467 314 -323.5 c 128,-1,2
 366 -180 366 -180 391 -80 c 0,3,4
 403 -34 403 -34 416 24.5 c 128,-1,5
 429 83 429 83 441.5 149.5 c 128,-1,6
 454 216 454 216 465 289 c 128,-1,7
 476 362 476 362 483 438 c 0,8,9
 489 522 489 522 602 600 c 0,10,11
 616 611 616 611 630.5 620 c 128,-1,12
 645 629 645 629 657 637 c 1,13,14
 635 650 635 650 608 668 c 0,15,16
 500 745 500 745 487 827 c 1,17,-1
 487 842 l 1,18,19
 478 974 478 974 457.5 1084 c 128,-1,20
 437 1194 437 1194 414 1292 c 0,21,22
 389 1396 389 1396 348 1538.5 c 128,-1,23
 307 1681 307 1681 236 1870 c 2,24,-1
 219 1913 l 1,25,26
 235 1912 235 1912 250 1911 c 0,27,28
 263 1910 263 1910 276 1908.5 c 128,-1,29
 289 1907 289 1907 297 1905 c 0,30,31
 335 1896 335 1896 371.5 1877 c 128,-1,32
 408 1858 408 1858 442 1831.5 c 128,-1,33
 476 1805 476 1805 505.5 1772.5 c 128,-1,34
 535 1740 535 1740 559 1704 c 0,35,36
 582 1667 582 1667 609 1618.5 c 128,-1,37
 636 1570 636 1570 661.5 1517.5 c 128,-1,38
 687 1465 687 1465 708 1413 c 128,-1,39
 729 1361 729 1361 741 1319 c 0,40,41
 761 1253 761 1253 776 1192.5 c 128,-1,42
 791 1132 791 1132 802.5 1074 c 128,-1,43
 814 1016 814 1016 822 959.5 c 128,-1,44
 830 903 830 903 836 846 c 1,45,-1
 836 836 l 1,46,47
 840 808 840 808 863.5 780.5 c 128,-1,48
 887 753 887 753 917.5 730 c 128,-1,49
 948 707 948 707 979 690.5 c 128,-1,50
 1010 674 1010 674 1028 666 c 2,51,-1
 1092 637 l 1,52,-1
 1030 610 l 2,53,54
 1029 610 1029 610 1020.5 605.5 c 128,-1,55
 1012 601 1012 601 997.5 593.5 c 128,-1,56
 983 586 983 586 965 575 c 128,-1,57
 947 564 947 564 928 551 c 0,58,59
 913 539 913 539 896.5 525 c 128,-1,60
 880 511 880 511 866.5 494.5 c 128,-1,61
 853 478 853 478 844.5 461 c 128,-1,62
 836 444 836 444 836 426 c 0,63,64
 836 404 836 404 831 381 c 0,65,66
 820 266 820 266 796.5 159.5 c 128,-1,67
 773 53 773 53 745 -47 c 0,68,69
 727 -109 727 -109 708 -158.5 c 128,-1,70
 689 -208 689 -208 672 -248 c 0,71,72
 667 -265 667 -265 659 -281 c 0,73,74
 647 -307 647 -307 620.5 -354 c 128,-1,75
 594 -401 594 -401 551 -457 c 0,76,77
 517 -500 517 -500 471.5 -538 c 128,-1,78
 426 -576 426 -576 379 -606 c 128,-1,79
 332 -636 332 -636 289.5 -657 c 128,-1,80
 247 -678 247 -678 219 -686 c 1,81,-1
 174 -686 l 1,82,-1
 190 -647 l 2,0,1
EndSplineSet
EndChar

StartChar: bar
Encoding: 124 124 128
Width: 854
Flags: W
LayerCount: 2
Fore
SplineSet
254 -43 m 1,0,-1
 285 1913 l 1,1,-1
 551 1913 l 1,2,-1
 582 -43 l 1,3,-1
 254 -43 l 1,0,-1
EndSplineSet
EndChar

StartChar: endash
Encoding: 8211 8211 129
Width: 2382
Flags: W
LayerCount: 2
Fore
SplineSet
367 455 m 1,0,-1
 367 803 l 1,1,-1
 2068 803 l 1,2,-1
 2068 455 l 1,3,-1
 367 455 l 1,0,-1
EndSplineSet
EndChar

StartChar: germandbls
Encoding: 223 223 130
Width: 1898
Flags: W
LayerCount: 2
Fore
SplineSet
776 1690 m 2,0,1
 721 1690 721 1690 676.5 1669.5 c 128,-1,2
 632 1649 632 1649 601 1614 c 128,-1,3
 570 1579 570 1579 553.5 1533.5 c 128,-1,4
 537 1488 537 1488 537 1438 c 2,5,-1
 567 0 l 1,6,-1
 205 0 l 1,7,-1
 238 1473 l 2,8,9
 238 1564 238 1564 284 1644 c 128,-1,10
 330 1724 330 1724 405.5 1784 c 128,-1,11
 481 1844 481 1844 578 1878.5 c 128,-1,12
 675 1913 675 1913 776 1913 c 2,13,-1
 1018 1913 l 2,14,15
 1119 1913 1119 1913 1216 1878.5 c 128,-1,16
 1313 1844 1313 1844 1388.5 1784 c 128,-1,17
 1464 1724 1464 1724 1510 1644 c 128,-1,18
 1556 1564 1556 1564 1556 1473 c 0,19,20
 1556 1410 1556 1410 1546 1352 c 128,-1,21
 1536 1294 1536 1294 1509 1243.5 c 128,-1,22
 1482 1193 1482 1193 1434.5 1152.5 c 128,-1,23
 1387 1112 1387 1112 1313 1083 c 1,24,-1
 1311 1081 l 1,25,26
 1394 1056 1394 1056 1464 1006.5 c 128,-1,27
 1534 957 1534 957 1585 889.5 c 128,-1,28
 1636 822 1636 822 1665 739.5 c 128,-1,29
 1694 657 1694 657 1694 565 c 0,30,31
 1694 489 1694 489 1672.5 418 c 128,-1,32
 1651 347 1651 347 1613 284 c 128,-1,33
 1575 221 1575 221 1522.5 169 c 128,-1,34
 1470 117 1470 117 1407 79.5 c 128,-1,35
 1344 42 1344 42 1273.5 21 c 128,-1,36
 1203 0 1203 0 1128 0 c 2,37,-1
 895 0 l 1,38,-1
 889 297 l 1,39,-1
 1102 297 l 2,40,41
 1166 297 1166 297 1222 321 c 128,-1,42
 1278 345 1278 345 1320 386.5 c 128,-1,43
 1362 428 1362 428 1386.5 484 c 128,-1,44
 1411 540 1411 540 1411 604 c 256,45,46
 1411 668 1411 668 1386.5 724 c 128,-1,47
 1362 780 1362 780 1320 822 c 128,-1,48
 1278 864 1278 864 1222 888.5 c 128,-1,49
 1166 913 1166 913 1102 913 c 2,50,-1
 877 913 l 1,51,-1
 870 1188 l 1,52,-1
 1018 1188 l 2,53,54
 1072 1188 1072 1188 1120 1208 c 128,-1,55
 1168 1228 1168 1228 1204 1262 c 128,-1,56
 1240 1296 1240 1296 1261 1341 c 128,-1,57
 1282 1386 1282 1386 1282 1436 c 0,58,59
 1282 1485 1282 1485 1261 1531 c 128,-1,60
 1240 1577 1240 1577 1203.5 1612 c 128,-1,61
 1167 1647 1167 1647 1118.5 1668.5 c 128,-1,62
 1070 1690 1070 1690 1016 1690 c 2,63,-1
 776 1690 l 2,0,1
EndSplineSet
EndChar

StartChar: Ccedilla
Encoding: 199 199 131
Width: 2130
Flags: W
LayerCount: 2
Fore
SplineSet
887 -672 m 1,0,-1
 887 -481 l 1,1,-1
 1096 -481 l 2,2,3
 1120 -481 1120 -481 1141.5 -471.5 c 128,-1,4
 1163 -462 1163 -462 1178.5 -446.5 c 128,-1,5
 1194 -431 1194 -431 1203 -410 c 128,-1,6
 1212 -389 1212 -389 1212 -365 c 256,7,8
 1212 -341 1212 -341 1203 -319.5 c 128,-1,9
 1194 -298 1194 -298 1178.5 -282.5 c 128,-1,10
 1163 -267 1163 -267 1141.5 -257.5 c 128,-1,11
 1120 -248 1120 -248 1096 -248 c 2,12,-1
 944 -248 l 1,13,-1
 944 -23 l 1,14,15
 788 -6 788 -6 660.5 60.5 c 128,-1,16
 533 127 533 127 442 240 c 0,17,18
 388 308 388 308 345.5 385.5 c 128,-1,19
 303 463 303 463 272 553 c 0,20,21
 257 598 257 598 246 641.5 c 128,-1,22
 235 685 235 685 227.5 728.5 c 128,-1,23
 220 772 220 772 216.5 817 c 128,-1,24
 213 862 213 862 213 911 c 0,25,26
 213 1033 213 1033 227 1138 c 128,-1,27
 241 1243 241 1243 270 1337 c 0,28,29
 301 1428 301 1428 345 1508 c 128,-1,30
 389 1588 389 1588 451 1657 c 0,31,32
 568 1793 568 1793 739 1864 c 0,33,34
 901 1931 901 1931 1090 1931 c 0,35,36
 1247 1931 1247 1931 1376 1893 c 128,-1,37
 1505 1855 1505 1855 1604 1778 c 0,38,39
 1679 1721 1679 1721 1724 1645 c 0,40,41
 1750 1603 1750 1603 1769 1556 c 128,-1,42
 1788 1509 1788 1509 1800 1458 c 2,43,-1
 1808 1421 l 1,44,-1
 1438 1421 l 1,45,-1
 1436 1448 l 2,46,47
 1431 1482 1431 1482 1411.5 1510.5 c 128,-1,48
 1392 1539 1392 1539 1376 1554 c 0,49,50
 1329 1605 1329 1605 1262.5 1627 c 128,-1,51
 1196 1649 1196 1649 1092 1649 c 0,52,53
 1024 1649 1024 1649 959 1627.5 c 128,-1,54
 894 1606 894 1606 837 1567 c 128,-1,55
 780 1528 780 1528 734 1473.5 c 128,-1,56
 688 1419 688 1419 659 1352 c 0,57,58
 640 1308 640 1308 626 1272.5 c 128,-1,59
 612 1237 612 1237 603 1198.5 c 128,-1,60
 594 1160 594 1160 589.5 1113 c 128,-1,61
 585 1066 585 1066 584 999 c 0,62,63
 584 935 584 935 594.5 874 c 128,-1,64
 605 813 605 813 621 760 c 128,-1,65
 637 707 637 707 655.5 664 c 128,-1,66
 674 621 674 621 690 592 c 0,67,68
 693 587 693 587 695.5 582.5 c 128,-1,69
 698 578 698 578 700 571 c 0,70,71
 709 554 709 554 721.5 532.5 c 128,-1,72
 734 511 734 511 753.5 488 c 128,-1,73
 773 465 773 465 800 443 c 128,-1,74
 827 421 827 421 865.5 403.5 c 128,-1,75
 904 386 904 386 954 375.5 c 128,-1,76
 1004 365 1004 365 1069 365 c 0,77,78
 1115 365 1115 365 1159 369 c 128,-1,79
 1203 373 1203 373 1239.5 379.5 c 128,-1,80
 1276 386 1276 386 1302.5 394 c 128,-1,81
 1329 402 1329 402 1341 410 c 0,82,83
 1366 427 1366 427 1381 457 c 128,-1,84
 1396 487 1396 487 1401 524 c 2,85,-1
 1403 551 l 1,86,-1
 1849 551 l 1,87,-1
 1849 520 l 2,88,89
 1849 365 1849 365 1767 244 c 0,90,91
 1710 157 1710 157 1612 92 c 0,92,93
 1516 25 1516 25 1374 -2 c 0,94,95
 1322 -13 1322 -13 1262 -19 c 128,-1,96
 1202 -25 1202 -25 1126 -27 c 1,97,-1
 1126 -59 l 1,98,99
 1185 -65 1185 -65 1235.5 -91 c 128,-1,100
 1286 -117 1286 -117 1323 -158 c 128,-1,101
 1360 -199 1360 -199 1381.5 -252 c 128,-1,102
 1403 -305 1403 -305 1403 -365 c 0,103,104
 1403 -428 1403 -428 1379 -483.5 c 128,-1,105
 1355 -539 1355 -539 1313.5 -581 c 128,-1,106
 1272 -623 1272 -623 1216 -647.5 c 128,-1,107
 1160 -672 1160 -672 1096 -672 c 2,108,-1
 887 -672 l 1,0,-1
EndSplineSet
EndChar

StartChar: ccedilla
Encoding: 231 231 132
Width: 1352
Flags: W
LayerCount: 2
Fore
SplineSet
547 -475 m 1,0,-1
 547 -326 l 1,1,-1
 702 -326 l 2,2,3
 733 -326 733 -326 754.5 -304.5 c 128,-1,4
 776 -283 776 -283 776 -252 c 256,5,6
 776 -221 776 -221 754.5 -199.5 c 128,-1,7
 733 -178 733 -178 702 -178 c 2,8,-1
 586 -178 l 1,9,-1
 586 -39 l 1,10,11
 541 -33 541 -33 498.5 -21.5 c 128,-1,12
 456 -10 456 -10 418 8 c 0,13,14
 324 52 324 52 262 129 c 0,15,16
 193 214 193 214 156 331 c 128,-1,17
 119 448 119 448 119 586 c 0,18,19
 119 664 119 664 129 733 c 128,-1,20
 139 802 139 802 158 862 c 0,21,22
 197 982 197 982 276 1073 c 0,23,24
 354 1163 354 1163 465 1208 c 0,25,26
 519 1231 519 1231 576.5 1242 c 128,-1,27
 634 1253 634 1253 696 1253 c 0,28,29
 800 1253 800 1253 884.5 1228.5 c 128,-1,30
 969 1204 969 1204 1034 1153 c 0,31,32
 1127 1082 1127 1082 1167 942 c 1,33,-1
 1180 905 l 1,34,-1
 907 905 l 1,35,-1
 901 924 l 2,36,37
 893 944 893 944 885 956 c 128,-1,38
 877 968 877 968 864 979 c 0,39,40
 849 993 849 993 834 1005.5 c 128,-1,41
 819 1018 819 1018 799.5 1027 c 128,-1,42
 780 1036 780 1036 755.5 1041.5 c 128,-1,43
 731 1047 731 1047 698 1047 c 0,44,45
 609 1047 609 1047 541 996.5 c 128,-1,46
 473 946 473 946 436 864 c 0,47,48
 425 837 425 837 417.5 816 c 128,-1,49
 410 795 410 795 406 772 c 128,-1,50
 402 749 402 749 400.5 720 c 128,-1,51
 399 691 399 691 399 647 c 0,52,53
 399 566 399 566 412.5 503 c 128,-1,54
 426 440 426 440 457 377 c 1,55,-1
 457 375 l 1,56,57
 469 349 469 349 480.5 330 c 128,-1,58
 492 311 492 311 512 297 c 0,59,60
 537 281 537 281 579 273.5 c 128,-1,61
 621 266 621 266 684 266 c 2,62,-1
 700 266 l 2,63,64
 766 266 766 266 805 271 c 128,-1,65
 844 276 844 276 856 283 c 0,66,67
 872 291 872 291 878.5 298 c 128,-1,68
 885 305 885 305 887 324 c 2,69,-1
 891 350 l 1,70,-1
 1196 350 l 1,71,-1
 1196 319 l 2,72,73
 1196 281 1196 281 1182.5 239.5 c 128,-1,74
 1169 198 1169 198 1141 156 c 0,75,76
 1121 124 1121 124 1093.5 94.5 c 128,-1,77
 1066 65 1066 65 1040 45 c 0,78,79
 980 0 980 0 912.5 -18 c 128,-1,80
 845 -36 845 -36 776 -41 c 1,81,82
 809 -53 809 -53 836.5 -73.5 c 128,-1,83
 864 -94 864 -94 884 -121.5 c 128,-1,84
 904 -149 904 -149 915 -182 c 128,-1,85
 926 -215 926 -215 926 -252 c 0,86,87
 926 -298 926 -298 908.5 -338.5 c 128,-1,88
 891 -379 891 -379 860.5 -409.5 c 128,-1,89
 830 -440 830 -440 789 -457.5 c 128,-1,90
 748 -475 748 -475 702 -475 c 2,91,-1
 547 -475 l 1,0,-1
EndSplineSet
EndChar

StartChar: trademark
Encoding: 8482 8482 133
Width: 1419
Flags: W
LayerCount: 2
Fore
SplineSet
305 1356 m 1,0,-1
 315 1796 l 1,1,-1
 154 1796 l 1,2,-1
 154 1913 l 1,3,-1
 600 1913 l 1,4,-1
 600 1796 l 1,5,-1
 438 1796 l 1,6,-1
 453 1356 l 1,7,-1
 305 1356 l 1,0,-1
1112 1356 m 1,8,-1
 1122 1655 l 1,9,-1
 1042 1436 l 1,10,-1
 901 1436 l 1,11,-1
 821 1655 l 1,12,-1
 831 1356 l 1,13,-1
 676 1356 l 1,14,-1
 715 1913 l 1,15,-1
 842 1913 l 1,16,-1
 971 1610 l 1,17,-1
 1102 1913 l 1,18,-1
 1229 1913 l 1,19,-1
 1266 1356 l 1,20,-1
 1112 1356 l 1,8,-1
EndSplineSet
EndChar

StartChar: cedilla
Encoding: 184 184 134
Width: 1706
Flags: W
LayerCount: 2
Fore
SplineSet
807 0 m 1,0,1
 839 -12 839 -12 866.5 -32.5 c 128,-1,2
 894 -53 894 -53 914 -80.5 c 128,-1,3
 934 -108 934 -108 945 -141 c 128,-1,4
 956 -174 956 -174 956 -211 c 0,5,6
 956 -257 956 -257 938.5 -297.5 c 128,-1,7
 921 -338 921 -338 890.5 -368.5 c 128,-1,8
 860 -399 860 -399 819 -416.5 c 128,-1,9
 778 -434 778 -434 731 -434 c 1,10,-1
 731 -434 l 1,11,-1
 578 -434 l 1,12,-1
 578 -285 l 1,13,-1
 731 -285 l 2,14,15
 762 -285 762 -285 783.5 -263.5 c 128,-1,16
 805 -242 805 -242 805 -211 c 256,17,18
 805 -180 805 -180 783.5 -158.5 c 128,-1,19
 762 -137 762 -137 731 -137 c 2,20,-1
 616 -137 l 1,21,-1
 616 0 l 1,22,-1
 807 0 l 1,0,1
EndSplineSet
EndChar

StartChar: oslash
Encoding: 248 248 136
Width: 1466
Flags: W
LayerCount: 2
Fore
SplineSet
197 -82 m 1,0,-1
 313 119 l 1,1,-1
 303 129 l 1,2,3
 265 174 265 174 234.5 224 c 128,-1,4
 204 274 204 274 184 328 c 0,5,6
 161 388 161 388 149 452 c 128,-1,7
 137 516 137 516 137 584 c 0,8,9
 137 656 137 656 149.5 724.5 c 128,-1,10
 162 793 162 793 186 858 c 0,11,12
 208 917 208 917 239.5 969.5 c 128,-1,13
 271 1022 271 1022 311 1071 c 0,14,15
 466 1253 466 1253 725 1253 c 2,16,-1
 739 1253 l 2,17,18
 854 1253 854 1253 948 1217 c 1,19,-1
 993 1292 l 1,20,-1
 1264 1292 l 1,21,-1
 1145 1077 l 1,22,-1
 1151 1071 l 1,23,24
 1191 1022 1191 1022 1222.5 969.5 c 128,-1,25
 1254 917 1254 917 1276 858 c 0,26,27
 1325 730 1325 730 1325 584 c 0,28,29
 1325 449 1325 449 1278 328 c 0,30,31
 1256 274 1256 274 1226.5 224 c 128,-1,32
 1197 174 1197 174 1157 129 c 0,33,34
 1083 42 1083 42 983 -0.5 c 128,-1,35
 883 -43 883 -43 758 -43 c 2,36,-1
 705 -43 l 2,37,38
 660 -43 660 -43 618.5 -38.5 c 128,-1,39
 577 -34 577 -34 539 -23 c 1,40,-1
 506 -82 l 1,41,-1
 197 -82 l 1,0,-1
721 266 m 1,42,-1
 733 266 l 2,43,44
 823 266 823 266 879 288.5 c 128,-1,45
 935 311 935 311 967 362 c 0,46,47
 985 389 985 389 999 417 c 128,-1,48
 1013 445 1013 445 1023 476.5 c 128,-1,49
 1033 508 1033 508 1038.5 545.5 c 128,-1,50
 1044 583 1044 583 1044 629 c 0,51,52
 1044 688 1044 688 1035 735 c 128,-1,53
 1026 782 1026 782 1008 825 c 1,54,-1
 698 266 l 1,55,-1
 721 266 l 1,42,-1
727 1034 m 2,56,57
 653 1034 653 1034 601.5 1006 c 128,-1,58
 550 978 550 978 504 913 c 0,59,60
 481 880 481 880 464.5 848.5 c 128,-1,61
 448 817 448 817 437.5 783.5 c 128,-1,62
 427 750 427 750 422.5 713 c 128,-1,63
 418 676 418 676 418 633 c 0,64,65
 418 593 418 593 421 559.5 c 128,-1,66
 424 526 424 526 430 497 c 128,-1,67
 436 468 436 468 445.5 441.5 c 128,-1,68
 455 415 455 415 469 389 c 1,69,-1
 834 1020 l 1,70,71
 793 1034 793 1034 735 1034 c 2,72,-1
 727 1034 l 2,56,57
EndSplineSet
EndChar

StartChar: acute
Encoding: 180 180 140
Width: 1706
Flags: W
LayerCount: 2
Fore
SplineSet
1130 1722 m 1,0,-1
 737 1356 l 1,1,-1
 573 1522 l 1,2,-1
 940 1913 l 1,3,-1
 1130 1722 l 1,0,-1
EndSplineSet
EndChar

StartChar: copyright
Encoding: 169 169 141
Width: 1706
Flags: W
LayerCount: 2
Fore
SplineSet
848 -43 m 0,0,1
 715 -43 715 -43 597.5 6 c 128,-1,2
 480 55 480 55 387 147 c 0,3,4
 294 240 294 240 245.5 357.5 c 128,-1,5
 197 475 197 475 197 608 c 0,6,7
 197 739 197 739 245.5 855 c 128,-1,8
 294 971 294 971 387 1065 c 0,9,10
 480 1158 480 1158 597.5 1205.5 c 128,-1,11
 715 1253 715 1253 848 1253 c 0,12,13
 976 1253 976 1253 1093 1205.5 c 128,-1,14
 1210 1158 1210 1158 1303 1065 c 0,15,16
 1395 971 1395 971 1444 855 c 128,-1,17
 1493 739 1493 739 1493 608 c 0,18,19
 1493 475 1493 475 1444 357.5 c 128,-1,20
 1395 240 1395 240 1303 147 c 0,21,22
 1210 55 1210 55 1093 6 c 128,-1,23
 976 -43 976 -43 848 -43 c 0,0,1
848 1069 m 0,24,25
 751 1069 751 1069 666 1033 c 128,-1,26
 581 997 581 997 517.5 934.5 c 128,-1,27
 454 872 454 872 417.5 788 c 128,-1,28
 381 704 381 704 381 608 c 0,29,30
 381 511 381 511 417.5 426 c 128,-1,31
 454 341 454 341 517.5 277.5 c 128,-1,32
 581 214 581 214 666 177.5 c 128,-1,33
 751 141 751 141 848 141 c 0,34,35
 943 141 943 141 1026.5 177.5 c 128,-1,36
 1110 214 1110 214 1173 277.5 c 128,-1,37
 1236 341 1236 341 1272.5 426 c 128,-1,38
 1309 511 1309 511 1309 608 c 0,39,40
 1309 704 1309 704 1272.5 788 c 128,-1,41
 1236 872 1236 872 1173 934.5 c 128,-1,42
 1110 997 1110 997 1026.5 1033 c 128,-1,43
 943 1069 943 1069 848 1069 c 0,24,25
829 303 m 0,44,45
 768 303 768 303 718 325.5 c 128,-1,46
 668 348 668 348 633 391 c 0,47,48
 598 435 598 435 578.5 491 c 128,-1,49
 559 547 559 547 559 610 c 0,50,51
 559 686 559 686 578 743.5 c 128,-1,52
 597 801 597 801 635 848 c 0,53,54
 672 891 672 891 725.5 912.5 c 128,-1,55
 779 934 779 934 842 934 c 0,56,57
 893 934 893 934 935.5 922 c 128,-1,58
 978 910 978 910 1010 885 c 0,59,60
 1038 865 1038 865 1053.5 836.5 c 128,-1,61
 1069 808 1069 808 1075 776 c 2,62,-1
 1083 735 l 1,63,-1
 926 735 l 1,64,65
 923 761 923 761 918.5 769.5 c 128,-1,66
 914 778 914 778 909 784 c 0,67,68
 901 791 901 791 887.5 797 c 128,-1,69
 874 803 874 803 842 803 c 256,70,71
 810 803 810 803 781.5 783 c 128,-1,72
 753 763 753 763 739 729 c 0,73,74
 733 717 733 717 729 708 c 128,-1,75
 725 699 725 699 722 689 c 128,-1,76
 719 679 719 679 718 667 c 128,-1,77
 717 655 717 655 717 637 c 0,78,79
 717 602 717 602 726.5 569 c 128,-1,80
 736 536 736 536 745 520 c 2,81,-1
 748 516 l 2,82,83
 752 509 752 509 757.5 500 c 128,-1,84
 763 491 763 491 773 484 c 128,-1,85
 783 477 783 477 798.5 472 c 128,-1,86
 814 467 814 467 838 467 c 0,87,88
 847 467 847 467 858.5 467.5 c 128,-1,89
 870 468 870 468 880.5 470 c 128,-1,90
 891 472 891 472 899 477.5 c 128,-1,91
 907 483 907 483 909 492 c 2,92,-1
 913 520 l 1,93,-1
 1092 520 l 1,94,-1
 1092 489 l 2,95,96
 1092 443 1092 443 1072 405.5 c 128,-1,97
 1052 368 1052 368 1010 342 c 0,98,99
 976 317 976 317 931 310 c 128,-1,100
 886 303 886 303 829 303 c 0,44,45
EndSplineSet
EndChar

StartChar: registered
Encoding: 174 174 142
Width: 1706
Flags: W
LayerCount: 2
Fore
SplineSet
831 -43 m 0,0,1
 703 -43 703 -43 585.5 6.5 c 128,-1,2
 468 56 468 56 375 147 c 0,3,4
 284 240 284 240 234 358 c 128,-1,5
 184 476 184 476 184 604 c 0,6,7
 184 734 184 734 234 852 c 128,-1,8
 284 970 284 970 375 1063 c 0,9,10
 468 1154 468 1154 585.5 1203.5 c 128,-1,11
 703 1253 703 1253 831 1253 c 0,12,13
 963 1253 963 1253 1081 1203.5 c 128,-1,14
 1199 1154 1199 1154 1292 1063 c 0,15,16
 1383 970 1383 970 1433 852 c 128,-1,17
 1483 734 1483 734 1483 604 c 0,18,19
 1483 476 1483 476 1433 358 c 128,-1,20
 1383 240 1383 240 1292 147 c 0,21,22
 1199 56 1199 56 1081 6.5 c 128,-1,23
 963 -43 963 -43 831 -43 c 0,0,1
831 1069 m 0,24,25
 737 1069 737 1069 653.5 1032.5 c 128,-1,26
 570 996 570 996 507 932.5 c 128,-1,27
 444 869 444 869 407.5 784.5 c 128,-1,28
 371 700 371 700 371 604 c 0,29,30
 371 510 371 510 407.5 425.5 c 128,-1,31
 444 341 444 341 507 278 c 128,-1,32
 570 215 570 215 653.5 178 c 128,-1,33
 737 141 737 141 831 141 c 0,34,35
 927 141 927 141 1011.5 178 c 128,-1,36
 1096 215 1096 215 1159.5 278 c 128,-1,37
 1223 341 1223 341 1259.5 425.5 c 128,-1,38
 1296 510 1296 510 1296 604 c 0,39,40
 1296 700 1296 700 1259.5 784.5 c 128,-1,41
 1223 869 1223 869 1159.5 932.5 c 128,-1,42
 1096 996 1096 996 1011.5 1032.5 c 128,-1,43
 927 1069 927 1069 831 1069 c 0,24,25
1116 391 m 1,44,-1
 991 567 l 1,45,46
 1033 593 1033 593 1060 635.5 c 128,-1,47
 1087 678 1087 678 1087 729 c 0,48,49
 1087 770 1087 770 1071.5 806 c 128,-1,50
 1056 842 1056 842 1029 868.5 c 128,-1,51
 1002 895 1002 895 966 910.5 c 128,-1,52
 930 926 930 926 889 926 c 2,53,-1
 625 926 l 1,54,-1
 610 311 l 1,55,-1
 776 311 l 1,56,-1
 772 545 l 1,57,-1
 819 545 l 2,58,59
 828 545 828 545 833.5 538 c 128,-1,60
 839 531 839 531 844 520 c 2,61,-1
 965 311 l 1,62,-1
 1118 311 l 1,63,-1
 1116 391 l 1,44,-1
891 684 m 2,64,-1
 764 684 l 1,65,-1
 762 791 l 1,66,-1
 891 791 l 2,67,68
 917 791 917 791 929.5 776 c 128,-1,69
 942 761 942 761 942 739 c 0,70,71
 942 716 942 716 927.5 700 c 128,-1,72
 913 684 913 684 891 684 c 2,64,-1
EndSplineSet
EndChar

StartChar: tilde
Encoding: 732 732 145
Width: 1706
Flags: W
LayerCount: 2
Fore
SplineSet
987 1380 m 1,0,-1
 725 1630 l 1,1,-1
 541 1419 l 1,2,-1
 395 1565 l 1,3,-1
 725 1913 l 1,4,-1
 987 1669 l 1,5,-1
 1182 1913 l 1,6,-1
 1321 1776 l 1,7,-1
 987 1380 l 1,0,-1
EndSplineSet
EndChar

StartChar: asciitilde
Encoding: 126 126 146
Width: 1229
Flags: W
LayerCount: 2
Fore
SplineSet
739 365 m 1,0,-1
 477 614 l 1,1,-1
 293 403 l 1,2,-1
 147 549 l 1,3,-1
 477 897 l 1,4,-1
 739 653 l 1,5,-1
 934 897 l 1,6,-1
 1073 760 l 1,7,-1
 739 365 l 1,0,-1
EndSplineSet
EndChar

StartChar: periodcentered
Encoding: 183 183 147
Width: 799
Flags: W
LayerCount: 2
Fore
SplineSet
598 936 m 256,0,1
 598 894 598 894 582 857 c 128,-1,2
 566 820 566 820 538 792.5 c 128,-1,3
 510 765 510 765 473.5 749 c 128,-1,4
 437 733 437 733 395 733 c 256,5,6
 353 733 353 733 315.5 749 c 128,-1,7
 278 765 278 765 250.5 792.5 c 128,-1,8
 223 820 223 820 206.5 857 c 128,-1,9
 190 894 190 894 190 936 c 256,10,11
 190 978 190 978 206.5 1015 c 128,-1,12
 223 1052 223 1052 250.5 1079.5 c 128,-1,13
 278 1107 278 1107 315.5 1123 c 128,-1,14
 353 1139 353 1139 395 1139 c 256,15,16
 437 1139 437 1139 473.5 1123 c 128,-1,17
 510 1107 510 1107 538 1079.5 c 128,-1,18
 566 1052 566 1052 582 1015 c 128,-1,19
 598 978 598 978 598 936 c 256,0,1
EndSplineSet
EndChar

StartChar: questiondown
Encoding: 191 191 148
Width: 1378
Flags: W
LayerCount: 2
Fore
SplineSet
715 -43 m 0,0,1
 651 -43 651 -43 590 -35 c 128,-1,2
 529 -27 529 -27 475 -11.5 c 128,-1,3
 421 4 421 4 375.5 26 c 128,-1,4
 330 48 330 48 297 76 c 0,5,6
 260 107 260 107 231.5 142 c 128,-1,7
 203 177 203 177 184 219 c 0,8,9
 141 303 141 303 141 397 c 0,10,11
 141 447 141 447 151 512.5 c 128,-1,12
 161 578 161 578 182 637 c 0,13,14
 196 673 196 673 213.5 705.5 c 128,-1,15
 231 738 231 738 255 769.5 c 128,-1,16
 279 801 279 801 309.5 832 c 128,-1,17
 340 863 340 863 379 895 c 0,18,19
 414 926 414 926 435 941 c 128,-1,20
 456 956 456 956 471 967 c 0,21,22
 480 973 480 973 488.5 979.5 c 128,-1,23
 497 986 497 986 508 994 c 0,24,25
 512 998 512 998 518.5 1007.5 c 128,-1,26
 525 1017 525 1017 532.5 1038 c 128,-1,27
 540 1059 540 1059 547.5 1095 c 128,-1,28
 555 1131 555 1131 559 1186 c 0,29,30
 562 1218 562 1218 563 1248 c 128,-1,31
 564 1278 564 1278 564 1300.5 c 128,-1,32
 564 1323 564 1323 563.5 1337 c 128,-1,33
 563 1351 563 1351 563 1352 c 2,34,-1
 563 1382 l 1,35,-1
 885 1382 l 1,36,-1
 885 1354 l 2,37,38
 885 1353 885 1353 885.5 1338 c 128,-1,39
 886 1323 886 1323 886 1299.5 c 128,-1,40
 886 1276 886 1276 885.5 1245.5 c 128,-1,41
 885 1215 885 1215 883 1182 c 0,42,43
 880 1118 880 1118 874.5 1076.5 c 128,-1,44
 869 1035 869 1035 862.5 1008.5 c 128,-1,45
 856 982 856 982 849 968.5 c 128,-1,46
 842 955 842 955 836 948 c 0,47,48
 814 924 814 924 796 904.5 c 128,-1,49
 778 885 778 885 758.5 866 c 128,-1,50
 739 847 739 847 715 826 c 128,-1,51
 691 805 691 805 657 776 c 1,52,-1
 657 774 l 1,53,-1
 655 774 l 1,54,55
 628 754 628 754 602 731 c 0,56,57
 579 711 579 711 555 685.5 c 128,-1,58
 531 660 531 660 512 633 c 0,59,60
 500 615 500 615 494 594.5 c 128,-1,61
 488 574 488 574 485 553 c 128,-1,62
 482 532 482 532 481.5 512 c 128,-1,63
 481 492 481 492 481 477 c 0,64,65
 481 431 481 431 494 397 c 128,-1,66
 507 363 507 363 535 334 c 0,67,68
 562 303 562 303 605.5 291 c 128,-1,69
 649 279 649 279 721 279 c 0,70,71
 768 279 768 279 802 282.5 c 128,-1,72
 836 286 836 286 861 294.5 c 128,-1,73
 886 303 886 303 903.5 317 c 128,-1,74
 921 331 921 331 936 352 c 0,75,76
 942 363 942 363 949 390 c 128,-1,77
 956 417 956 417 958 473 c 2,78,-1
 958 483 l 1,79,-1
 958 508 l 1,80,-1
 1257 508 l 1,81,-1
 1257 479 l 2,82,83
 1257 450 1257 450 1251.5 404.5 c 128,-1,84
 1246 359 1246 359 1231 303 c 0,85,86
 1224 279 1224 279 1214 252.5 c 128,-1,87
 1204 226 1204 226 1191 199 c 128,-1,88
 1178 172 1178 172 1161.5 147 c 128,-1,89
 1145 122 1145 122 1124 102 c 0,90,91
 1050 31 1050 31 944.5 -6 c 128,-1,92
 839 -43 839 -43 715 -43 c 0,0,1
725 1573 m 256,93,94
 690 1573 690 1573 659 1586.5 c 128,-1,95
 628 1600 628 1600 605 1623 c 128,-1,96
 582 1646 582 1646 568.5 1677 c 128,-1,97
 555 1708 555 1708 555 1743 c 256,98,99
 555 1778 555 1778 568.5 1809.5 c 128,-1,100
 582 1841 582 1841 605 1864.5 c 128,-1,101
 628 1888 628 1888 659 1901.5 c 128,-1,102
 690 1915 690 1915 725 1915 c 256,103,104
 760 1915 760 1915 791.5 1901.5 c 128,-1,105
 823 1888 823 1888 846.5 1864.5 c 128,-1,106
 870 1841 870 1841 883.5 1809.5 c 128,-1,107
 897 1778 897 1778 897 1743 c 256,108,109
 897 1708 897 1708 883.5 1677 c 128,-1,110
 870 1646 870 1646 846.5 1623 c 128,-1,111
 823 1600 823 1600 791.5 1586.5 c 128,-1,112
 760 1573 760 1573 725 1573 c 256,93,94
EndSplineSet
EndChar

StartChar: Oslash
Encoding: 216 216 149
Width: 2058
Flags: W
LayerCount: 2
Fore
SplineSet
281 -43 m 1,0,-1
 442 238 l 1,1,2
 437 243 437 243 433 248 c 128,-1,3
 429 253 429 253 424 258 c 0,4,5
 313 387 313 387 252 543 c 0,6,7
 220 628 220 628 203 719 c 128,-1,8
 186 810 186 810 186 907 c 0,9,10
 186 1114 186 1114 254 1298 c 0,11,12
 286 1380 286 1380 330.5 1455.5 c 128,-1,13
 375 1531 375 1531 434 1599 c 0,14,15
 545 1730 545 1730 692 1794 c 0,16,17
 764 1826 764 1826 847.5 1843 c 128,-1,18
 931 1860 931 1860 1022 1862 c 2,19,-1
 1040 1862 l 2,20,21
 1125 1860 1125 1860 1201.5 1845.5 c 128,-1,22
 1278 1831 1278 1831 1348 1802 c 1,23,-1
 1413 1913 l 1,24,-1
 1776 1913 l 1,25,-1
 1612 1616 l 1,26,27
 1615 1611 1615 1611 1618 1607.5 c 128,-1,28
 1621 1604 1621 1604 1624 1599 c 0,29,30
 1742 1463 1742 1463 1804 1298 c 0,31,32
 1838 1206 1838 1206 1856 1108 c 128,-1,33
 1874 1010 1874 1010 1874 907 c 0,34,35
 1874 712 1874 712 1806 543 c 0,36,37
 1777 464 1777 464 1734.5 393.5 c 128,-1,38
 1692 323 1692 323 1636 258 c 0,39,40
 1582 196 1582 196 1520 149 c 128,-1,41
 1458 102 1458 102 1389 70 c 0,42,43
 1242 0 1242 0 1067 0 c 2,44,-1
 991 0 l 2,45,46
 926 0 926 0 865.5 14.5 c 128,-1,47
 805 29 805 29 748 47 c 1,48,-1
 698 -43 l 1,49,-1
 281 -43 l 1,0,-1
1016 422 m 1,50,-1
 1032 422 l 2,51,52
 1157 422 1157 422 1242.5 460.5 c 128,-1,53
 1328 499 1328 499 1380 580 c 0,54,55
 1406 620 1406 620 1427 660.5 c 128,-1,56
 1448 701 1448 701 1462.5 748 c 128,-1,57
 1477 795 1477 795 1485 850 c 128,-1,58
 1493 905 1493 905 1493 973 c 0,59,60
 1493 1064 1493 1064 1477.5 1138.5 c 128,-1,61
 1462 1213 1462 1213 1427 1284 c 1,62,-1
 956 426 l 1,63,-1
 1016 422 l 1,50,-1
1024 1569 m 2,64,65
 917 1569 917 1569 837.5 1526.5 c 128,-1,66
 758 1484 758 1484 692 1389 c 0,67,68
 658 1341 658 1341 633.5 1294.5 c 128,-1,69
 609 1248 609 1248 594 1198.5 c 128,-1,70
 579 1149 579 1149 572 1094.5 c 128,-1,71
 565 1040 565 1040 565 977 c 0,72,73
 565 916 565 916 570 864.5 c 128,-1,74
 575 813 575 813 585.5 768 c 128,-1,75
 596 723 596 723 612.5 682 c 128,-1,76
 629 641 629 641 653 602 c 1,77,-1
 1196 1542 l 1,78,79
 1162 1556 1162 1556 1122 1562.5 c 128,-1,80
 1082 1569 1082 1569 1034 1569 c 2,81,-1
 1024 1569 l 2,64,65
EndSplineSet
EndChar

StartChar: ordfeminine
Encoding: 170 170 150
Width: 981
Flags: W
LayerCount: 2
Fore
SplineSet
400 1186 m 0,0,1
 352 1186 352 1186 312 1201 c 128,-1,2
 272 1216 272 1216 240 1245 c 0,3,4
 208 1275 208 1275 193 1313 c 0,5,6
 184 1332 184 1332 180.5 1353 c 128,-1,7
 177 1374 177 1374 178 1397 c 0,8,9
 180 1429 180 1429 185.5 1453.5 c 128,-1,10
 191 1478 191 1478 200 1497 c 0,11,12
 210 1517 210 1517 222.5 1530 c 128,-1,13
 235 1543 235 1543 249 1556 c 0,14,15
 283 1585 283 1585 319 1601 c 128,-1,16
 355 1617 355 1617 397 1623 c 0,17,18
 426 1627 426 1627 461 1627.5 c 128,-1,19
 496 1628 496 1628 527 1628 c 2,20,-1
 557 1628 l 1,21,-1
 579 1628 l 2,22,23
 597 1628 597 1628 603.5 1631 c 128,-1,24
 610 1634 610 1634 612 1636 c 0,25,26
 615 1638 615 1638 615.5 1644.5 c 128,-1,27
 616 1651 616 1651 616 1658 c 2,28,-1
 617 1695 l 2,29,30
 617 1713 617 1713 611 1734 c 128,-1,31
 605 1755 605 1755 586 1767 c 0,32,33
 549 1791 549 1791 482 1791 c 0,34,35
 440 1791 440 1791 418.5 1786 c 128,-1,36
 397 1781 397 1781 387 1776 c 0,37,38
 372 1767 372 1767 366 1758 c 128,-1,39
 360 1749 360 1749 358 1733 c 2,40,-1
 357 1718 l 1,41,-1
 214 1718 l 1,42,-1
 214 1735 l 2,43,44
 214 1747 214 1747 216.5 1763.5 c 128,-1,45
 219 1780 219 1780 227 1798 c 128,-1,46
 235 1816 235 1816 249.5 1834 c 128,-1,47
 264 1852 264 1852 288 1867 c 0,48,49
 325 1890 325 1890 374.5 1902 c 128,-1,50
 424 1914 424 1914 481 1914 c 0,51,52
 594 1914 594 1914 677 1865 c 0,53,54
 756 1815 756 1815 756 1714 c 2,55,-1
 757 1342 l 1,56,-1
 757 1340 l 1,57,-1
 828 1280 l 1,58,-1
 829 1214 l 1,59,-1
 817 1210 l 2,60,61
 815 1209 815 1209 813 1208.5 c 128,-1,62
 811 1208 811 1208 809 1207 c 0,63,64
 798 1204 798 1204 789 1202 c 128,-1,65
 780 1200 780 1200 769 1199 c 0,66,67
 749 1198 749 1198 727 1199 c 0,68,69
 660 1203 660 1203 636 1258 c 0,70,71
 634 1263 634 1263 633 1267 c 128,-1,72
 632 1271 632 1271 630 1276 c 1,73,74
 615 1261 615 1261 593.5 1241.5 c 128,-1,75
 572 1222 572 1222 552 1211 c 0,76,77
 518 1194 518 1194 479 1190 c 128,-1,78
 440 1186 440 1186 400 1186 c 0,0,1
456 1517 m 0,79,80
 427 1515 427 1515 404 1507 c 128,-1,81
 381 1499 381 1499 370 1488 c 0,82,83
 349 1467 349 1467 344 1452.5 c 128,-1,84
 339 1438 339 1438 338 1412 c 0,85,86
 338 1402 338 1402 341 1393.5 c 128,-1,87
 344 1385 344 1385 354 1377 c 0,88,89
 361 1371 361 1371 372 1367.5 c 128,-1,90
 383 1364 383 1364 395.5 1362.5 c 128,-1,91
 408 1361 408 1361 420 1360.5 c 128,-1,92
 432 1360 432 1360 442 1360 c 2,93,-1
 447 1360 l 2,94,95
 474 1360 474 1360 504 1365 c 128,-1,96
 534 1370 534 1370 550 1376 c 256,97,98
 566 1382 566 1382 577.5 1387.5 c 128,-1,99
 589 1393 589 1393 596 1401 c 128,-1,100
 603 1409 603 1409 606.5 1422 c 128,-1,101
 610 1435 610 1435 611 1456 c 2,102,-1
 612 1518 l 1,103,-1
 551 1518 l 2,104,105
 528 1518 528 1518 509 1518 c 0,106,107
 492 1518 492 1518 477 1518 c 128,-1,108
 462 1518 462 1518 456 1517 c 0,79,80
EndSplineSet
EndChar

StartChar: plusminus
Encoding: 177 177 151
Width: 1350
Flags: W
LayerCount: 2
Fore
SplineSet
506 408 m 1,0,-1
 506 707 l 1,1,-1
 207 707 l 1,2,-1
 207 973 l 1,3,-1
 506 973 l 1,4,-1
 506 1272 l 1,5,-1
 772 1272 l 1,6,-1
 772 973 l 1,7,-1
 1071 973 l 1,8,-1
 1071 707 l 1,9,-1
 772 707 l 1,10,-1
 772 408 l 1,11,-1
 506 408 l 1,0,-1
207 0 m 1,12,-1
 207 272 l 1,13,-1
 1071 272 l 1,14,-1
 1071 0 l 1,15,-1
 207 0 l 1,12,-1
EndSplineSet
EndChar

StartChar: ellipsis
Encoding: 8230 8230 157
Width: 2568
Flags: W
LayerCount: 2
Fore
SplineSet
610 178 m 0,0,1
 610 137 610 137 594 100 c 128,-1,2
 578 63 578 63 551 35.5 c 128,-1,3
 524 8 524 8 487 -8.5 c 128,-1,4
 450 -25 450 -25 408 -25 c 256,5,6
 366 -25 366 -25 329 -8.5 c 128,-1,7
 292 8 292 8 264.5 35.5 c 128,-1,8
 237 63 237 63 221 100 c 128,-1,9
 205 137 205 137 205 178 c 0,10,11
 205 220 205 220 221 257.5 c 128,-1,12
 237 295 237 295 264.5 323 c 128,-1,13
 292 351 292 351 329 367 c 128,-1,14
 366 383 366 383 408 383 c 256,15,16
 450 383 450 383 487 367 c 128,-1,17
 524 351 524 351 551 323 c 128,-1,18
 578 295 578 295 594 257.5 c 128,-1,19
 610 220 610 220 610 178 c 0,0,1
1427 178 m 0,20,21
 1427 137 1427 137 1411 100 c 128,-1,22
 1395 63 1395 63 1368 35.5 c 128,-1,23
 1341 8 1341 8 1304 -8.5 c 128,-1,24
 1267 -25 1267 -25 1225 -25 c 256,25,26
 1183 -25 1183 -25 1146 -8.5 c 128,-1,27
 1109 8 1109 8 1081.5 35.5 c 128,-1,28
 1054 63 1054 63 1038 100 c 128,-1,29
 1022 137 1022 137 1022 178 c 0,30,31
 1022 220 1022 220 1038 257.5 c 128,-1,32
 1054 295 1054 295 1081.5 323 c 128,-1,33
 1109 351 1109 351 1146 367 c 128,-1,34
 1183 383 1183 383 1225 383 c 256,35,36
 1267 383 1267 383 1304 367 c 128,-1,37
 1341 351 1341 351 1368 323 c 128,-1,38
 1395 295 1395 295 1411 257.5 c 128,-1,39
 1427 220 1427 220 1427 178 c 0,20,21
2245 178 m 0,40,41
 2245 137 2245 137 2229 100 c 128,-1,42
 2213 63 2213 63 2185.5 35.5 c 128,-1,43
 2158 8 2158 8 2121 -8.5 c 128,-1,44
 2084 -25 2084 -25 2042 -25 c 256,45,46
 2000 -25 2000 -25 1963 -8.5 c 128,-1,47
 1926 8 1926 8 1898.5 35.5 c 128,-1,48
 1871 63 1871 63 1855 100 c 128,-1,49
 1839 137 1839 137 1839 178 c 0,50,51
 1839 220 1839 220 1855 257.5 c 128,-1,52
 1871 295 1871 295 1898.5 323 c 128,-1,53
 1926 351 1926 351 1963 367 c 128,-1,54
 2000 383 2000 383 2042 383 c 256,55,56
 2084 383 2084 383 2121 367 c 128,-1,57
 2158 351 2158 351 2185.5 323 c 128,-1,58
 2213 295 2213 295 2229 257.5 c 128,-1,59
 2245 220 2245 220 2245 178 c 0,40,41
EndSplineSet
EndChar

StartChar: guilsinglleft
Encoding: 8249 8249 175
Width: 1706
Flags: W
LayerCount: 2
Fore
SplineSet
883 0 m 1,0,-1
 512 637 l 1,1,-1
 934 1214 l 1,2,-1
 1210 1214 l 1,3,-1
 803 637 l 1,4,-1
 1206 0 l 1,5,-1
 883 0 l 1,0,-1
EndSplineSet
EndChar

StartChar: guilsinglright
Encoding: 8250 8250 176
Width: 1706
Flags: W
LayerCount: 2
Fore
SplineSet
494 0 m 1,0,-1
 899 637 l 1,1,-1
 492 1214 l 1,2,-1
 768 1214 l 1,3,-1
 1190 637 l 1,4,-1
 819 0 l 1,5,-1
 494 0 l 1,0,-1
EndSplineSet
EndChar

StartChar: lozenge
Encoding: 9674 9674 177
Width: 1706
Flags: W
LayerCount: 2
Fore
SplineSet
582 0 m 1,0,-1
 211 637 l 1,1,-1
 633 1214 l 1,2,-1
 1071 1214 l 1,3,-1
 1493 637 l 1,4,-1
 1122 0 l 1,5,-1
 582 0 l 1,0,-1
852 84 m 1,6,-1
 1204 637 l 1,7,-1
 852 1133 l 1,8,-1
 500 637 l 1,9,-1
 852 84 l 1,6,-1
EndSplineSet
EndChar

StartChar: hungarumlaut
Encoding: 733 733 183
Width: 1958
Flags: W
LayerCount: 2
Fore
SplineSet
958 1722 m 1,0,-1
 575 1364 l 1,1,-1
 410 1530 l 1,2,-1
 768 1913 l 1,3,-1
 958 1722 l 1,0,-1
1548 1722 m 1,4,-1
 1165 1364 l 1,5,-1
 999 1530 l 1,6,-1
 1358 1913 l 1,7,-1
 1548 1722 l 1,4,-1
EndSplineSet
EndChar

StartChar: ogonek
Encoding: 731 731 184
Width: 1706
Flags: W
LayerCount: 2
Fore
SplineSet
806 0 m 1,0,-1
 806 -138 l 1,1,-1
 690 -138 l 2,2,3
 659 -138 659 -138 638 -159.5 c 128,-1,4
 617 -181 617 -181 617 -211 c 0,5,6
 617 -242 617 -242 638 -263.5 c 128,-1,7
 659 -285 659 -285 690 -285 c 2,8,-1
 845 -285 l 1,9,-1
 845 -435 l 1,10,-1
 690 -435 l 2,11,12
 644 -435 644 -435 603 -417.5 c 128,-1,13
 562 -400 562 -400 531.5 -369.5 c 128,-1,14
 501 -339 501 -339 483.5 -298.5 c 128,-1,15
 466 -258 466 -258 466 -211 c 0,16,17
 466 -175 466 -175 477 -141.5 c 128,-1,18
 488 -108 488 -108 508 -80.5 c 128,-1,19
 528 -53 528 -53 555.5 -32.5 c 128,-1,20
 583 -12 583 -12 616 0 c 1,21,-1
 806 0 l 1,0,-1
EndSplineSet
EndChar

StartChar: guillemotleft
Encoding: 171 171 185
Width: 2011
Flags: W
LayerCount: 2
Fore
SplineSet
725 0 m 1,0,-1
 354 637 l 1,1,-1
 776 1214 l 1,2,-1
 1053 1214 l 1,3,-1
 645 637 l 1,4,-1
 1051 0 l 1,5,-1
 725 0 l 1,0,-1
1300 0 m 1,6,-1
 930 637 l 1,7,-1
 1352 1214 l 1,8,-1
 1628 1214 l 1,9,-1
 1221 637 l 1,10,-1
 1626 0 l 1,11,-1
 1300 0 l 1,6,-1
EndSplineSet
EndChar

StartChar: guillemotright
Encoding: 187 187 186
Width: 2011
Flags: W
LayerCount: 2
Fore
SplineSet
961 0 m 1,0,-1
 1366 637 l 1,1,-1
 958 1214 l 1,2,-1
 1235 1214 l 1,3,-1
 1657 637 l 1,4,-1
 1286 0 l 1,5,-1
 961 0 l 1,0,-1
385 0 m 1,6,-1
 791 637 l 1,7,-1
 383 1214 l 1,8,-1
 657 1214 l 1,9,-1
 1081 637 l 1,10,-1
 711 0 l 1,11,-1
 385 0 l 1,6,-1
EndSplineSet
EndChar

